<svg width="443" height="144" viewBox="0 0 443 144" fill="none" xmlns="http://www.w3.org/2000/svg">
<g clip-path="url(#clip0_2033_0)">
<path d="M97.2943 23.3291H85.7573V105.757H107.555V33.5782C107.555 27.9171 102.962 23.3291 97.2943 23.3291Z" fill="black"/>
<path d="M97.2943 0H85.7573V17.1077H107.555V10.2491C107.555 4.58797 102.962 0 97.2943 0Z" fill="black"/>
<path d="M268.559 23.3291H257.022V105.757H278.819V33.5782C278.819 27.9171 274.226 23.3291 268.559 23.3291Z" fill="black"/>
<path d="M268.559 0H257.022V17.1077H278.819V10.2491C278.819 4.58797 274.226 0 268.559 0Z" fill="black"/>
<path d="M163.605 23.3291H153.967C133.493 23.3291 116.896 39.908 116.896 60.3595V105.757H140.25V58.9286C140.25 51.2924 146.447 45.1025 154.092 45.1025H163.605V23.3291Z" fill="black"/>
<path d="M248.459 64.5426V12.1309C248.459 5.00788 242.356 0 235.225 0H226.662V34.2154C221.991 25.6615 215.202 23.8108 210.313 23.3287C200.1 22.3177 190.12 23.3753 182.195 31.3071C172.215 41.2762 171.39 52.6605 171.39 64.5426C171.39 74.7917 171.841 85.0874 180.763 94.481C188.516 102.646 198.496 105.757 210.313 105.757C221.212 105.757 232.111 104.201 239.693 94.9321C248.163 84.5586 248.459 75.7715 248.459 64.5426ZM210.313 87.8713C200.427 87.8713 192.409 77.42 192.409 64.5426C192.409 51.6652 200.427 41.214 210.313 41.214C220.2 41.214 228.218 51.6652 228.218 64.5426C228.218 77.42 220.2 87.8713 210.313 87.8713Z" fill="black"/>
<path d="M325.528 89.1777C311.515 88.6489 309.958 69.986 309.958 69.986H362.895C362.895 49.7678 359.89 37.5903 350.47 29.9385C344.149 24.8062 338.638 21.7734 326.306 21.7734C317.027 21.7734 308.511 23.873 301.909 29.9385C293.517 37.6369 288.161 50.7943 288.161 63.765C288.161 75.9892 291.353 87.4358 298.935 95.1032C305.724 101.977 316.342 105.757 326.306 105.757C335.259 105.757 345.364 104.248 351.576 98.2137C358.224 91.7594 359.672 86.5027 361.291 79.3175H341.098C341.098 79.3175 341.082 89.7842 325.528 89.1777ZM325.528 38.8811C341.098 38.8811 339.977 55.9888 339.977 55.9888H311.515C311.515 55.9888 311.515 38.8811 325.528 38.8811Z" fill="black"/>
<path d="M369.123 77.7622H391.247C391.247 77.7622 390.92 90.2042 406.489 90.2042C411.705 90.2042 415.177 89.3332 417.482 88.1668C421.249 86.2694 421.607 81.0904 418.229 78.5709C414.461 75.7559 412.702 74.6517 394.75 69.9238C374.556 64.6204 371.832 54.6513 371.832 47.435C371.832 29.5497 387.744 21.7734 404.901 21.7734C422.059 21.7734 439.185 32.6601 439.185 48.2126H421.28C421.28 48.2126 418.167 38.1035 404.932 37.5592C397.879 37.2637 394.984 40.6852 393.878 42.7692C393.286 43.889 393.24 45.1954 393.785 46.3307C395.155 49.1768 400.044 54.4024 417.388 57.544C434.515 60.6545 442.299 69.7527 442.299 79.9396C442.299 100.313 425.531 105.757 407.844 105.757C390.157 105.757 369.123 99.5356 369.123 77.7622Z" fill="black"/>
<path d="M34.3776 72.054C36.0973 72.054 37.4915 70.6614 37.4915 68.9435C37.4915 67.2256 36.0973 65.833 34.3776 65.833C32.6578 65.833 31.2637 67.2256 31.2637 68.9435C31.2637 70.6614 32.6578 72.054 34.3776 72.054Z" fill="black"/>
<path d="M42.9411 72.054C44.6608 72.054 46.055 70.6614 46.055 68.9435C46.055 67.2256 44.6608 65.833 42.9411 65.833C41.2213 65.833 39.8271 67.2256 39.8271 68.9435C39.8271 70.6614 41.2213 72.054 42.9411 72.054Z" fill="black"/>
<path d="M48.3898 79.3177C50.1095 79.3177 51.5037 77.9251 51.5037 76.2072C51.5037 74.4893 50.1095 73.0967 48.3898 73.0967C46.67 73.0967 45.2759 74.4893 45.2759 76.2072C45.2759 77.9251 46.67 79.3177 48.3898 79.3177Z" fill="black"/>
<path d="M51.504 72.054C53.2238 72.054 54.618 70.6614 54.618 68.9435C54.618 67.2256 53.2238 65.833 51.504 65.833C49.7843 65.833 48.3901 67.2256 48.3901 68.9435C48.3901 70.6614 49.7843 72.054 51.504 72.054Z" fill="black"/>
<path d="M38.6593 82.428C40.3791 82.428 41.7732 81.0354 41.7732 79.3175C41.7732 77.5996 40.3791 76.207 38.6593 76.207C36.9396 76.207 35.5454 77.5996 35.5454 79.3175C35.5454 81.0354 36.9396 82.428 38.6593 82.428Z" fill="black"/>
<path d="M29.7067 79.3177C31.4264 79.3177 32.8206 77.9251 32.8206 76.2072C32.8206 74.4893 31.4264 73.0967 29.7067 73.0967C27.9869 73.0967 26.5928 74.4893 26.5928 76.2072C26.5928 77.9251 27.9869 79.3177 29.7067 79.3177Z" fill="black"/>
<path d="M0 114.901H20.7075V119.536H4.23491V129.179H16.8929V133.813H4.23491V143.487H0.0155695V114.901H0Z" fill="#009A43"/>
<path d="M30.999 129.086C30.999 119.925 36.8532 114.373 45.1829 114.373C53.5126 114.373 59.3667 119.941 59.3667 129.086C59.3667 138.246 53.5126 144 45.1829 144C36.8376 144 30.999 138.246 30.999 129.086ZM53.4503 129.086C53.4503 121.963 51.1149 119.132 45.1829 119.132C39.2509 119.132 36.9154 121.963 36.9154 129.086C36.9154 136.209 39.2509 139.257 45.1829 139.257C51.1149 139.257 53.4503 136.209 53.4503 129.086Z" fill="#009A43"/>
<path d="M376.643 129.086C376.643 119.925 382.497 114.373 390.827 114.373C399.157 114.373 405.011 119.941 405.011 129.086C405.011 138.246 399.157 144 390.827 144C382.482 144 376.643 138.246 376.643 129.086ZM399.094 129.086C399.094 121.963 396.759 119.132 390.827 119.132C384.895 119.132 382.559 121.963 382.559 129.086C382.559 136.209 384.895 139.257 390.827 139.257C396.759 139.257 399.094 136.209 399.094 129.086Z" fill="#009A43"/>
<path d="M73.3945 114.901H83.795C90.5522 114.901 93.8529 118.541 93.8529 124.497C93.8529 130.205 90.5522 134.513 83.795 134.513H77.6294V143.487H73.4101V114.901H73.3945ZM84.2465 130.003C90.412 130.003 90.4276 119.754 84.2465 119.396H77.6139V130.003H84.2465ZM81.3973 133.518L86.2705 131.636L96.4063 143.487H90.0539L81.3973 133.518Z" fill="#009A43"/>
<path d="M130.722 114.901H151.414V119.536H136.498V126.939H149.078V131.574H136.498V138.852H151.912V143.487H130.722V114.901Z" fill="#009A43"/>
<path d="M168.929 114.901H178.785C188.998 114.901 194.463 120.003 194.463 129.085C194.463 138.168 188.998 143.471 178.972 143.471H168.929V114.901ZM178.473 138.945C186.227 138.945 188.516 133.751 188.547 129.085C188.578 124.419 186.227 119.443 178.473 119.443H174.705V138.945H178.473Z" fill="#009A43"/>
<path d="M206.779 131.682V114.901H212.555V130.221C212.555 137.095 214.377 139.241 218.705 139.241C223.111 139.241 226.583 137.079 226.583 130.221V114.901H232.188V131.682C232.188 140.858 225.493 144 218.705 144C211.917 144 206.779 140.843 206.779 131.682Z" fill="#009A43"/>
<path d="M244.566 129.21C244.566 120.563 250.95 115.539 259.451 115.291C266.364 115.088 269.478 118.199 270.241 120.159L266.364 122.865C264.807 121.309 263.25 119.941 259.529 119.847C255.465 119.754 250.53 122.445 250.53 129.117C250.53 135.851 253.908 138.417 259.357 138.526C263.25 138.604 266.364 135.307 267.127 133.954L271.019 137.655C268.372 140.112 264.791 143.083 259.171 143.083C250.825 143.083 244.566 137.919 244.566 129.21Z" fill="#009A43"/>
<path d="M294.17 114.901H296.693L311.515 143.487H306.221L300.943 133.751C300.243 132.149 295.369 122.024 295.369 122.024C295.369 122.024 290.496 132.149 289.795 133.751L284.439 143.487H279.364L294.17 114.901ZM286.323 133.424H304.384V137.888H286.323V133.424Z" fill="#009A43"/>
<path d="M328.502 119.536H318.459V114.901H342.764V119.536H332.721V143.487H328.502V119.536Z" fill="#009A43"/>
<path d="M357.134 114.901H362.911V143.487H357.134V114.901Z" fill="#009A43"/>
<path d="M419.35 114.901L438.619 132.196V114.901H443V143.487L423.616 125.975C423.616 125.975 423.616 126.099 423.616 129.085V143.471H419.35V114.901Z" fill="#009A43"/>
<path d="M42.9412 22.551C42.9412 22.551 27.3716 22.551 21.1438 33.4377V13.204C21.1438 10.0624 20.3654 6.95194 18.6994 4.29247C17.2826 2.03737 13.6082 0 10.6344 0C4.01735 0 0.124962 0 0.124962 0V74.9783C0.124962 74.9783 -1.43199 105.757 28.1501 105.757C28.1501 105.757 35.9349 105.757 35.9349 99.5356C35.9349 93.3146 32.0425 90.9818 32.0425 87.8713H44.4981C44.4981 92.537 41.3842 92.537 41.3842 98.758C41.3842 105.71 44.9652 105.757 48.6241 105.757C52.2829 105.757 77.1942 103.299 77.1942 64.5426C77.1942 33.4377 59.367 22.551 42.9412 22.551ZM38.2703 83.9832C26.6554 83.9832 17.2514 74.5895 17.2514 62.9874C17.2514 51.3853 26.6554 41.9916 38.2703 41.9916C49.8852 41.9916 59.2892 51.3853 59.2892 62.9874C59.2892 74.5895 49.8852 83.9832 38.2703 83.9832Z" fill="black"/>
</g>
<defs>
<clipPath id="clip0_2033_0">
<rect width="443" height="144" fill="white"/>
</clipPath>
</defs>
</svg>
