<svg width="581" height="229" viewBox="0 0 581 229" fill="none" xmlns="http://www.w3.org/2000/svg">
<g filter="url(#filter0_d_2025_359)">
<rect x="15" y="159" width="251" height="45" rx="22.5" fill="#084892"/>
<path d="M64.0778 186C63.9711 186 63.8751 185.963 63.7898 185.888C63.7151 185.803 63.6778 185.707 63.6778 185.6V177.312H60.8298C60.7231 177.312 60.6271 177.275 60.5418 177.2C60.4671 177.115 60.4298 177.019 60.4298 176.912V175.2C60.4298 175.083 60.4671 174.987 60.5418 174.912C60.6271 174.837 60.7231 174.8 60.8298 174.8H69.4378C69.5551 174.8 69.6511 174.837 69.7258 174.912C69.8004 174.987 69.8378 175.083 69.8378 175.2V176.912C69.8378 177.029 69.8004 177.125 69.7258 177.2C69.6511 177.275 69.5551 177.312 69.4378 177.312H66.5898V185.6C66.5898 185.707 66.5524 185.803 66.4778 185.888C66.4031 185.963 66.3071 186 66.1898 186H64.0778ZM69.5113 186C69.4259 186 69.3459 185.968 69.2713 185.904C69.2073 185.829 69.1753 185.749 69.1753 185.664C69.1753 185.6 69.1806 185.552 69.1913 185.52L72.9513 175.248C72.9833 175.12 73.0526 175.013 73.1593 174.928C73.2659 174.843 73.4046 174.8 73.5753 174.8H75.9433C76.1139 174.8 76.2526 174.843 76.3593 174.928C76.4659 175.013 76.5353 175.12 76.5673 175.248L80.3113 185.52L80.3433 185.664C80.3433 185.749 80.3059 185.829 80.2313 185.904C80.1673 185.968 80.0873 186 79.9913 186H78.0233C77.7673 186 77.5966 185.888 77.5113 185.664L76.8873 184.032H72.6153L72.0073 185.664C71.9219 185.888 71.7459 186 71.4793 186H69.5113ZM76.2473 181.728L74.7593 177.504L73.2713 181.728H76.2473ZM82.0044 186C81.8977 186 81.8017 185.963 81.7164 185.888C81.6417 185.803 81.6044 185.707 81.6044 185.6V175.2C81.6044 175.083 81.6417 174.987 81.7164 174.912C81.8017 174.837 81.8977 174.8 82.0044 174.8H84.0204C84.1377 174.8 84.2337 174.837 84.3084 174.912C84.383 174.987 84.4204 175.083 84.4204 175.2V178.752L87.3804 175.104C87.5084 174.901 87.7164 174.8 88.0044 174.8H90.3084C90.4044 174.8 90.4844 174.837 90.5484 174.912C90.6124 174.976 90.6444 175.051 90.6444 175.136C90.6444 175.211 90.6284 175.275 90.5964 175.328L86.7564 180.16L90.8844 185.472C90.927 185.515 90.9484 185.579 90.9484 185.664C90.9484 185.749 90.9164 185.829 90.8524 185.904C90.7884 185.968 90.7084 186 90.6124 186H88.2284C87.9724 186 87.759 185.893 87.5884 185.68L84.4204 181.728V185.6C84.4204 185.717 84.383 185.813 84.3084 185.888C84.2337 185.963 84.1377 186 84.0204 186H82.0044ZM92.6138 186C92.5071 186 92.4111 185.963 92.3258 185.888C92.2511 185.803 92.2138 185.707 92.2138 185.6V175.2C92.2138 175.083 92.2511 174.987 92.3258 174.912C92.4111 174.837 92.5071 174.8 92.6138 174.8H100.086C100.203 174.8 100.299 174.837 100.374 174.912C100.448 174.987 100.486 175.083 100.486 175.2V176.704C100.486 176.811 100.448 176.907 100.374 176.992C100.299 177.067 100.203 177.104 100.086 177.104H94.9818V179.264H99.7338C99.8511 179.264 99.9471 179.307 100.022 179.392C100.096 179.467 100.134 179.563 100.134 179.68V181.072C100.134 181.179 100.096 181.275 100.022 181.36C99.9471 181.435 99.8511 181.472 99.7338 181.472H94.9818V183.696H100.214C100.331 183.696 100.427 183.733 100.502 183.808C100.576 183.883 100.614 183.979 100.614 184.096V185.6C100.614 185.707 100.576 185.803 100.502 185.888C100.427 185.963 100.331 186 100.214 186H92.6138ZM106.239 186C106.132 186 106.036 185.963 105.951 185.888C105.876 185.803 105.839 185.707 105.839 185.6V175.2C105.839 175.083 105.876 174.987 105.951 174.912C106.036 174.837 106.132 174.8 106.239 174.8H107.967C108.223 174.8 108.409 174.917 108.527 175.152L111.343 180.192L114.159 175.152C114.276 174.917 114.463 174.8 114.719 174.8H116.431C116.548 174.8 116.644 174.837 116.719 174.912C116.804 174.987 116.847 175.083 116.847 175.2V185.6C116.847 185.717 116.804 185.813 116.719 185.888C116.644 185.963 116.548 186 116.431 186H114.527C114.409 186 114.308 185.963 114.223 185.888C114.148 185.813 114.111 185.717 114.111 185.6V179.6L112.319 182.944C112.18 183.189 111.993 183.312 111.759 183.312H110.927C110.788 183.312 110.676 183.28 110.591 183.216C110.505 183.152 110.431 183.061 110.367 182.944L108.559 179.6V185.6C108.559 185.707 108.521 185.803 108.447 185.888C108.372 185.963 108.276 186 108.159 186H106.239ZM119.489 186C119.382 186 119.286 185.963 119.201 185.888C119.126 185.803 119.089 185.707 119.089 185.6V175.2C119.089 175.083 119.126 174.987 119.201 174.912C119.286 174.837 119.382 174.8 119.489 174.8H126.961C127.078 174.8 127.174 174.837 127.249 174.912C127.323 174.987 127.361 175.083 127.361 175.2V176.704C127.361 176.811 127.323 176.907 127.249 176.992C127.174 177.067 127.078 177.104 126.961 177.104H121.857V179.264H126.609C126.726 179.264 126.822 179.307 126.897 179.392C126.971 179.467 127.009 179.563 127.009 179.68V181.072C127.009 181.179 126.971 181.275 126.897 181.36C126.822 181.435 126.726 181.472 126.609 181.472H121.857V183.696H127.089C127.206 183.696 127.302 183.733 127.377 183.808C127.451 183.883 127.489 183.979 127.489 184.096V185.6C127.489 185.707 127.451 185.803 127.377 185.888C127.302 185.963 127.206 186 127.089 186H119.489ZM135.203 186C135.096 186 135 185.963 134.915 185.888C134.84 185.803 134.803 185.707 134.803 185.6V177.312H131.955C131.848 177.312 131.752 177.275 131.667 177.2C131.592 177.115 131.555 177.019 131.555 176.912V175.2C131.555 175.083 131.592 174.987 131.667 174.912C131.752 174.837 131.848 174.8 131.955 174.8H140.563C140.68 174.8 140.776 174.837 140.851 174.912C140.925 174.987 140.963 175.083 140.963 175.2V176.912C140.963 177.029 140.925 177.125 140.851 177.2C140.776 177.275 140.68 177.312 140.563 177.312H137.715V185.6C137.715 185.707 137.677 185.803 137.603 185.888C137.528 185.963 137.432 186 137.315 186H135.203ZM146.821 186.16C145.317 186.16 144.133 185.792 143.269 185.056C142.405 184.32 141.946 183.237 141.893 181.808C141.882 181.499 141.877 181.04 141.877 180.432C141.877 179.813 141.882 179.349 141.893 179.04C141.946 177.632 142.41 176.549 143.285 175.792C144.17 175.024 145.349 174.64 146.821 174.64C148.293 174.64 149.472 175.024 150.357 175.792C151.242 176.549 151.706 177.632 151.749 179.04C151.77 179.659 151.781 180.123 151.781 180.432C151.781 180.731 151.77 181.189 151.749 181.808C151.696 183.237 151.237 184.32 150.373 185.056C149.509 185.792 148.325 186.16 146.821 186.16ZM146.821 183.856C147.408 183.856 147.872 183.68 148.213 183.328C148.565 182.976 148.752 182.437 148.773 181.712C148.794 181.093 148.805 180.656 148.805 180.4C148.805 180.123 148.794 179.685 148.773 179.088C148.752 178.363 148.565 177.824 148.213 177.472C147.861 177.12 147.397 176.944 146.821 176.944C146.245 176.944 145.781 177.12 145.429 177.472C145.088 177.824 144.901 178.363 144.869 179.088C144.858 179.387 144.853 179.824 144.853 180.4C144.853 180.965 144.858 181.403 144.869 181.712C144.901 182.437 145.088 182.976 145.429 183.328C145.77 183.68 146.234 183.856 146.821 183.856ZM157.442 186C157.335 186 157.239 185.963 157.154 185.888C157.079 185.803 157.042 185.707 157.042 185.6V175.2C157.042 175.083 157.079 174.987 157.154 174.912C157.239 174.837 157.335 174.8 157.442 174.8H162.322C163.666 174.8 164.663 175.077 165.314 175.632C165.975 176.176 166.306 176.955 166.306 177.968C166.306 178.501 166.167 178.955 165.89 179.328C165.623 179.691 165.319 179.957 164.978 180.128C165.415 180.331 165.783 180.656 166.082 181.104C166.381 181.552 166.53 182.053 166.53 182.608C166.53 183.675 166.178 184.507 165.474 185.104C164.77 185.701 163.767 186 162.466 186H157.442ZM162.002 179.248C162.429 179.248 162.754 179.141 162.978 178.928C163.202 178.704 163.314 178.411 163.314 178.048C163.314 177.696 163.202 177.413 162.978 177.2C162.754 176.987 162.429 176.88 162.002 176.88H159.922V179.248H162.002ZM162.146 183.92C162.583 183.92 162.925 183.792 163.17 183.536C163.415 183.28 163.538 182.971 163.538 182.608C163.538 182.224 163.415 181.909 163.17 181.664C162.925 181.408 162.583 181.28 162.146 181.28H159.922V183.92H162.146ZM168.708 186C168.601 186 168.505 185.963 168.42 185.888C168.345 185.803 168.308 185.707 168.308 185.6V175.2C168.308 175.083 168.345 174.987 168.42 174.912C168.505 174.837 168.601 174.8 168.708 174.8H170.852C170.969 174.8 171.065 174.837 171.14 174.912C171.225 174.987 171.268 175.083 171.268 175.2V185.6C171.268 185.717 171.225 185.813 171.14 185.888C171.065 185.963 170.969 186 170.852 186H168.708ZM173.895 186C173.788 186 173.692 185.963 173.607 185.888C173.532 185.803 173.495 185.707 173.495 185.6V175.2C173.495 175.083 173.532 174.987 173.607 174.912C173.692 174.837 173.788 174.8 173.895 174.8H178.247C179.644 174.8 180.732 175.12 181.511 175.76C182.3 176.389 182.695 177.285 182.695 178.448C182.695 179.195 182.519 179.829 182.167 180.352C181.815 180.875 181.33 181.275 180.711 181.552L182.903 185.488C182.935 185.552 182.951 185.611 182.951 185.664C182.951 185.749 182.914 185.829 182.839 185.904C182.775 185.968 182.7 186 182.615 186H180.487C180.178 186 179.959 185.856 179.831 185.568L178.007 182.048H176.375V185.6C176.375 185.717 176.332 185.813 176.247 185.888C176.172 185.963 176.076 186 175.959 186H173.895ZM178.215 179.776C178.706 179.776 179.079 179.659 179.335 179.424C179.591 179.179 179.719 178.843 179.719 178.416C179.719 177.989 179.591 177.653 179.335 177.408C179.09 177.152 178.716 177.024 178.215 177.024H176.375V179.776H178.215ZM184.958 186C184.851 186 184.755 185.963 184.67 185.888C184.595 185.803 184.558 185.707 184.558 185.6V175.2C184.558 175.083 184.595 174.987 184.67 174.912C184.755 174.837 184.851 174.8 184.958 174.8H189.118C190.686 174.8 191.902 175.173 192.766 175.92C193.63 176.667 194.083 177.749 194.126 179.168C194.136 179.477 194.142 179.888 194.142 180.4C194.142 180.912 194.136 181.317 194.126 181.616C194.072 183.099 193.63 184.203 192.798 184.928C191.976 185.643 190.776 186 189.198 186H184.958ZM189.118 183.696C189.822 183.696 190.339 183.531 190.67 183.2C191 182.859 191.176 182.32 191.198 181.584C191.219 181.275 191.23 180.875 191.23 180.384C191.23 179.893 191.219 179.499 191.198 179.2C191.176 178.485 190.984 177.957 190.622 177.616C190.27 177.275 189.742 177.104 189.038 177.104H187.438V183.696H189.118ZM196.411 186C196.304 186 196.208 185.963 196.123 185.888C196.048 185.803 196.011 185.707 196.011 185.6V175.2C196.011 175.083 196.048 174.987 196.123 174.912C196.208 174.837 196.304 174.8 196.411 174.8H198.555C198.672 174.8 198.768 174.837 198.843 174.912C198.928 174.987 198.971 175.083 198.971 175.2V185.6C198.971 185.717 198.928 185.813 198.843 185.888C198.768 185.963 198.672 186 198.555 186H196.411ZM201.598 186C201.491 186 201.395 185.963 201.31 185.888C201.235 185.803 201.198 185.707 201.198 185.6V175.2C201.198 175.083 201.235 174.987 201.31 174.912C201.395 174.837 201.491 174.8 201.598 174.8H209.07C209.187 174.8 209.283 174.837 209.358 174.912C209.433 174.987 209.47 175.083 209.47 175.2V176.704C209.47 176.811 209.433 176.907 209.358 176.992C209.283 177.067 209.187 177.104 209.07 177.104H203.966V179.264H208.718C208.835 179.264 208.931 179.307 209.006 179.392C209.081 179.467 209.118 179.563 209.118 179.68V181.072C209.118 181.179 209.081 181.275 209.006 181.36C208.931 181.435 208.835 181.472 208.718 181.472H203.966V183.696H209.198C209.315 183.696 209.411 183.733 209.486 183.808C209.561 183.883 209.598 183.979 209.598 184.096V185.6C209.598 185.707 209.561 185.803 209.486 185.888C209.411 185.963 209.315 186 209.198 186H201.598ZM215.593 186.16C214.58 186.16 213.71 186.011 212.985 185.712C212.26 185.413 211.71 185.024 211.337 184.544C210.974 184.053 210.782 183.52 210.761 182.944C210.761 182.859 210.793 182.784 210.857 182.72C210.932 182.645 211.017 182.608 211.113 182.608H213.129C213.257 182.608 213.358 182.635 213.433 182.688C213.518 182.731 213.604 182.8 213.689 182.896C213.828 183.173 214.052 183.403 214.361 183.584C214.67 183.765 215.081 183.856 215.593 183.856C216.201 183.856 216.665 183.76 216.985 183.568C217.305 183.376 217.465 183.115 217.465 182.784C217.465 182.549 217.38 182.357 217.209 182.208C217.049 182.059 216.793 181.925 216.441 181.808C216.089 181.691 215.566 181.557 214.873 181.408C213.593 181.141 212.633 180.752 211.993 180.24C211.364 179.717 211.049 178.976 211.049 178.016C211.049 177.365 211.23 176.784 211.593 176.272C211.956 175.76 212.473 175.36 213.145 175.072C213.817 174.784 214.601 174.64 215.497 174.64C216.425 174.64 217.23 174.8 217.913 175.12C218.596 175.44 219.113 175.845 219.465 176.336C219.828 176.816 220.02 177.291 220.041 177.76C220.041 177.856 220.009 177.936 219.945 178C219.881 178.064 219.801 178.096 219.705 178.096H217.593C217.465 178.096 217.358 178.075 217.273 178.032C217.198 177.989 217.129 177.92 217.065 177.824C217.001 177.579 216.825 177.371 216.537 177.2C216.26 177.029 215.913 176.944 215.497 176.944C215.017 176.944 214.649 177.029 214.393 177.2C214.137 177.371 214.009 177.621 214.009 177.952C214.009 178.176 214.078 178.363 214.217 178.512C214.366 178.661 214.601 178.8 214.921 178.928C215.252 179.045 215.721 179.168 216.329 179.296C217.321 179.477 218.11 179.707 218.697 179.984C219.294 180.251 219.732 180.603 220.009 181.04C220.286 181.467 220.425 182.005 220.425 182.656C220.425 183.371 220.217 183.995 219.801 184.528C219.396 185.051 218.825 185.456 218.089 185.744C217.364 186.021 216.532 186.16 215.593 186.16Z" fill="white"/>
</g>
<path d="M22.2686 70.3018C20.8564 70.3018 19.7402 70.7734 18.9199 71.7168C18.1055 72.6543 17.6982 73.9404 17.6982 75.5752C17.6982 77.2568 18.0908 78.5576 18.876 79.4775C19.667 80.3916 20.792 80.8486 22.251 80.8486C23.1475 80.8486 24.1699 80.6875 25.3184 80.3652V81.6748C24.4277 82.0088 23.3291 82.1758 22.0225 82.1758C20.1299 82.1758 18.668 81.6016 17.6367 80.4531C16.6113 79.3047 16.0986 77.6729 16.0986 75.5576C16.0986 74.2334 16.3447 73.0732 16.8369 72.0771C17.335 71.0811 18.0498 70.3135 18.9814 69.7744C19.9189 69.2354 21.0205 68.9658 22.2861 68.9658C23.6338 68.9658 24.8115 69.2119 25.8193 69.7041L25.1865 70.9873C24.2139 70.5303 23.2412 70.3018 22.2686 70.3018ZM36.2168 77.1748C36.2168 78.7451 35.8213 79.9727 35.0303 80.8574C34.2393 81.7363 33.1465 82.1758 31.752 82.1758C30.8906 82.1758 30.126 81.9736 29.458 81.5693C28.79 81.165 28.2744 80.585 27.9111 79.8291C27.5479 79.0732 27.3662 78.1885 27.3662 77.1748C27.3662 75.6045 27.7588 74.3828 28.5439 73.5098C29.3291 72.6309 30.4189 72.1914 31.8135 72.1914C33.1611 72.1914 34.2305 72.6396 35.0215 73.5361C35.8184 74.4326 36.2168 75.6455 36.2168 77.1748ZM28.8779 77.1748C28.8779 78.4053 29.124 79.3428 29.6162 79.9873C30.1084 80.6318 30.832 80.9541 31.7871 80.9541C32.7422 80.9541 33.4658 80.6348 33.958 79.9961C34.4561 79.3516 34.7051 78.4111 34.7051 77.1748C34.7051 75.9502 34.4561 75.0215 33.958 74.3887C33.4658 73.75 32.7363 73.4307 31.7695 73.4307C30.8145 73.4307 30.0938 73.7441 29.6074 74.3711C29.1211 74.998 28.8779 75.9326 28.8779 77.1748ZM45.375 82V75.7686C45.375 74.9834 45.1963 74.3975 44.8389 74.0107C44.4814 73.624 43.9219 73.4307 43.1602 73.4307C42.1523 73.4307 41.4141 73.7031 40.9453 74.248C40.4766 74.793 40.2422 75.6924 40.2422 76.9463V82H38.7832V72.3672H39.9697L40.207 73.6855H40.2773C40.5762 73.2109 40.9951 72.8447 41.5342 72.5869C42.0732 72.3232 42.6738 72.1914 43.3359 72.1914C44.4961 72.1914 45.3691 72.4727 45.9551 73.0352C46.541 73.5918 46.834 74.4854 46.834 75.7158V82H45.375ZM52.9512 80.9717C53.209 80.9717 53.458 80.9541 53.6982 80.9189C53.9385 80.8779 54.1289 80.8369 54.2695 80.7959V81.9121C54.1113 81.9883 53.877 82.0498 53.5664 82.0967C53.2617 82.1494 52.9863 82.1758 52.7402 82.1758C50.877 82.1758 49.9453 81.1943 49.9453 79.2314V73.501H48.5654V72.7979L49.9453 72.1914L50.5605 70.1348H51.4043V72.3672H54.1992V73.501H51.4043V79.1699C51.4043 79.75 51.542 80.1953 51.8174 80.5059C52.0928 80.8164 52.4707 80.9717 52.9512 80.9717ZM60.5977 72.1914C61.0254 72.1914 61.4092 72.2266 61.749 72.2969L61.5469 73.6504C61.1484 73.5625 60.7969 73.5186 60.4922 73.5186C59.7129 73.5186 59.0449 73.835 58.4883 74.4678C57.9375 75.1006 57.6621 75.8887 57.6621 76.832V82H56.2031V72.3672H57.4072L57.5742 74.1514H57.6445C58.002 73.5244 58.4326 73.041 58.9365 72.7012C59.4404 72.3613 59.9941 72.1914 60.5977 72.1914ZM65.0098 82H63.5508V72.3672H65.0098V82ZM63.4277 69.7568C63.4277 69.4229 63.5098 69.1797 63.6738 69.0273C63.8379 68.8691 64.043 68.79 64.2891 68.79C64.5234 68.79 64.7256 68.8691 64.8955 69.0273C65.0654 69.1855 65.1504 69.4287 65.1504 69.7568C65.1504 70.085 65.0654 70.3311 64.8955 70.4951C64.7256 70.6533 64.5234 70.7324 64.2891 70.7324C64.043 70.7324 63.8379 70.6533 63.6738 70.4951C63.5098 70.3311 63.4277 70.085 63.4277 69.7568ZM72.5859 72.209C73.8516 72.209 74.833 72.6426 75.5303 73.5098C76.2334 74.3711 76.585 75.5928 76.585 77.1748C76.585 78.7568 76.2305 79.9873 75.5215 80.8662C74.8184 81.7393 73.8398 82.1758 72.5859 82.1758C71.959 82.1758 71.3848 82.0615 70.8633 81.833C70.3477 81.5986 69.9141 81.2412 69.5625 80.7607H69.457L69.1494 82H68.1035V68.3242H69.5625V71.6465C69.5625 72.3906 69.5391 73.0586 69.4922 73.6504H69.5625C70.2422 72.6895 71.25 72.209 72.5859 72.209ZM72.375 73.4307C71.3789 73.4307 70.6611 73.7178 70.2217 74.292C69.7822 74.8604 69.5625 75.8213 69.5625 77.1748C69.5625 78.5283 69.7881 79.498 70.2393 80.084C70.6904 80.6641 71.4141 80.9541 72.4102 80.9541C73.3066 80.9541 73.9746 80.6289 74.4141 79.9785C74.8535 79.3223 75.0732 78.3818 75.0732 77.1572C75.0732 75.9033 74.8535 74.9688 74.4141 74.3535C73.9746 73.7383 73.2949 73.4307 72.375 73.4307ZM80.5137 72.3672V78.6162C80.5137 79.4014 80.6924 79.9873 81.0498 80.374C81.4072 80.7607 81.9668 80.9541 82.7285 80.9541C83.7363 80.9541 84.4717 80.6787 84.9346 80.1279C85.4033 79.5771 85.6377 78.6777 85.6377 77.4297V72.3672H87.0967V82H85.8926L85.6816 80.708H85.6025C85.3037 81.1826 84.8877 81.5459 84.3545 81.7979C83.8271 82.0498 83.2236 82.1758 82.5439 82.1758C81.3721 82.1758 80.4932 81.8975 79.9072 81.3408C79.3271 80.7842 79.0371 79.8936 79.0371 78.6689V72.3672H80.5137ZM93.3105 80.9717C93.5684 80.9717 93.8174 80.9541 94.0576 80.9189C94.2979 80.8779 94.4883 80.8369 94.6289 80.7959V81.9121C94.4707 81.9883 94.2363 82.0498 93.9258 82.0967C93.6211 82.1494 93.3457 82.1758 93.0996 82.1758C91.2363 82.1758 90.3047 81.1943 90.3047 79.2314V73.501H88.9248V72.7979L90.3047 72.1914L90.9199 70.1348H91.7637V72.3672H94.5586V73.501H91.7637V79.1699C91.7637 79.75 91.9014 80.1953 92.1768 80.5059C92.4521 80.8164 92.8301 80.9717 93.3105 80.9717ZM100.632 82.1758C99.208 82.1758 98.083 81.7422 97.2568 80.875C96.4365 80.0078 96.0264 78.8037 96.0264 77.2627C96.0264 75.71 96.4072 74.4766 97.1689 73.5625C97.9365 72.6484 98.9648 72.1914 100.254 72.1914C101.461 72.1914 102.416 72.5898 103.119 73.3867C103.822 74.1777 104.174 75.2236 104.174 76.5244V77.4473H97.5381C97.5674 78.5781 97.8516 79.4365 98.3906 80.0225C98.9355 80.6084 99.7002 80.9014 100.685 80.9014C101.722 80.9014 102.747 80.6846 103.761 80.251V81.5518C103.245 81.7744 102.756 81.9326 102.293 82.0264C101.836 82.126 101.282 82.1758 100.632 82.1758ZM100.236 73.4131C99.4629 73.4131 98.8447 73.665 98.3818 74.1689C97.9248 74.6729 97.6553 75.3701 97.5732 76.2607H102.609C102.609 75.3408 102.404 74.6377 101.994 74.1514C101.584 73.6592 100.998 73.4131 100.236 73.4131ZM114.457 80.9717C114.715 80.9717 114.964 80.9541 115.204 80.9189C115.444 80.8779 115.635 80.8369 115.775 80.7959V81.9121C115.617 81.9883 115.383 82.0498 115.072 82.0967C114.768 82.1494 114.492 82.1758 114.246 82.1758C112.383 82.1758 111.451 81.1943 111.451 79.2314V73.501H110.071V72.7979L111.451 72.1914L112.066 70.1348H112.91V72.3672H115.705V73.501H112.91V79.1699C112.91 79.75 113.048 80.1953 113.323 80.5059C113.599 80.8164 113.977 80.9717 114.457 80.9717ZM124.301 82V75.7686C124.301 74.9834 124.122 74.3975 123.765 74.0107C123.407 73.624 122.848 73.4307 122.086 73.4307C121.072 73.4307 120.331 73.7061 119.862 74.2568C119.399 74.8076 119.168 75.71 119.168 76.9639V82H117.709V68.3242H119.168V72.4639C119.168 72.9619 119.145 73.375 119.098 73.7031H119.186C119.473 73.2402 119.88 72.877 120.407 72.6133C120.94 72.3438 121.547 72.209 122.227 72.209C123.404 72.209 124.286 72.4902 124.872 73.0527C125.464 73.6094 125.76 74.4971 125.76 75.7158V82H124.301ZM133.16 72.1914C133.588 72.1914 133.972 72.2266 134.312 72.2969L134.109 73.6504C133.711 73.5625 133.359 73.5186 133.055 73.5186C132.275 73.5186 131.607 73.835 131.051 74.4678C130.5 75.1006 130.225 75.8887 130.225 76.832V82H128.766V72.3672H129.97L130.137 74.1514H130.207C130.564 73.5244 130.995 73.041 131.499 72.7012C132.003 72.3613 132.557 72.1914 133.16 72.1914ZM144.428 77.1748C144.428 78.7451 144.032 79.9727 143.241 80.8574C142.45 81.7363 141.357 82.1758 139.963 82.1758C139.102 82.1758 138.337 81.9736 137.669 81.5693C137.001 81.165 136.485 80.585 136.122 79.8291C135.759 79.0732 135.577 78.1885 135.577 77.1748C135.577 75.6045 135.97 74.3828 136.755 73.5098C137.54 72.6309 138.63 72.1914 140.024 72.1914C141.372 72.1914 142.441 72.6396 143.232 73.5361C144.029 74.4326 144.428 75.6455 144.428 77.1748ZM137.089 77.1748C137.089 78.4053 137.335 79.3428 137.827 79.9873C138.319 80.6318 139.043 80.9541 139.998 80.9541C140.953 80.9541 141.677 80.6348 142.169 79.9961C142.667 79.3516 142.916 78.4111 142.916 77.1748C142.916 75.9502 142.667 75.0215 142.169 74.3887C141.677 73.75 140.947 73.4307 139.98 73.4307C139.025 73.4307 138.305 73.7441 137.818 74.3711C137.332 74.998 137.089 75.9326 137.089 77.1748ZM148.365 72.3672V78.6162C148.365 79.4014 148.544 79.9873 148.901 80.374C149.259 80.7607 149.818 80.9541 150.58 80.9541C151.588 80.9541 152.323 80.6787 152.786 80.1279C153.255 79.5771 153.489 78.6777 153.489 77.4297V72.3672H154.948V82H153.744L153.533 80.708H153.454C153.155 81.1826 152.739 81.5459 152.206 81.7979C151.679 82.0498 151.075 82.1758 150.396 82.1758C149.224 82.1758 148.345 81.8975 147.759 81.3408C147.179 80.7842 146.889 79.8936 146.889 78.6689V72.3672H148.365ZM165.935 72.3672V73.29L164.15 73.501C164.314 73.7061 164.461 73.9756 164.59 74.3096C164.719 74.6377 164.783 75.0098 164.783 75.4258C164.783 76.3691 164.461 77.1221 163.816 77.6846C163.172 78.2471 162.287 78.5283 161.162 78.5283C160.875 78.5283 160.605 78.5049 160.354 78.458C159.732 78.7861 159.422 79.1992 159.422 79.6973C159.422 79.9609 159.53 80.1572 159.747 80.2861C159.964 80.4092 160.336 80.4707 160.863 80.4707H162.568C163.611 80.4707 164.411 80.6904 164.968 81.1299C165.53 81.5693 165.812 82.208 165.812 83.0459C165.812 84.1123 165.384 84.9238 164.528 85.4805C163.673 86.043 162.425 86.3242 160.784 86.3242C159.524 86.3242 158.552 86.0898 157.866 85.6211C157.187 85.1523 156.847 84.4902 156.847 83.6348C156.847 83.0488 157.034 82.542 157.409 82.1143C157.784 81.6865 158.312 81.3965 158.991 81.2441C158.745 81.1328 158.537 80.96 158.367 80.7256C158.203 80.4912 158.121 80.2188 158.121 79.9082C158.121 79.5566 158.215 79.249 158.402 78.9854C158.59 78.7217 158.886 78.4668 159.29 78.2207C158.792 78.0156 158.385 77.667 158.068 77.1748C157.758 76.6826 157.603 76.1201 157.603 75.4873C157.603 74.4326 157.919 73.6211 158.552 73.0527C159.185 72.4785 160.081 72.1914 161.241 72.1914C161.745 72.1914 162.199 72.25 162.604 72.3672H165.935ZM158.253 83.6172C158.253 84.1387 158.473 84.5342 158.912 84.8037C159.352 85.0732 159.981 85.208 160.802 85.208C162.026 85.208 162.932 85.0234 163.518 84.6543C164.109 84.291 164.405 83.7959 164.405 83.1689C164.405 82.6475 164.244 82.2842 163.922 82.0791C163.6 81.8799 162.993 81.7803 162.103 81.7803H160.354C159.691 81.7803 159.176 81.9385 158.807 82.2549C158.438 82.5713 158.253 83.0254 158.253 83.6172ZM159.044 75.4521C159.044 76.126 159.234 76.6357 159.615 76.9814C159.996 77.3271 160.526 77.5 161.206 77.5C162.63 77.5 163.342 76.8086 163.342 75.4258C163.342 73.9785 162.621 73.2549 161.18 73.2549C160.494 73.2549 159.967 73.4395 159.598 73.8086C159.229 74.1777 159.044 74.7256 159.044 75.4521ZM174.504 82V75.7686C174.504 74.9834 174.325 74.3975 173.968 74.0107C173.61 73.624 173.051 73.4307 172.289 73.4307C171.275 73.4307 170.534 73.7061 170.065 74.2568C169.603 74.8076 169.371 75.71 169.371 76.9639V82H167.912V68.3242H169.371V72.4639C169.371 72.9619 169.348 73.375 169.301 73.7031H169.389C169.676 73.2402 170.083 72.877 170.61 72.6133C171.144 72.3438 171.75 72.209 172.43 72.209C173.607 72.209 174.489 72.4902 175.075 73.0527C175.667 73.6094 175.963 74.4971 175.963 75.7158V82H174.504ZM183.864 69.1504H187.494C189.199 69.1504 190.433 69.4053 191.194 69.915C191.956 70.4248 192.337 71.2305 192.337 72.332C192.337 73.0938 192.123 73.7236 191.695 74.2217C191.273 74.7139 190.655 75.0332 189.841 75.1797V75.2676C191.792 75.6016 192.768 76.627 192.768 78.3438C192.768 79.4922 192.378 80.3887 191.599 81.0332C190.825 81.6777 189.741 82 188.347 82H183.864V69.1504ZM185.358 74.6523H187.819C188.874 74.6523 189.633 74.4883 190.096 74.1602C190.559 73.8262 190.79 73.2666 190.79 72.4814C190.79 71.7607 190.532 71.2422 190.017 70.9258C189.501 70.6035 188.681 70.4424 187.556 70.4424H185.358V74.6523ZM185.358 75.918V80.7256H188.039C189.076 80.7256 189.855 80.5264 190.377 80.1279C190.904 79.7236 191.168 79.0938 191.168 78.2383C191.168 77.4414 190.898 76.8555 190.359 76.4805C189.826 76.1055 189.012 75.918 187.916 75.918H185.358ZM196.775 82H195.316V72.3672H196.775V82ZM195.193 69.7568C195.193 69.4229 195.275 69.1797 195.439 69.0273C195.604 68.8691 195.809 68.79 196.055 68.79C196.289 68.79 196.491 68.8691 196.661 69.0273C196.831 69.1855 196.916 69.4287 196.916 69.7568C196.916 70.085 196.831 70.3311 196.661 70.4951C196.491 70.6533 196.289 70.7324 196.055 70.7324C195.809 70.7324 195.604 70.6533 195.439 70.4951C195.275 70.3311 195.193 70.085 195.193 69.7568ZM204.264 72.1914C204.691 72.1914 205.075 72.2266 205.415 72.2969L205.213 73.6504C204.814 73.5625 204.463 73.5186 204.158 73.5186C203.379 73.5186 202.711 73.835 202.154 74.4678C201.604 75.1006 201.328 75.8887 201.328 76.832V82H199.869V72.3672H201.073L201.24 74.1514H201.311C201.668 73.5244 202.099 73.041 202.603 72.7012C203.106 72.3613 203.66 72.1914 204.264 72.1914ZM213.773 80.708H213.694C213.021 81.6865 212.013 82.1758 210.671 82.1758C209.411 82.1758 208.43 81.7451 207.727 80.8838C207.029 80.0225 206.681 78.7979 206.681 77.21C206.681 75.6221 207.032 74.3887 207.735 73.5098C208.438 72.6309 209.417 72.1914 210.671 72.1914C211.978 72.1914 212.979 72.666 213.677 73.6152H213.791L213.729 72.9209L213.694 72.2441V68.3242H215.153V82H213.967L213.773 80.708ZM210.855 80.9541C211.852 80.9541 212.572 80.6846 213.018 80.1455C213.469 79.6006 213.694 78.7246 213.694 77.5176V77.21C213.694 75.8447 213.466 74.8721 213.009 74.292C212.558 73.7061 211.834 73.4131 210.838 73.4131C209.982 73.4131 209.326 73.7471 208.869 74.415C208.418 75.0771 208.192 76.0146 208.192 77.2275C208.192 78.458 208.418 79.3867 208.869 80.0137C209.32 80.6406 209.982 80.9541 210.855 80.9541ZM219.715 82H218.256V72.3672H219.715V82ZM218.133 69.7568C218.133 69.4229 218.215 69.1797 218.379 69.0273C218.543 68.8691 218.748 68.79 218.994 68.79C219.229 68.79 219.431 68.8691 219.601 69.0273C219.771 69.1855 219.855 69.4287 219.855 69.7568C219.855 70.085 219.771 70.3311 219.601 70.4951C219.431 70.6533 219.229 70.7324 218.994 70.7324C218.748 70.7324 218.543 70.6533 218.379 70.4951C218.215 70.3311 218.133 70.085 218.133 69.7568ZM226.878 82.1758C225.454 82.1758 224.329 81.7422 223.503 80.875C222.683 80.0078 222.272 78.8037 222.272 77.2627C222.272 75.71 222.653 74.4766 223.415 73.5625C224.183 72.6484 225.211 72.1914 226.5 72.1914C227.707 72.1914 228.662 72.5898 229.365 73.3867C230.068 74.1777 230.42 75.2236 230.42 76.5244V77.4473H223.784C223.813 78.5781 224.098 79.4365 224.637 80.0225C225.182 80.6084 225.946 80.9014 226.931 80.9014C227.968 80.9014 228.993 80.6846 230.007 80.251V81.5518C229.491 81.7744 229.002 81.9326 228.539 82.0264C228.082 82.126 227.528 82.1758 226.878 82.1758ZM226.482 73.4131C225.709 73.4131 225.091 73.665 224.628 74.1689C224.171 74.6729 223.901 75.3701 223.819 76.2607H228.855C228.855 75.3408 228.65 74.6377 228.24 74.1514C227.83 73.6592 227.244 73.4131 226.482 73.4131ZM239.13 79.3721C239.13 80.2686 238.796 80.96 238.128 81.4463C237.46 81.9326 236.522 82.1758 235.315 82.1758C234.038 82.1758 233.042 81.9736 232.327 81.5693V80.2158C232.79 80.4502 233.285 80.6348 233.812 80.7695C234.346 80.9043 234.858 80.9717 235.351 80.9717C236.112 80.9717 236.698 80.8516 237.108 80.6113C237.519 80.3652 237.724 79.9932 237.724 79.4951C237.724 79.1201 237.56 78.8008 237.231 78.5371C236.909 78.2676 236.276 77.9512 235.333 77.5879C234.437 77.2539 233.798 76.9639 233.417 76.7178C233.042 76.4658 232.761 76.1816 232.573 75.8652C232.392 75.5488 232.301 75.1709 232.301 74.7314C232.301 73.9463 232.62 73.3281 233.259 72.877C233.897 72.4199 234.773 72.1914 235.887 72.1914C236.924 72.1914 237.938 72.4023 238.928 72.8242L238.409 74.0107C237.442 73.6123 236.566 73.4131 235.781 73.4131C235.09 73.4131 234.568 73.5215 234.217 73.7383C233.865 73.9551 233.689 74.2539 233.689 74.6348C233.689 74.8926 233.754 75.1123 233.883 75.2939C234.018 75.4756 234.231 75.6484 234.524 75.8125C234.817 75.9766 235.38 76.2139 236.212 76.5244C237.354 76.9404 238.125 77.3594 238.523 77.7812C238.928 78.2031 239.13 78.7334 239.13 79.3721ZM250.529 73.501H248.077V82H246.618V73.501H244.896V72.8418L246.618 72.3145V71.7783C246.618 69.4111 247.652 68.2275 249.721 68.2275C250.23 68.2275 250.828 68.3301 251.514 68.5352L251.136 69.7041C250.573 69.5225 250.093 69.4316 249.694 69.4316C249.144 69.4316 248.736 69.6162 248.473 69.9854C248.209 70.3486 248.077 70.9346 248.077 71.7432V72.3672H250.529V73.501ZM260.602 77.1748C260.602 78.7451 260.206 79.9727 259.415 80.8574C258.624 81.7363 257.531 82.1758 256.137 82.1758C255.275 82.1758 254.511 81.9736 253.843 81.5693C253.175 81.165 252.659 80.585 252.296 79.8291C251.933 79.0732 251.751 78.1885 251.751 77.1748C251.751 75.6045 252.144 74.3828 252.929 73.5098C253.714 72.6309 254.804 72.1914 256.198 72.1914C257.546 72.1914 258.615 72.6396 259.406 73.5361C260.203 74.4326 260.602 75.6455 260.602 77.1748ZM253.263 77.1748C253.263 78.4053 253.509 79.3428 254.001 79.9873C254.493 80.6318 255.217 80.9541 256.172 80.9541C257.127 80.9541 257.851 80.6348 258.343 79.9961C258.841 79.3516 259.09 78.4111 259.09 77.1748C259.09 75.9502 258.841 75.0215 258.343 74.3887C257.851 73.75 257.121 73.4307 256.154 73.4307C255.199 73.4307 254.479 73.7441 253.992 74.3711C253.506 74.998 253.263 75.9326 253.263 77.1748ZM267.562 72.1914C267.99 72.1914 268.374 72.2266 268.714 72.2969L268.512 73.6504C268.113 73.5625 267.762 73.5186 267.457 73.5186C266.678 73.5186 266.01 73.835 265.453 74.4678C264.902 75.1006 264.627 75.8887 264.627 76.832V82H263.168V72.3672H264.372L264.539 74.1514H264.609C264.967 73.5244 265.397 73.041 265.901 72.7012C266.405 72.3613 266.959 72.1914 267.562 72.1914ZM282.574 82H275.411V69.1504H282.574V70.4775H276.905V74.6172H282.231V75.9355H276.905V80.6641H282.574V82ZM291.768 80.708H291.688C291.015 81.6865 290.007 82.1758 288.665 82.1758C287.405 82.1758 286.424 81.7451 285.721 80.8838C285.023 80.0225 284.675 78.7979 284.675 77.21C284.675 75.6221 285.026 74.3887 285.729 73.5098C286.433 72.6309 287.411 72.1914 288.665 72.1914C289.972 72.1914 290.974 72.666 291.671 73.6152H291.785L291.724 72.9209L291.688 72.2441V68.3242H293.147V82H291.961L291.768 80.708ZM288.85 80.9541C289.846 80.9541 290.566 80.6846 291.012 80.1455C291.463 79.6006 291.688 78.7246 291.688 77.5176V77.21C291.688 75.8447 291.46 74.8721 291.003 74.292C290.552 73.7061 289.828 73.4131 288.832 73.4131C287.977 73.4131 287.32 73.7471 286.863 74.415C286.412 75.0771 286.187 76.0146 286.187 77.2275C286.187 78.458 286.412 79.3867 286.863 80.0137C287.314 80.6406 287.977 80.9541 288.85 80.9541ZM297.621 72.3672V78.6162C297.621 79.4014 297.8 79.9873 298.157 80.374C298.515 80.7607 299.074 80.9541 299.836 80.9541C300.844 80.9541 301.579 80.6787 302.042 80.1279C302.511 79.5771 302.745 78.6777 302.745 77.4297V72.3672H304.204V82H303L302.789 80.708H302.71C302.411 81.1826 301.995 81.5459 301.462 81.7979C300.935 82.0498 300.331 82.1758 299.651 82.1758C298.479 82.1758 297.601 81.8975 297.015 81.3408C296.435 80.7842 296.145 79.8936 296.145 78.6689V72.3672H297.621ZM311.156 82.1758C309.762 82.1758 308.681 81.748 307.913 80.8926C307.151 80.0312 306.771 78.8154 306.771 77.2451C306.771 75.6338 307.157 74.3887 307.931 73.5098C308.71 72.6309 309.817 72.1914 311.253 72.1914C311.716 72.1914 312.179 72.2412 312.642 72.3408C313.104 72.4404 313.468 72.5576 313.731 72.6924L313.283 73.9316C312.961 73.8027 312.609 73.6973 312.229 73.6152C311.848 73.5273 311.511 73.4834 311.218 73.4834C309.261 73.4834 308.282 74.7314 308.282 77.2275C308.282 78.4111 308.52 79.3193 308.994 79.9521C309.475 80.585 310.184 80.9014 311.121 80.9014C311.924 80.9014 312.747 80.7285 313.591 80.3828V81.6748C312.946 82.0088 312.135 82.1758 311.156 82.1758ZM321.809 82L321.519 80.6289H321.448C320.968 81.2324 320.487 81.6426 320.007 81.8594C319.532 82.0703 318.938 82.1758 318.223 82.1758C317.268 82.1758 316.518 81.9297 315.973 81.4375C315.434 80.9453 315.164 80.2451 315.164 79.3369C315.164 77.3916 316.72 76.3721 319.831 76.2783L321.466 76.2256V75.6279C321.466 74.8721 321.302 74.3154 320.974 73.958C320.651 73.5947 320.133 73.4131 319.418 73.4131C318.615 73.4131 317.707 73.6592 316.693 74.1514L316.245 73.0352C316.72 72.7773 317.238 72.5752 317.801 72.4287C318.369 72.2822 318.938 72.209 319.506 72.209C320.654 72.209 321.504 72.4639 322.055 72.9736C322.611 73.4834 322.89 74.3008 322.89 75.4258V82H321.809ZM318.513 80.9717C319.421 80.9717 320.133 80.7227 320.648 80.2246C321.17 79.7266 321.431 79.0293 321.431 78.1328V77.2627L319.972 77.3242C318.812 77.3652 317.974 77.5469 317.458 77.8691C316.948 78.1855 316.693 78.6807 316.693 79.3545C316.693 79.8818 316.852 80.2832 317.168 80.5586C317.49 80.834 317.938 80.9717 318.513 80.9717ZM329.016 80.9717C329.273 80.9717 329.522 80.9541 329.763 80.9189C330.003 80.8779 330.193 80.8369 330.334 80.7959V81.9121C330.176 81.9883 329.941 82.0498 329.631 82.0967C329.326 82.1494 329.051 82.1758 328.805 82.1758C326.941 82.1758 326.01 81.1943 326.01 79.2314V73.501H324.63V72.7979L326.01 72.1914L326.625 70.1348H327.469V72.3672H330.264V73.501H327.469V79.1699C327.469 79.75 327.606 80.1953 327.882 80.5059C328.157 80.8164 328.535 80.9717 329.016 80.9717ZM333.727 82H332.268V72.3672H333.727V82ZM332.145 69.7568C332.145 69.4229 332.227 69.1797 332.391 69.0273C332.555 68.8691 332.76 68.79 333.006 68.79C333.24 68.79 333.442 68.8691 333.612 69.0273C333.782 69.1855 333.867 69.4287 333.867 69.7568C333.867 70.085 333.782 70.3311 333.612 70.4951C333.442 70.6533 333.24 70.7324 333.006 70.7324C332.76 70.7324 332.555 70.6533 332.391 70.4951C332.227 70.3311 332.145 70.085 332.145 69.7568ZM345.135 77.1748C345.135 78.7451 344.739 79.9727 343.948 80.8574C343.157 81.7363 342.064 82.1758 340.67 82.1758C339.809 82.1758 339.044 81.9736 338.376 81.5693C337.708 81.165 337.192 80.585 336.829 79.8291C336.466 79.0732 336.284 78.1885 336.284 77.1748C336.284 75.6045 336.677 74.3828 337.462 73.5098C338.247 72.6309 339.337 72.1914 340.731 72.1914C342.079 72.1914 343.148 72.6396 343.939 73.5361C344.736 74.4326 345.135 75.6455 345.135 77.1748ZM337.796 77.1748C337.796 78.4053 338.042 79.3428 338.534 79.9873C339.026 80.6318 339.75 80.9541 340.705 80.9541C341.66 80.9541 342.384 80.6348 342.876 79.9961C343.374 79.3516 343.623 78.4111 343.623 77.1748C343.623 75.9502 343.374 75.0215 342.876 74.3887C342.384 73.75 341.654 73.4307 340.688 73.4307C339.732 73.4307 339.012 73.7441 338.525 74.3711C338.039 74.998 337.796 75.9326 337.796 77.1748ZM354.293 82V75.7686C354.293 74.9834 354.114 74.3975 353.757 74.0107C353.399 73.624 352.84 73.4307 352.078 73.4307C351.07 73.4307 350.332 73.7031 349.863 74.248C349.395 74.793 349.16 75.6924 349.16 76.9463V82H347.701V72.3672H348.888L349.125 73.6855H349.195C349.494 73.2109 349.913 72.8447 350.452 72.5869C350.991 72.3232 351.592 72.1914 352.254 72.1914C353.414 72.1914 354.287 72.4727 354.873 73.0352C355.459 73.5918 355.752 74.4854 355.752 75.7158V82H354.293ZM362.607 77.8428V76.5068H370.166V77.8428H362.607ZM383.016 82L378.656 70.6094H378.586C378.668 71.5117 378.709 72.584 378.709 73.8262V82H377.329V69.1504H379.579L383.648 79.75H383.719L387.823 69.1504H390.056V82H388.562V73.7207C388.562 72.7715 388.603 71.7402 388.685 70.627H388.614L384.22 82H383.016ZM399.293 82L399.003 80.6289H398.933C398.452 81.2324 397.972 81.6426 397.491 81.8594C397.017 82.0703 396.422 82.1758 395.707 82.1758C394.752 82.1758 394.002 81.9297 393.457 81.4375C392.918 80.9453 392.648 80.2451 392.648 79.3369C392.648 77.3916 394.204 76.3721 397.315 76.2783L398.95 76.2256V75.6279C398.95 74.8721 398.786 74.3154 398.458 73.958C398.136 73.5947 397.617 73.4131 396.902 73.4131C396.1 73.4131 395.191 73.6592 394.178 74.1514L393.729 73.0352C394.204 72.7773 394.723 72.5752 395.285 72.4287C395.854 72.2822 396.422 72.209 396.99 72.209C398.139 72.209 398.988 72.4639 399.539 72.9736C400.096 73.4834 400.374 74.3008 400.374 75.4258V82H399.293ZM395.997 80.9717C396.905 80.9717 397.617 80.7227 398.133 80.2246C398.654 79.7266 398.915 79.0293 398.915 78.1328V77.2627L397.456 77.3242C396.296 77.3652 395.458 77.5469 394.942 77.8691C394.433 78.1855 394.178 78.6807 394.178 79.3545C394.178 79.8818 394.336 80.2832 394.652 80.5586C394.975 80.834 395.423 80.9717 395.997 80.9717ZM405.498 82L401.842 72.3672H403.406L405.48 78.0801C405.949 79.416 406.225 80.2832 406.307 80.6816H406.377C406.441 80.3711 406.644 79.7295 406.983 78.7568C407.329 77.7783 408.1 75.6484 409.295 72.3672H410.859L407.203 82H405.498ZM416.476 82.1758C415.052 82.1758 413.927 81.7422 413.101 80.875C412.28 80.0078 411.87 78.8037 411.87 77.2627C411.87 75.71 412.251 74.4766 413.013 73.5625C413.78 72.6484 414.809 72.1914 416.098 72.1914C417.305 72.1914 418.26 72.5898 418.963 73.3867C419.666 74.1777 420.018 75.2236 420.018 76.5244V77.4473H413.382C413.411 78.5781 413.695 79.4365 414.234 80.0225C414.779 80.6084 415.544 80.9014 416.528 80.9014C417.565 80.9014 418.591 80.6846 419.604 80.251V81.5518C419.089 81.7744 418.6 81.9326 418.137 82.0264C417.68 82.126 417.126 82.1758 416.476 82.1758ZM416.08 73.4131C415.307 73.4131 414.688 73.665 414.226 74.1689C413.769 74.6729 413.499 75.3701 413.417 76.2607H418.453C418.453 75.3408 418.248 74.6377 417.838 74.1514C417.428 73.6592 416.842 73.4131 416.08 73.4131ZM426.908 72.1914C427.336 72.1914 427.72 72.2266 428.06 72.2969L427.857 73.6504C427.459 73.5625 427.107 73.5186 426.803 73.5186C426.023 73.5186 425.355 73.835 424.799 74.4678C424.248 75.1006 423.973 75.8887 423.973 76.832V82H422.514V72.3672H423.718L423.885 74.1514H423.955C424.312 73.5244 424.743 73.041 425.247 72.7012C425.751 72.3613 426.305 72.1914 426.908 72.1914ZM431.32 82H429.861V72.3672H431.32V82ZM429.738 69.7568C429.738 69.4229 429.82 69.1797 429.984 69.0273C430.148 68.8691 430.354 68.79 430.6 68.79C430.834 68.79 431.036 68.8691 431.206 69.0273C431.376 69.1855 431.461 69.4287 431.461 69.7568C431.461 70.085 431.376 70.3311 431.206 70.4951C431.036 70.6533 430.834 70.7324 430.6 70.7324C430.354 70.7324 430.148 70.6533 429.984 70.4951C429.82 70.3311 429.738 70.085 429.738 69.7568ZM438.264 82.1758C436.869 82.1758 435.788 81.748 435.021 80.8926C434.259 80.0312 433.878 78.8154 433.878 77.2451C433.878 75.6338 434.265 74.3887 435.038 73.5098C435.817 72.6309 436.925 72.1914 438.36 72.1914C438.823 72.1914 439.286 72.2412 439.749 72.3408C440.212 72.4404 440.575 72.5576 440.839 72.6924L440.391 73.9316C440.068 73.8027 439.717 73.6973 439.336 73.6152C438.955 73.5273 438.618 73.4834 438.325 73.4834C436.368 73.4834 435.39 74.7314 435.39 77.2275C435.39 78.4111 435.627 79.3193 436.102 79.9521C436.582 80.585 437.291 80.9014 438.229 80.9014C439.031 80.9014 439.854 80.7285 440.698 80.3828V81.6748C440.054 82.0088 439.242 82.1758 438.264 82.1758ZM444.434 77.0693C444.686 76.7119 445.069 76.2432 445.585 75.6631L448.696 72.3672H450.428L446.525 76.4717L450.7 82H448.934L445.532 77.4473L444.434 78.3965V82H442.992V68.3242H444.434V75.5752C444.434 75.8975 444.41 76.3955 444.363 77.0693H444.434ZM463.031 82L458.672 70.6094H458.602C458.684 71.5117 458.725 72.584 458.725 73.8262V82H457.345V69.1504H459.595L463.664 79.75H463.734L467.839 69.1504H470.071V82H468.577V73.7207C468.577 72.7715 468.618 71.7402 468.7 70.627H468.63L464.235 82H463.031ZM477.234 82.1758C475.84 82.1758 474.759 81.748 473.991 80.8926C473.229 80.0312 472.849 78.8154 472.849 77.2451C472.849 75.6338 473.235 74.3887 474.009 73.5098C474.788 72.6309 475.896 72.1914 477.331 72.1914C477.794 72.1914 478.257 72.2412 478.72 72.3408C479.183 72.4404 479.546 72.5576 479.81 72.6924L479.361 73.9316C479.039 73.8027 478.688 73.6973 478.307 73.6152C477.926 73.5273 477.589 73.4834 477.296 73.4834C475.339 73.4834 474.36 74.7314 474.36 77.2275C474.36 78.4111 474.598 79.3193 475.072 79.9521C475.553 80.585 476.262 80.9014 477.199 80.9014C478.002 80.9014 478.825 80.7285 479.669 80.3828V81.6748C479.024 82.0088 478.213 82.1758 477.234 82.1758ZM492.22 82H490.515L483.492 71.2158H483.422C483.516 72.4814 483.562 73.6416 483.562 74.6963V82H482.183V69.1504H483.87L490.875 79.8906H490.945C490.934 79.7324 490.907 79.2256 490.866 78.3701C490.825 77.5088 490.811 76.8936 490.822 76.5244V69.1504H492.22V82ZM499.603 82.1758C498.179 82.1758 497.054 81.7422 496.228 80.875C495.407 80.0078 494.997 78.8037 494.997 77.2627C494.997 75.71 495.378 74.4766 496.14 73.5625C496.907 72.6484 497.936 72.1914 499.225 72.1914C500.432 72.1914 501.387 72.5898 502.09 73.3867C502.793 74.1777 503.145 75.2236 503.145 76.5244V77.4473H496.509C496.538 78.5781 496.822 79.4365 497.361 80.0225C497.906 80.6084 498.671 80.9014 499.655 80.9014C500.692 80.9014 501.718 80.6846 502.731 80.251V81.5518C502.216 81.7744 501.727 81.9326 501.264 82.0264C500.807 82.126 500.253 82.1758 499.603 82.1758ZM499.207 73.4131C498.434 73.4131 497.815 73.665 497.353 74.1689C496.896 74.6729 496.626 75.3701 496.544 76.2607H501.58C501.58 75.3408 501.375 74.6377 500.965 74.1514C500.555 73.6592 499.969 73.4131 499.207 73.4131ZM511.564 82L511.274 80.6289H511.204C510.724 81.2324 510.243 81.6426 509.763 81.8594C509.288 82.0703 508.693 82.1758 507.979 82.1758C507.023 82.1758 506.273 81.9297 505.729 81.4375C505.189 80.9453 504.92 80.2451 504.92 79.3369C504.92 77.3916 506.476 76.3721 509.587 76.2783L511.222 76.2256V75.6279C511.222 74.8721 511.058 74.3154 510.729 73.958C510.407 73.5947 509.889 73.4131 509.174 73.4131C508.371 73.4131 507.463 73.6592 506.449 74.1514L506.001 73.0352C506.476 72.7773 506.994 72.5752 507.557 72.4287C508.125 72.2822 508.693 72.209 509.262 72.209C510.41 72.209 511.26 72.4639 511.811 72.9736C512.367 73.4834 512.646 74.3008 512.646 75.4258V82H511.564ZM508.269 80.9717C509.177 80.9717 509.889 80.7227 510.404 80.2246C510.926 79.7266 511.187 79.0293 511.187 78.1328V77.2627L509.728 77.3242C508.567 77.3652 507.729 77.5469 507.214 77.8691C506.704 78.1855 506.449 78.6807 506.449 79.3545C506.449 79.8818 506.607 80.2832 506.924 80.5586C507.246 80.834 507.694 80.9717 508.269 80.9717ZM517.119 82H515.66V68.3242H517.119V82ZM518.684 72.3672H520.248L522.357 77.8604C522.82 79.1143 523.107 80.0195 523.219 80.5762H523.289C523.365 80.2773 523.523 79.7676 523.764 79.0469C524.01 78.3203 524.807 76.0938 526.154 72.3672H527.719L523.579 83.3359C523.169 84.4199 522.688 85.1875 522.138 85.6387C521.593 86.0957 520.922 86.3242 520.125 86.3242C519.68 86.3242 519.24 86.2744 518.807 86.1748V85.0059C519.129 85.0762 519.489 85.1113 519.888 85.1113C520.89 85.1113 521.604 84.5488 522.032 83.4238L522.568 82.0527L518.684 72.3672ZM530.452 69.1504L530.584 69.3438C530.432 69.9297 530.212 70.6123 529.925 71.3916C529.638 72.165 529.339 72.8857 529.028 73.5537H527.956C528.366 71.8838 528.665 70.416 528.853 69.1504H530.452ZM538.556 79.3721C538.556 80.2686 538.222 80.96 537.554 81.4463C536.886 81.9326 535.948 82.1758 534.741 82.1758C533.464 82.1758 532.468 81.9736 531.753 81.5693V80.2158C532.216 80.4502 532.711 80.6348 533.238 80.7695C533.771 80.9043 534.284 80.9717 534.776 80.9717C535.538 80.9717 536.124 80.8516 536.534 80.6113C536.944 80.3652 537.149 79.9932 537.149 79.4951C537.149 79.1201 536.985 78.8008 536.657 78.5371C536.335 78.2676 535.702 77.9512 534.759 77.5879C533.862 77.2539 533.224 76.9639 532.843 76.7178C532.468 76.4658 532.187 76.1816 531.999 75.8652C531.817 75.5488 531.727 75.1709 531.727 74.7314C531.727 73.9463 532.046 73.3281 532.685 72.877C533.323 72.4199 534.199 72.1914 535.312 72.1914C536.35 72.1914 537.363 72.4023 538.354 72.8242L537.835 74.0107C536.868 73.6123 535.992 73.4131 535.207 73.4131C534.516 73.4131 533.994 73.5215 533.643 73.7383C533.291 73.9551 533.115 74.2539 533.115 74.6348C533.115 74.8926 533.18 75.1123 533.309 75.2939C533.443 75.4756 533.657 75.6484 533.95 75.8125C534.243 75.9766 534.806 76.2139 535.638 76.5244C536.78 76.9404 537.551 77.3594 537.949 77.7812C538.354 78.2031 538.556 78.7334 538.556 79.3721ZM553.497 72.3672V73.29L551.713 73.501C551.877 73.7061 552.023 73.9756 552.152 74.3096C552.281 74.6377 552.346 75.0098 552.346 75.4258C552.346 76.3691 552.023 77.1221 551.379 77.6846C550.734 78.2471 549.85 78.5283 548.725 78.5283C548.438 78.5283 548.168 78.5049 547.916 78.458C547.295 78.7861 546.984 79.1992 546.984 79.6973C546.984 79.9609 547.093 80.1572 547.31 80.2861C547.526 80.4092 547.898 80.4707 548.426 80.4707H550.131C551.174 80.4707 551.974 80.6904 552.53 81.1299C553.093 81.5693 553.374 82.208 553.374 83.0459C553.374 84.1123 552.946 84.9238 552.091 85.4805C551.235 86.043 549.987 86.3242 548.347 86.3242C547.087 86.3242 546.114 86.0898 545.429 85.6211C544.749 85.1523 544.409 84.4902 544.409 83.6348C544.409 83.0488 544.597 82.542 544.972 82.1143C545.347 81.6865 545.874 81.3965 546.554 81.2441C546.308 81.1328 546.1 80.96 545.93 80.7256C545.766 80.4912 545.684 80.2188 545.684 79.9082C545.684 79.5566 545.777 79.249 545.965 78.9854C546.152 78.7217 546.448 78.4668 546.853 78.2207C546.354 78.0156 545.947 77.667 545.631 77.1748C545.32 76.6826 545.165 76.1201 545.165 75.4873C545.165 74.4326 545.481 73.6211 546.114 73.0527C546.747 72.4785 547.644 72.1914 548.804 72.1914C549.308 72.1914 549.762 72.25 550.166 72.3672H553.497ZM545.815 83.6172C545.815 84.1387 546.035 84.5342 546.475 84.8037C546.914 85.0732 547.544 85.208 548.364 85.208C549.589 85.208 550.494 85.0234 551.08 84.6543C551.672 84.291 551.968 83.7959 551.968 83.1689C551.968 82.6475 551.807 82.2842 551.484 82.0791C551.162 81.8799 550.556 81.7803 549.665 81.7803H547.916C547.254 81.7803 546.738 81.9385 546.369 82.2549C546 82.5713 545.815 83.0254 545.815 83.6172ZM546.606 75.4521C546.606 76.126 546.797 76.6357 547.178 76.9814C547.559 77.3271 548.089 77.5 548.769 77.5C550.192 77.5 550.904 76.8086 550.904 75.4258C550.904 73.9785 550.184 73.2549 548.742 73.2549C548.057 73.2549 547.529 73.4395 547.16 73.8086C546.791 74.1777 546.606 74.7256 546.606 75.4521ZM563.789 77.1748C563.789 78.7451 563.394 79.9727 562.603 80.8574C561.812 81.7363 560.719 82.1758 559.324 82.1758C558.463 82.1758 557.698 81.9736 557.03 81.5693C556.362 81.165 555.847 80.585 555.483 79.8291C555.12 79.0732 554.938 78.1885 554.938 77.1748C554.938 75.6045 555.331 74.3828 556.116 73.5098C556.901 72.6309 557.991 72.1914 559.386 72.1914C560.733 72.1914 561.803 72.6396 562.594 73.5361C563.391 74.4326 563.789 75.6455 563.789 77.1748ZM556.45 77.1748C556.45 78.4053 556.696 79.3428 557.188 79.9873C557.681 80.6318 558.404 80.9541 559.359 80.9541C560.314 80.9541 561.038 80.6348 561.53 79.9961C562.028 79.3516 562.277 78.4111 562.277 77.1748C562.277 75.9502 562.028 75.0215 561.53 74.3887C561.038 73.75 560.309 73.4307 559.342 73.4307C558.387 73.4307 557.666 73.7441 557.18 74.3711C556.693 74.998 556.45 75.9326 556.45 77.1748ZM567.814 82H566.355V68.3242H567.814V82ZM575.25 73.501H572.798V82H571.339V73.501H569.616V72.8418L571.339 72.3145V71.7783C571.339 69.4111 572.373 68.2275 574.441 68.2275C574.951 68.2275 575.549 68.3301 576.234 68.5352L575.856 69.7041C575.294 69.5225 574.813 69.4316 574.415 69.4316C573.864 69.4316 573.457 69.6162 573.193 69.9854C572.93 70.3486 572.798 70.9346 572.798 71.7432V72.3672H575.25V73.501ZM20.8887 98.501H18.4365V107H16.9775V98.501H15.2549V97.8418L16.9775 97.3145V96.7783C16.9775 94.4111 18.0117 93.2275 20.0801 93.2275C20.5898 93.2275 21.1875 93.3301 21.873 93.5352L21.4951 94.7041C20.9326 94.5225 20.4521 94.4316 20.0537 94.4316C19.5029 94.4316 19.0957 94.6162 18.832 94.9854C18.5684 95.3486 18.4365 95.9346 18.4365 96.7432V97.3672H20.8887V98.501ZM24.0176 97.3672V103.616C24.0176 104.401 24.1963 104.987 24.5537 105.374C24.9111 105.761 25.4707 105.954 26.2324 105.954C27.2402 105.954 27.9756 105.679 28.4385 105.128C28.9072 104.577 29.1416 103.678 29.1416 102.43V97.3672H30.6006V107H29.3965L29.1855 105.708H29.1064C28.8076 106.183 28.3916 106.546 27.8584 106.798C27.3311 107.05 26.7275 107.176 26.0479 107.176C24.876 107.176 23.9971 106.897 23.4111 106.341C22.8311 105.784 22.541 104.894 22.541 103.669V97.3672H24.0176ZM40.2949 107V100.769C40.2949 99.9834 40.1162 99.3975 39.7588 99.0107C39.4014 98.624 38.8418 98.4307 38.0801 98.4307C37.0723 98.4307 36.334 98.7031 35.8652 99.248C35.3965 99.793 35.1621 100.692 35.1621 101.946V107H33.7031V97.3672H34.8896L35.127 98.6855H35.1973C35.4961 98.2109 35.915 97.8447 36.4541 97.5869C36.9932 97.3232 37.5938 97.1914 38.2559 97.1914C39.416 97.1914 40.2891 97.4727 40.875 98.0352C41.4609 98.5918 41.7539 99.4854 41.7539 100.716V107H40.2949ZM51.3164 105.708H51.2373C50.5635 106.687 49.5557 107.176 48.2139 107.176C46.9541 107.176 45.9727 106.745 45.2695 105.884C44.5723 105.022 44.2236 103.798 44.2236 102.21C44.2236 100.622 44.5752 99.3887 45.2783 98.5098C45.9814 97.6309 46.96 97.1914 48.2139 97.1914C49.5205 97.1914 50.5225 97.666 51.2197 98.6152H51.334L51.2725 97.9209L51.2373 97.2441V93.3242H52.6963V107H51.5098L51.3164 105.708ZM48.3984 105.954C49.3945 105.954 50.1152 105.685 50.5605 105.146C51.0117 104.601 51.2373 103.725 51.2373 102.518V102.21C51.2373 100.845 51.0088 99.8721 50.5518 99.292C50.1006 98.7061 49.377 98.4131 48.3809 98.4131C47.5254 98.4131 46.8691 98.7471 46.4121 99.415C45.9609 100.077 45.7354 101.015 45.7354 102.228C45.7354 103.458 45.9609 104.387 46.4121 105.014C46.8633 105.641 47.5254 105.954 48.3984 105.954ZM60.1934 97.1914C60.6211 97.1914 61.0049 97.2266 61.3447 97.2969L61.1426 98.6504C60.7441 98.5625 60.3926 98.5186 60.0879 98.5186C59.3086 98.5186 58.6406 98.835 58.084 99.4678C57.5332 100.101 57.2578 100.889 57.2578 101.832V107H55.7988V97.3672H57.0029L57.1699 99.1514H57.2402C57.5977 98.5244 58.0283 98.041 58.5322 97.7012C59.0361 97.3613 59.5898 97.1914 60.1934 97.1914ZM69.0703 107L68.7803 105.629H68.71C68.2295 106.232 67.749 106.643 67.2686 106.859C66.7939 107.07 66.1992 107.176 65.4844 107.176C64.5293 107.176 63.7793 106.93 63.2344 106.438C62.6953 105.945 62.4258 105.245 62.4258 104.337C62.4258 102.392 63.9814 101.372 67.0928 101.278L68.7275 101.226V100.628C68.7275 99.8721 68.5635 99.3154 68.2354 98.958C67.9131 98.5947 67.3945 98.4131 66.6797 98.4131C65.877 98.4131 64.9688 98.6592 63.9551 99.1514L63.5068 98.0352C63.9814 97.7773 64.5 97.5752 65.0625 97.4287C65.6309 97.2822 66.1992 97.209 66.7676 97.209C67.916 97.209 68.7656 97.4639 69.3164 97.9736C69.873 98.4834 70.1514 99.3008 70.1514 100.426V107H69.0703ZM65.7744 105.972C66.6826 105.972 67.3945 105.723 67.9102 105.225C68.4316 104.727 68.6924 104.029 68.6924 103.133V102.263L67.2334 102.324C66.0732 102.365 65.2354 102.547 64.7197 102.869C64.21 103.186 63.9551 103.681 63.9551 104.354C63.9551 104.882 64.1133 105.283 64.4297 105.559C64.752 105.834 65.2002 105.972 65.7744 105.972ZM74.625 107H73.166V97.3672H74.625V107ZM73.043 94.7568C73.043 94.4229 73.125 94.1797 73.2891 94.0273C73.4531 93.8691 73.6582 93.79 73.9043 93.79C74.1387 93.79 74.3408 93.8691 74.5107 94.0273C74.6807 94.1855 74.7656 94.4287 74.7656 94.7568C74.7656 95.085 74.6807 95.3311 74.5107 95.4951C74.3408 95.6533 74.1387 95.7324 73.9043 95.7324C73.6582 95.7324 73.4531 95.6533 73.2891 95.4951C73.125 95.3311 73.043 95.085 73.043 94.7568ZM83.9326 104.372C83.9326 105.269 83.5986 105.96 82.9307 106.446C82.2627 106.933 81.3252 107.176 80.1182 107.176C78.8408 107.176 77.8447 106.974 77.1299 106.569V105.216C77.5928 105.45 78.0879 105.635 78.6152 105.77C79.1484 105.904 79.6611 105.972 80.1533 105.972C80.915 105.972 81.501 105.852 81.9111 105.611C82.3213 105.365 82.5264 104.993 82.5264 104.495C82.5264 104.12 82.3623 103.801 82.0342 103.537C81.7119 103.268 81.0791 102.951 80.1357 102.588C79.2393 102.254 78.6006 101.964 78.2197 101.718C77.8447 101.466 77.5635 101.182 77.376 100.865C77.1943 100.549 77.1035 100.171 77.1035 99.7314C77.1035 98.9463 77.4229 98.3281 78.0615 97.877C78.7002 97.4199 79.5762 97.1914 80.6895 97.1914C81.7266 97.1914 82.7402 97.4023 83.7305 97.8242L83.2119 99.0107C82.2451 98.6123 81.3691 98.4131 80.584 98.4131C79.8926 98.4131 79.3711 98.5215 79.0195 98.7383C78.668 98.9551 78.4922 99.2539 78.4922 99.6348C78.4922 99.8926 78.5566 100.112 78.6855 100.294C78.8203 100.476 79.0342 100.648 79.3271 100.812C79.6201 100.977 80.1826 101.214 81.0146 101.524C82.1572 101.94 82.9277 102.359 83.3262 102.781C83.7305 103.203 83.9326 103.733 83.9326 104.372ZM90.3838 107.176C88.96 107.176 87.835 106.742 87.0088 105.875C86.1885 105.008 85.7783 103.804 85.7783 102.263C85.7783 100.71 86.1592 99.4766 86.9209 98.5625C87.6885 97.6484 88.7168 97.1914 90.0059 97.1914C91.2129 97.1914 92.168 97.5898 92.8711 98.3867C93.5742 99.1777 93.9258 100.224 93.9258 101.524V102.447H87.29C87.3193 103.578 87.6035 104.437 88.1426 105.022C88.6875 105.608 89.4521 105.901 90.4365 105.901C91.4736 105.901 92.499 105.685 93.5127 105.251V106.552C92.9971 106.774 92.5078 106.933 92.0449 107.026C91.5879 107.126 91.0342 107.176 90.3838 107.176ZM89.9883 98.4131C89.2148 98.4131 88.5967 98.665 88.1338 99.1689C87.6768 99.6729 87.4072 100.37 87.3252 101.261H92.3613C92.3613 100.341 92.1562 99.6377 91.7461 99.1514C91.3359 98.6592 90.75 98.4131 89.9883 98.4131ZM100.816 97.1914C101.244 97.1914 101.628 97.2266 101.968 97.2969L101.766 98.6504C101.367 98.5625 101.016 98.5186 100.711 98.5186C99.9316 98.5186 99.2637 98.835 98.707 99.4678C98.1562 100.101 97.8809 100.889 97.8809 101.832V107H96.4219V97.3672H97.626L97.793 99.1514H97.8633C98.2207 98.5244 98.6514 98.041 99.1553 97.7012C99.6592 97.3613 100.213 97.1914 100.816 97.1914ZM112.787 98.501H110.335V107H108.876V98.501H107.153V97.8418L108.876 97.3145V96.7783C108.876 94.4111 109.91 93.2275 111.979 93.2275C112.488 93.2275 113.086 93.3301 113.771 93.5352L113.394 94.7041C112.831 94.5225 112.351 94.4316 111.952 94.4316C111.401 94.4316 110.994 94.6162 110.73 94.9854C110.467 95.3486 110.335 95.9346 110.335 96.7432V97.3672H112.787V98.501ZM122.859 102.175C122.859 103.745 122.464 104.973 121.673 105.857C120.882 106.736 119.789 107.176 118.395 107.176C117.533 107.176 116.769 106.974 116.101 106.569C115.433 106.165 114.917 105.585 114.554 104.829C114.19 104.073 114.009 103.188 114.009 102.175C114.009 100.604 114.401 99.3828 115.187 98.5098C115.972 97.6309 117.062 97.1914 118.456 97.1914C119.804 97.1914 120.873 97.6396 121.664 98.5361C122.461 99.4326 122.859 100.646 122.859 102.175ZM115.521 102.175C115.521 103.405 115.767 104.343 116.259 104.987C116.751 105.632 117.475 105.954 118.43 105.954C119.385 105.954 120.108 105.635 120.601 104.996C121.099 104.352 121.348 103.411 121.348 102.175C121.348 100.95 121.099 100.021 120.601 99.3887C120.108 98.75 119.379 98.4307 118.412 98.4307C117.457 98.4307 116.736 98.7441 116.25 99.3711C115.764 99.998 115.521 100.933 115.521 102.175ZM129.82 97.1914C130.248 97.1914 130.632 97.2266 130.972 97.2969L130.77 98.6504C130.371 98.5625 130.02 98.5186 129.715 98.5186C128.936 98.5186 128.268 98.835 127.711 99.4678C127.16 100.101 126.885 100.889 126.885 101.832V107H125.426V97.3672H126.63L126.797 99.1514H126.867C127.225 98.5244 127.655 98.041 128.159 97.7012C128.663 97.3613 129.217 97.1914 129.82 97.1914ZM143.171 95.3018C141.759 95.3018 140.643 95.7734 139.822 96.7168C139.008 97.6543 138.601 98.9404 138.601 100.575C138.601 102.257 138.993 103.558 139.778 104.478C140.569 105.392 141.694 105.849 143.153 105.849C144.05 105.849 145.072 105.688 146.221 105.365V106.675C145.33 107.009 144.231 107.176 142.925 107.176C141.032 107.176 139.57 106.602 138.539 105.453C137.514 104.305 137.001 102.673 137.001 100.558C137.001 99.2334 137.247 98.0732 137.739 97.0771C138.237 96.0811 138.952 95.3135 139.884 94.7744C140.821 94.2354 141.923 93.9658 143.188 93.9658C144.536 93.9658 145.714 94.2119 146.722 94.7041L146.089 95.9873C145.116 95.5303 144.144 95.3018 143.171 95.3018ZM150.176 97.3672V103.616C150.176 104.401 150.354 104.987 150.712 105.374C151.069 105.761 151.629 105.954 152.391 105.954C153.398 105.954 154.134 105.679 154.597 105.128C155.065 104.577 155.3 103.678 155.3 102.43V97.3672H156.759V107H155.555L155.344 105.708H155.265C154.966 106.183 154.55 106.546 154.017 106.798C153.489 107.05 152.886 107.176 152.206 107.176C151.034 107.176 150.155 106.897 149.569 106.341C148.989 105.784 148.699 104.894 148.699 103.669V97.3672H150.176ZM164.256 97.1914C164.684 97.1914 165.067 97.2266 165.407 97.2969L165.205 98.6504C164.807 98.5625 164.455 98.5186 164.15 98.5186C163.371 98.5186 162.703 98.835 162.146 99.4678C161.596 100.101 161.32 100.889 161.32 101.832V107H159.861V97.3672H161.065L161.232 99.1514H161.303C161.66 98.5244 162.091 98.041 162.595 97.7012C163.099 97.3613 163.652 97.1914 164.256 97.1914ZM171.604 97.1914C172.031 97.1914 172.415 97.2266 172.755 97.2969L172.553 98.6504C172.154 98.5625 171.803 98.5186 171.498 98.5186C170.719 98.5186 170.051 98.835 169.494 99.4678C168.943 100.101 168.668 100.889 168.668 101.832V107H167.209V97.3672H168.413L168.58 99.1514H168.65C169.008 98.5244 169.438 98.041 169.942 97.7012C170.446 97.3613 171 97.1914 171.604 97.1914ZM176.016 107H174.557V97.3672H176.016V107ZM174.434 94.7568C174.434 94.4229 174.516 94.1797 174.68 94.0273C174.844 93.8691 175.049 93.79 175.295 93.79C175.529 93.79 175.731 93.8691 175.901 94.0273C176.071 94.1855 176.156 94.4287 176.156 94.7568C176.156 95.085 176.071 95.3311 175.901 95.4951C175.731 95.6533 175.529 95.7324 175.295 95.7324C175.049 95.7324 174.844 95.6533 174.68 95.4951C174.516 95.3311 174.434 95.085 174.434 94.7568ZM180.551 102.069C180.803 101.712 181.187 101.243 181.702 100.663L184.813 97.3672H186.545L182.643 101.472L186.817 107H185.051L181.649 102.447L180.551 103.396V107H179.109V93.3242H180.551V100.575C180.551 100.897 180.527 101.396 180.48 102.069H180.551ZM190.025 107H188.566V97.3672H190.025V107ZM188.443 94.7568C188.443 94.4229 188.525 94.1797 188.689 94.0273C188.854 93.8691 189.059 93.79 189.305 93.79C189.539 93.79 189.741 93.8691 189.911 94.0273C190.081 94.1855 190.166 94.4287 190.166 94.7568C190.166 95.085 190.081 95.3311 189.911 95.4951C189.741 95.6533 189.539 95.7324 189.305 95.7324C189.059 95.7324 188.854 95.6533 188.689 95.4951C188.525 95.3311 188.443 95.085 188.443 94.7568ZM192.908 106.068C192.908 105.676 192.996 105.38 193.172 105.181C193.354 104.976 193.611 104.873 193.945 104.873C194.285 104.873 194.549 104.976 194.736 105.181C194.93 105.38 195.026 105.676 195.026 106.068C195.026 106.449 194.93 106.742 194.736 106.947C194.543 107.152 194.279 107.255 193.945 107.255C193.646 107.255 193.397 107.164 193.198 106.982C193.005 106.795 192.908 106.49 192.908 106.068Z" fill="#515151"/>
<path d="M18.264 29C18.0507 29 17.8693 28.9253 17.72 28.776C17.5707 28.6267 17.496 28.4453 17.496 28.232V7.4C17.496 7.16533 17.56 6.97333 17.688 6.824C17.8373 6.67467 18.0293 6.6 18.264 6.6H27.544C30.04 6.6 31.896 7.15467 33.112 8.264C34.3493 9.352 34.968 10.8453 34.968 12.744C34.968 13.8533 34.6907 14.8027 34.136 15.592C33.6027 16.36 32.9733 16.9147 32.248 17.256C33.144 17.6613 33.8907 18.3227 34.488 19.24C35.1067 20.1573 35.416 21.2027 35.416 22.376C35.416 24.36 34.744 25.96 33.4 27.176C32.0773 28.392 30.2107 29 27.8 29H18.264ZM26.968 15.784C28.0773 15.784 28.92 15.5173 29.496 14.984C30.072 14.4507 30.36 13.736 30.36 12.84C30.36 11.9227 30.072 11.2187 29.496 10.728C28.92 10.216 28.0773 9.96 26.968 9.96H21.944V15.784H26.968ZM27.288 25.608C28.3973 25.608 29.2613 25.3093 29.88 24.712C30.4987 24.0933 30.808 23.3147 30.808 22.376C30.808 21.416 30.4987 20.6373 29.88 20.04C29.2613 19.4213 28.3973 19.112 27.288 19.112H21.944V25.608H27.288ZM39.6895 9.608C39.4762 9.608 39.2948 9.53333 39.1455 9.384C38.9962 9.23467 38.9215 9.05333 38.9215 8.84V6.536C38.9215 6.32267 38.9962 6.14133 39.1455 5.992C39.2948 5.84267 39.4762 5.768 39.6895 5.768H42.6015C42.8148 5.768 42.9962 5.84267 43.1455 5.992C43.3162 6.14133 43.4015 6.32267 43.4015 6.536V8.84C43.4015 9.05333 43.3268 9.23467 43.1775 9.384C43.0282 9.53333 42.8362 9.608 42.6015 9.608H39.6895ZM39.8175 29C39.6042 29 39.4228 28.9253 39.2735 28.776C39.1242 28.6267 39.0495 28.4453 39.0495 28.232V13.128C39.0495 12.9147 39.1242 12.7333 39.2735 12.584C39.4228 12.4347 39.6042 12.36 39.8175 12.36H42.4735C42.7082 12.36 42.8895 12.4347 43.0175 12.584C43.1668 12.712 43.2415 12.8933 43.2415 13.128V28.232C43.2415 28.4453 43.1668 28.6267 43.0175 28.776C42.8895 28.9253 42.7082 29 42.4735 29H39.8175ZM48.255 29C48.0417 29 47.8603 28.9253 47.711 28.776C47.5617 28.6267 47.487 28.4453 47.487 28.232V13.16C47.487 12.9467 47.5617 12.7653 47.711 12.616C47.8603 12.4453 48.0417 12.36 48.255 12.36H50.847C51.0817 12.36 51.2737 12.4347 51.423 12.584C51.5723 12.7333 51.647 12.9253 51.647 13.16V14.472C52.159 13.7893 52.799 13.2667 53.567 12.904C54.3563 12.5413 55.2523 12.36 56.255 12.36H57.567C57.8017 12.36 57.983 12.4347 58.111 12.584C58.2603 12.712 58.335 12.8933 58.335 13.128V15.432C58.335 15.6453 58.2603 15.8267 58.111 15.976C57.983 16.1253 57.8017 16.2 57.567 16.2H55.071C54.0683 16.2 53.279 16.488 52.703 17.064C52.127 17.64 51.839 18.4293 51.839 19.432V28.232C51.839 28.4453 51.7643 28.6267 51.615 28.776C51.4657 28.9253 51.2737 29 51.039 29H48.255ZM66.7568 29.32C64.6021 29.32 62.9488 28.6267 61.7968 27.24C60.6448 25.8533 60.0261 24.008 59.9408 21.704L59.9088 20.648L59.9408 19.624C60.0048 17.384 60.6128 15.56 61.7648 14.152C62.9381 12.744 64.6021 12.04 66.7568 12.04C68.8261 12.04 70.4688 12.744 71.6848 14.152V7.048C71.6848 6.81333 71.7594 6.632 71.9088 6.504C72.0581 6.35467 72.2394 6.28 72.4528 6.28H75.1728C75.4074 6.28 75.5888 6.35467 75.7168 6.504C75.8661 6.632 75.9408 6.81333 75.9408 7.048V28.232C75.9408 28.4453 75.8661 28.6267 75.7168 28.776C75.5888 28.9253 75.4074 29 75.1728 29H72.6448C72.4314 29 72.2501 28.9253 72.1008 28.776C71.9514 28.6267 71.8768 28.4453 71.8768 28.232V27.048C70.6608 28.5627 68.9541 29.32 66.7568 29.32ZM67.9408 25.896C69.1781 25.896 70.0954 25.5013 70.6928 24.712C71.2901 23.9227 71.6208 22.952 71.6848 21.8C71.7061 21.544 71.7168 21.128 71.7168 20.552C71.7168 19.9973 71.7061 19.592 71.6848 19.336C71.6421 18.2693 71.3008 17.3627 70.6608 16.616C70.0421 15.848 69.1354 15.464 67.9408 15.464C65.6368 15.464 64.4101 16.8827 64.2608 19.72L64.2288 20.68L64.2608 21.64C64.4101 24.4773 65.6368 25.896 67.9408 25.896ZM80.8458 9.608C80.6324 9.608 80.4511 9.53333 80.3018 9.384C80.1524 9.23467 80.0778 9.05333 80.0778 8.84V6.536C80.0778 6.32267 80.1524 6.14133 80.3018 5.992C80.4511 5.84267 80.6324 5.768 80.8458 5.768H83.7578C83.9711 5.768 84.1524 5.84267 84.3018 5.992C84.4724 6.14133 84.5578 6.32267 84.5578 6.536V8.84C84.5578 9.05333 84.4831 9.23467 84.3338 9.384C84.1844 9.53333 83.9924 9.608 83.7578 9.608H80.8458ZM80.9738 29C80.7604 29 80.5791 28.9253 80.4298 28.776C80.2804 28.6267 80.2057 28.4453 80.2057 28.232V13.128C80.2057 12.9147 80.2804 12.7333 80.4298 12.584C80.5791 12.4347 80.7604 12.36 80.9738 12.36H83.6298C83.8644 12.36 84.0458 12.4347 84.1738 12.584C84.3231 12.712 84.3978 12.8933 84.3978 13.128V28.232C84.3978 28.4453 84.3231 28.6267 84.1738 28.776C84.0458 28.9253 83.8644 29 83.6298 29H80.9738ZM95.8113 29.32C93.4433 29.32 91.5553 28.6373 90.1473 27.272C88.7606 25.8853 88.0246 23.944 87.9393 21.448L87.9073 20.648L87.9393 19.848C88.0459 17.416 88.7926 15.5067 90.1793 14.12C91.5873 12.7333 93.4646 12.04 95.8113 12.04C98.3286 12.04 100.27 12.808 101.635 14.344C103.022 15.88 103.715 17.928 103.715 20.488V21.16C103.715 21.3733 103.641 21.5547 103.491 21.704C103.342 21.8533 103.15 21.928 102.915 21.928H92.2913V22.184C92.3339 23.3573 92.6539 24.3493 93.2513 25.16C93.8699 25.9493 94.7126 26.344 95.7793 26.344C97.0379 26.344 98.0513 25.8533 98.8193 24.872C99.0113 24.6373 99.1606 24.488 99.2673 24.424C99.3953 24.36 99.5766 24.328 99.8113 24.328H102.563C102.755 24.328 102.915 24.392 103.043 24.52C103.193 24.6267 103.267 24.7653 103.267 24.936C103.267 25.448 102.958 26.056 102.339 26.76C101.742 27.4427 100.878 28.04 99.7473 28.552C98.6166 29.064 97.3046 29.32 95.8113 29.32ZM99.3633 19.24V19.144C99.3633 17.8853 99.0433 16.872 98.4033 16.104C97.7846 15.336 96.9206 14.952 95.8113 14.952C94.7019 14.952 93.8379 15.336 93.2193 16.104C92.6006 16.872 92.2913 17.8853 92.2913 19.144V19.24H99.3633ZM113.416 29.32C111.816 29.32 110.472 29.0853 109.384 28.616C108.296 28.1253 107.485 27.56 106.952 26.92C106.44 26.2587 106.184 25.6933 106.184 25.224C106.184 25.0107 106.259 24.84 106.408 24.712C106.557 24.584 106.728 24.52 106.92 24.52H109.448C109.64 24.52 109.8 24.5947 109.928 24.744C110.013 24.808 110.237 25 110.6 25.32C110.963 25.6613 111.389 25.928 111.88 26.12C112.371 26.312 112.915 26.408 113.512 26.408C114.365 26.408 115.069 26.2373 115.624 25.896C116.179 25.5547 116.456 25.0853 116.456 24.488C116.456 24.04 116.328 23.6773 116.072 23.4C115.837 23.1227 115.4 22.8773 114.76 22.664C114.12 22.4293 113.171 22.184 111.912 21.928C110.099 21.544 108.755 20.9573 107.88 20.168C107.027 19.3787 106.6 18.3333 106.6 17.032C106.6 16.1787 106.856 15.3787 107.368 14.632C107.88 13.864 108.637 13.2453 109.64 12.776C110.664 12.2853 111.88 12.04 113.288 12.04C114.717 12.04 115.955 12.2747 117 12.744C118.045 13.192 118.835 13.736 119.368 14.376C119.923 14.9947 120.2 15.5493 120.2 16.04C120.2 16.232 120.125 16.4027 119.976 16.552C119.848 16.68 119.688 16.744 119.496 16.744H117.128C116.957 16.744 116.776 16.6693 116.584 16.52C116.435 16.4133 116.2 16.2107 115.88 15.912C115.56 15.6133 115.187 15.3787 114.76 15.208C114.333 15.0373 113.832 14.952 113.256 14.952C112.467 14.952 111.848 15.1227 111.4 15.464C110.973 15.8053 110.76 16.2533 110.76 16.808C110.76 17.2133 110.867 17.544 111.08 17.8C111.293 18.056 111.709 18.3013 112.328 18.536C112.947 18.7707 113.875 19.0053 115.112 19.24C117.16 19.6453 118.621 20.2747 119.496 21.128C120.392 21.9813 120.84 23.0267 120.84 24.264C120.84 25.7573 120.189 26.9733 118.888 27.912C117.587 28.8507 115.763 29.32 113.416 29.32ZM133.453 29C133.24 29 133.059 28.9253 132.909 28.776C132.76 28.6267 132.685 28.4453 132.685 28.232V15.752H130.093C129.88 15.752 129.699 15.6773 129.549 15.528C129.4 15.3573 129.325 15.1653 129.325 14.952V13.128C129.325 12.9147 129.4 12.7333 129.549 12.584C129.699 12.4347 129.88 12.36 130.093 12.36H132.685V11.048C132.685 7.22933 134.776 5.32 138.957 5.32H141.133C141.368 5.32 141.549 5.39467 141.677 5.544C141.827 5.672 141.901 5.85333 141.901 6.088V7.912C141.901 8.14667 141.827 8.33867 141.677 8.488C141.528 8.63733 141.347 8.712 141.133 8.712H139.085C138.253 8.712 137.667 8.91467 137.325 9.32C137.005 9.72533 136.845 10.3547 136.845 11.208V12.36H140.813C141.048 12.36 141.229 12.4347 141.357 12.584C141.507 12.712 141.581 12.8933 141.581 13.128V14.952C141.581 15.1867 141.507 15.3787 141.357 15.528C141.208 15.6773 141.027 15.752 140.813 15.752H136.845V28.232C136.845 28.4453 136.771 28.6267 136.621 28.776C136.472 28.9253 136.291 29 136.077 29H133.453ZM151.253 29.32C148.757 29.32 146.827 28.68 145.461 27.4C144.096 26.0987 143.36 24.328 143.253 22.088L143.221 20.68L143.253 19.272C143.36 17.0533 144.107 15.2933 145.493 13.992C146.88 12.6907 148.8 12.04 151.253 12.04C153.707 12.04 155.627 12.6907 157.013 13.992C158.4 15.2933 159.147 17.0533 159.253 19.272C159.275 19.528 159.285 19.9973 159.285 20.68C159.285 21.3627 159.275 21.832 159.253 22.088C159.147 24.328 158.411 26.0987 157.045 27.4C155.68 28.68 153.749 29.32 151.253 29.32ZM151.253 26.152C152.384 26.152 153.259 25.8 153.877 25.096C154.496 24.3707 154.837 23.3147 154.901 21.928C154.923 21.7147 154.933 21.2987 154.933 20.68C154.933 20.0613 154.923 19.6453 154.901 19.432C154.837 18.0453 154.496 17 153.877 16.296C153.259 15.5707 152.384 15.208 151.253 15.208C150.123 15.208 149.248 15.5707 148.629 16.296C148.011 17 147.669 18.0453 147.605 19.432L147.573 20.68L147.605 21.928C147.669 23.3147 148.011 24.3707 148.629 25.096C149.248 25.8 150.123 26.152 151.253 26.152ZM163.599 29C163.385 29 163.204 28.9253 163.055 28.776C162.905 28.6267 162.831 28.4453 162.831 28.232V13.16C162.831 12.9467 162.905 12.7653 163.055 12.616C163.204 12.4453 163.385 12.36 163.599 12.36H166.191C166.425 12.36 166.617 12.4347 166.767 12.584C166.916 12.7333 166.991 12.9253 166.991 13.16V14.472C167.503 13.7893 168.143 13.2667 168.911 12.904C169.7 12.5413 170.596 12.36 171.599 12.36H172.911C173.145 12.36 173.327 12.4347 173.455 12.584C173.604 12.712 173.679 12.8933 173.679 13.128V15.432C173.679 15.6453 173.604 15.8267 173.455 15.976C173.327 16.1253 173.145 16.2 172.911 16.2H170.415C169.412 16.2 168.623 16.488 168.047 17.064C167.471 17.64 167.183 18.4293 167.183 19.432V28.232C167.183 28.4453 167.108 28.6267 166.959 28.776C166.809 28.9253 166.617 29 166.383 29H163.599ZM183.952 29C183.738 29 183.557 28.9253 183.408 28.776C183.258 28.6267 183.184 28.4453 183.184 28.232V7.4C183.184 7.16533 183.248 6.97333 183.376 6.824C183.525 6.67467 183.717 6.6 183.952 6.6H198.032C198.266 6.6 198.458 6.67467 198.608 6.824C198.757 6.97333 198.832 7.16533 198.832 7.4V9.512C198.832 9.74667 198.757 9.93867 198.608 10.088C198.458 10.216 198.266 10.28 198.032 10.28H187.504V15.944H197.328C197.562 15.944 197.754 16.0187 197.904 16.168C198.053 16.296 198.128 16.4773 198.128 16.712V18.696C198.128 18.9307 198.053 19.1227 197.904 19.272C197.754 19.4 197.562 19.464 197.328 19.464H187.504V25.32H198.288C198.522 25.32 198.714 25.3947 198.864 25.544C199.013 25.6933 199.088 25.8853 199.088 26.12V28.232C199.088 28.4667 199.013 28.6587 198.864 28.808C198.714 28.936 198.522 29 198.288 29H183.952ZM208.757 29.32C206.602 29.32 204.949 28.6267 203.797 27.24C202.645 25.8533 202.026 24.008 201.941 21.704L201.909 20.648L201.941 19.624C202.005 17.384 202.613 15.56 203.765 14.152C204.938 12.744 206.602 12.04 208.757 12.04C210.826 12.04 212.469 12.744 213.685 14.152V7.048C213.685 6.81333 213.759 6.632 213.909 6.504C214.058 6.35467 214.239 6.28 214.453 6.28H217.173C217.407 6.28 217.589 6.35467 217.717 6.504C217.866 6.632 217.941 6.81333 217.941 7.048V28.232C217.941 28.4453 217.866 28.6267 217.717 28.776C217.589 28.9253 217.407 29 217.173 29H214.645C214.431 29 214.25 28.9253 214.101 28.776C213.951 28.6267 213.877 28.4453 213.877 28.232V27.048C212.661 28.5627 210.954 29.32 208.757 29.32ZM209.941 25.896C211.178 25.896 212.095 25.5013 212.693 24.712C213.29 23.9227 213.621 22.952 213.685 21.8C213.706 21.544 213.717 21.128 213.717 20.552C213.717 19.9973 213.706 19.592 213.685 19.336C213.642 18.2693 213.301 17.3627 212.661 16.616C212.042 15.848 211.135 15.464 209.941 15.464C207.637 15.464 206.41 16.8827 206.261 19.72L206.229 20.68L206.261 21.64C206.41 24.4773 207.637 25.896 209.941 25.896ZM228.382 29.32C226.419 29.32 224.872 28.68 223.742 27.4C222.611 26.0987 222.046 24.3387 222.046 22.12V13.128C222.046 12.9147 222.12 12.7333 222.27 12.584C222.419 12.4347 222.6 12.36 222.814 12.36H225.63C225.864 12.36 226.046 12.4347 226.174 12.584C226.323 12.712 226.398 12.8933 226.398 13.128V21.928C226.398 24.5733 227.56 25.896 229.886 25.896C230.995 25.896 231.87 25.544 232.51 24.84C233.171 24.136 233.502 23.1653 233.502 21.928V13.128C233.502 12.9147 233.576 12.7333 233.726 12.584C233.875 12.4347 234.056 12.36 234.27 12.36H237.086C237.32 12.36 237.502 12.4347 237.63 12.584C237.779 12.712 237.854 12.8933 237.854 13.128V28.232C237.854 28.4453 237.779 28.6267 237.63 28.776C237.502 28.9253 237.32 29 237.086 29H234.494C234.28 29 234.099 28.9253 233.95 28.776C233.8 28.6267 233.726 28.4453 233.726 28.232V26.92C232.531 28.52 230.75 29.32 228.382 29.32ZM249.281 29.32C246.934 29.32 245.057 28.6693 243.649 27.368C242.262 26.0667 241.526 24.264 241.441 21.96L241.409 20.68L241.441 19.4C241.526 17.096 242.262 15.2933 243.649 13.992C245.057 12.6907 246.934 12.04 249.281 12.04C250.945 12.04 252.353 12.3387 253.505 12.936C254.678 13.5333 255.542 14.2693 256.097 15.144C256.673 15.9973 256.982 16.808 257.025 17.576C257.046 17.7893 256.971 17.9707 256.801 18.12C256.651 18.2693 256.47 18.344 256.257 18.344H253.441C253.227 18.344 253.057 18.3013 252.929 18.216C252.822 18.1093 252.715 17.9387 252.609 17.704C252.289 16.872 251.862 16.2747 251.329 15.912C250.817 15.5493 250.155 15.368 249.345 15.368C248.257 15.368 247.403 15.72 246.785 16.424C246.166 17.1067 245.835 18.152 245.793 19.56L245.761 20.744L245.793 21.8C245.878 24.5947 247.062 25.992 249.345 25.992C250.177 25.992 250.849 25.8107 251.361 25.448C251.873 25.0853 252.289 24.488 252.609 23.656C252.715 23.4213 252.822 23.2613 252.929 23.176C253.057 23.0693 253.227 23.016 253.441 23.016H256.257C256.47 23.016 256.651 23.0907 256.801 23.24C256.971 23.3893 257.046 23.5707 257.025 23.784C256.982 24.5307 256.683 25.3307 256.129 26.184C255.574 27.0373 254.721 27.7733 253.569 28.392C252.417 29.0107 250.987 29.32 249.281 29.32ZM265.194 29.32C264.106 29.32 263.103 29.1067 262.186 28.68C261.29 28.232 260.575 27.6347 260.042 26.888C259.53 26.1413 259.274 25.32 259.274 24.424C259.274 22.9733 259.861 21.8 261.034 20.904C262.207 20.008 263.818 19.4 265.866 19.08L270.25 18.44V17.768C270.25 16.8293 270.015 16.1253 269.546 15.656C269.077 15.1867 268.319 14.952 267.274 14.952C266.57 14.952 265.994 15.0907 265.546 15.368C265.119 15.624 264.778 15.88 264.522 16.136C264.266 16.4133 264.095 16.5947 264.01 16.68C263.925 16.936 263.765 17.064 263.53 17.064H261.066C260.874 17.064 260.703 17 260.554 16.872C260.426 16.744 260.362 16.5733 260.362 16.36C260.383 15.8267 260.639 15.2187 261.13 14.536C261.642 13.8533 262.421 13.2667 263.466 12.776C264.511 12.2853 265.791 12.04 267.306 12.04C269.823 12.04 271.658 12.6053 272.81 13.736C273.962 14.8667 274.538 16.3493 274.538 18.184V28.232C274.538 28.4453 274.463 28.6267 274.314 28.776C274.186 28.9253 274.005 29 273.77 29H271.178C270.965 29 270.783 28.9253 270.634 28.776C270.485 28.6267 270.41 28.4453 270.41 28.232V26.984C269.941 27.6667 269.269 28.232 268.394 28.68C267.541 29.1067 266.474 29.32 265.194 29.32ZM266.282 26.28C267.455 26.28 268.415 25.896 269.162 25.128C269.909 24.36 270.282 23.24 270.282 21.768V21.096L267.082 21.608C265.845 21.8 264.906 22.1093 264.266 22.536C263.647 22.9627 263.338 23.4853 263.338 24.104C263.338 24.7867 263.626 25.32 264.202 25.704C264.778 26.088 265.471 26.28 266.282 26.28ZM286.007 29C284.066 29 282.604 28.4987 281.623 27.496C280.663 26.472 280.183 24.9787 280.183 23.016V15.752H277.655C277.442 15.752 277.26 15.6773 277.111 15.528C276.962 15.3573 276.887 15.1653 276.887 14.952V13.128C276.887 12.9147 276.962 12.7333 277.111 12.584C277.26 12.4347 277.442 12.36 277.655 12.36H280.183V7.048C280.183 6.81333 280.258 6.632 280.407 6.504C280.556 6.35467 280.738 6.28 280.951 6.28H283.543C283.778 6.28 283.959 6.35467 284.087 6.504C284.236 6.632 284.311 6.81333 284.311 7.048V12.36H288.311C288.546 12.36 288.727 12.4347 288.855 12.584C289.004 12.712 289.079 12.8933 289.079 13.128V14.952C289.079 15.1867 289.004 15.3787 288.855 15.528C288.706 15.6773 288.524 15.752 288.311 15.752H284.311V22.696C284.311 23.6133 284.471 24.3067 284.791 24.776C285.111 25.2453 285.644 25.48 286.391 25.48H288.599C288.812 25.48 288.994 25.5547 289.143 25.704C289.292 25.8533 289.367 26.0347 289.367 26.248V28.232C289.367 28.4453 289.292 28.6267 289.143 28.776C289.015 28.9253 288.834 29 288.599 29H286.007ZM292.846 9.608C292.632 9.608 292.451 9.53333 292.302 9.384C292.152 9.23467 292.078 9.05333 292.078 8.84V6.536C292.078 6.32267 292.152 6.14133 292.302 5.992C292.451 5.84267 292.632 5.768 292.846 5.768H295.758C295.971 5.768 296.152 5.84267 296.302 5.992C296.472 6.14133 296.558 6.32267 296.558 6.536V8.84C296.558 9.05333 296.483 9.23467 296.334 9.384C296.184 9.53333 295.992 9.608 295.758 9.608H292.846ZM292.974 29C292.76 29 292.579 28.9253 292.43 28.776C292.28 28.6267 292.206 28.4453 292.206 28.232V13.128C292.206 12.9147 292.28 12.7333 292.43 12.584C292.579 12.4347 292.76 12.36 292.974 12.36H295.63C295.864 12.36 296.046 12.4347 296.174 12.584C296.323 12.712 296.398 12.8933 296.398 13.128V28.232C296.398 28.4453 296.323 28.6267 296.174 28.776C296.046 28.9253 295.864 29 295.63 29H292.974ZM308.003 29.32C305.507 29.32 303.577 28.68 302.211 27.4C300.846 26.0987 300.11 24.328 300.003 22.088L299.971 20.68L300.003 19.272C300.11 17.0533 300.857 15.2933 302.243 13.992C303.63 12.6907 305.55 12.04 308.003 12.04C310.457 12.04 312.377 12.6907 313.763 13.992C315.15 15.2933 315.897 17.0533 316.003 19.272C316.025 19.528 316.035 19.9973 316.035 20.68C316.035 21.3627 316.025 21.832 316.003 22.088C315.897 24.328 315.161 26.0987 313.795 27.4C312.43 28.68 310.499 29.32 308.003 29.32ZM308.003 26.152C309.134 26.152 310.009 25.8 310.627 25.096C311.246 24.3707 311.587 23.3147 311.651 21.928C311.673 21.7147 311.683 21.2987 311.683 20.68C311.683 20.0613 311.673 19.6453 311.651 19.432C311.587 18.0453 311.246 17 310.627 16.296C310.009 15.5707 309.134 15.208 308.003 15.208C306.873 15.208 305.998 15.5707 305.379 16.296C304.761 17 304.419 18.0453 304.355 19.432L304.323 20.68L304.355 21.928C304.419 23.3147 304.761 24.3707 305.379 25.096C305.998 25.8 306.873 26.152 308.003 26.152ZM320.349 29C320.135 29 319.954 28.9253 319.805 28.776C319.655 28.6267 319.581 28.4453 319.581 28.232V13.128C319.581 12.9147 319.655 12.7333 319.805 12.584C319.954 12.4347 320.135 12.36 320.349 12.36H322.973C323.186 12.36 323.367 12.4347 323.517 12.584C323.666 12.7333 323.741 12.9147 323.741 13.128V14.44C324.999 12.84 326.781 12.04 329.085 12.04C331.047 12.04 332.605 12.6907 333.757 13.992C334.909 15.272 335.485 17.0213 335.485 19.24V28.232C335.485 28.4453 335.41 28.6267 335.261 28.776C335.133 28.9253 334.951 29 334.717 29H331.901C331.687 29 331.506 28.9253 331.357 28.776C331.207 28.6267 331.133 28.4453 331.133 28.232V19.432C331.133 18.1733 330.823 17.2027 330.205 16.52C329.607 15.816 328.733 15.464 327.581 15.464C326.45 15.464 325.554 15.816 324.893 16.52C324.253 17.224 323.933 18.1947 323.933 19.432V28.232C323.933 28.4453 323.858 28.6267 323.709 28.776C323.581 28.9253 323.399 29 323.165 29H320.349Z" fill="#084892"/>
<defs>
<filter id="filter0_d_2025_359" x="0" y="154" width="281" height="75" filterUnits="userSpaceOnUse" color-interpolation-filters="sRGB">
<feFlood flood-opacity="0" result="BackgroundImageFix"/>
<feColorMatrix in="SourceAlpha" type="matrix" values="0 0 0 0 0 0 0 0 0 0 0 0 0 0 0 0 0 0 127 0" result="hardAlpha"/>
<feMorphology radius="5" operator="erode" in="SourceAlpha" result="effect1_dropShadow_2025_359"/>
<feOffset dy="10"/>
<feGaussianBlur stdDeviation="10"/>
<feColorMatrix type="matrix" values="0 0 0 0 0.0313726 0 0 0 0 0.282353 0 0 0 0 0.572549 0 0 0 0.35 0"/>
<feBlend mode="normal" in2="BackgroundImageFix" result="effect1_dropShadow_2025_359"/>
<feBlend mode="normal" in="SourceGraphic" in2="effect1_dropShadow_2025_359" result="shape"/>
</filter>
</defs>
</svg>
