<svg width="85" height="85" viewBox="0 0 85 85" fill="none" xmlns="http://www.w3.org/2000/svg">
<g clip-path="url(#clip0_2025_431)">
<rect x="2" y="43" width="12" height="29" fill="#E5EEFF"/>
<path d="M70 23.5L49.5 43L30.5 26.5L27.5 20L28 13.5L38 5.5L46.5 10.5L49.5 15L50.5 10.5L61.5 5L71 13L70 23.5Z" fill="#E5EEFF"/>
<path d="M8.30078 47.6631C7.38445 47.6631 6.64062 48.4069 6.64062 49.3232C6.64062 50.2396 7.38445 50.9834 8.30078 50.9834C9.21711 50.9834 9.96094 50.2396 9.96094 49.3232C9.96094 48.4069 9.21711 47.6631 8.30078 47.6631Z" fill="#285AA5"/>
<path d="M76.3038 53.4198L60.6529 58.8004C60.7223 58.4152 60.7612 58.0222 60.7612 57.6234C60.7612 53.962 57.7826 50.9828 54.1205 50.9828H43.3697C43.0844 50.9828 42.8029 50.9095 42.5546 50.7694L33.7836 45.8363C32.0495 44.859 30.0787 44.3421 28.0846 44.3421H16.3156C15.6308 42.4103 13.7852 41.0225 11.6211 41.0225H1.66016C0.743181 41.0225 0 41.7656 0 42.6826V72.5648C0 73.4818 0.743181 74.225 1.66016 74.225H11.6211C13.7359 74.225 15.5491 72.8962 16.2689 71.0298C18.1483 71.2633 20.3227 71.8191 21.6891 72.6388L30.3712 77.8482C33.6604 79.8222 37.4262 80.8656 41.2627 80.8656C44.3029 80.8656 47.2484 80.2275 50.0181 78.9694L81.0041 65.3256C84.436 63.9333 86.1305 59.816 84.1688 56.187C82.7259 53.5165 79.3465 52.3284 76.3038 53.4198ZM13.2813 69.2523C13.2774 70.1641 12.5336 70.9047 11.6211 70.9047H3.32032V44.3428H11.6211C12.5361 44.3428 13.2813 45.0873 13.2813 46.0029V69.2523ZM79.7428 62.255C79.7253 62.2615 79.7077 62.2693 79.6902 62.2764C79.6902 62.2764 48.6582 75.9403 48.6524 75.9429C46.3146 77.0064 43.8282 77.5453 41.2627 77.5453C38.028 77.5453 34.853 76.666 32.08 75.0013L23.3972 69.7919C21.5386 68.6771 18.8772 67.9975 16.6016 67.7251V47.6631H28.0846C29.5087 47.6631 30.9159 48.0314 32.1552 48.7299L40.9262 53.663C41.6693 54.082 42.515 54.3037 43.3697 54.3037H54.1205C55.9513 54.3037 57.4409 55.7927 57.4409 57.6241C57.4409 59.4483 55.9506 60.9444 54.1205 60.9444H37.244C36.327 60.9444 35.5838 61.6876 35.5838 62.6045C35.5838 63.5209 36.327 64.264 37.244 64.264H54.1205C55.2094 64.264 56.2813 63.9936 57.2327 63.4865C57.2327 63.4865 77.4108 56.5501 77.4185 56.5475C78.9062 56.0106 80.5884 56.545 81.2479 57.7654C82.2369 59.5948 81.4191 61.5838 79.7428 62.255Z" fill="#285AA5"/>
<path d="M48.3517 44.4183C48.6642 44.6888 49.0514 44.8236 49.4392 44.8236C49.827 44.8236 50.2148 44.6888 50.5267 44.4183C64.0719 32.6792 72.4505 26.7383 72.4505 17.5062C72.4505 10.2028 67.2801 4.15039 60.0162 4.15039C55.2458 4.15039 51.5929 6.90003 49.2401 11.0264C46.8925 6.90911 43.2434 4.15039 38.4659 4.15039C32.905 4.15039 28.2559 7.7541 26.6217 13.3306C26.3636 14.2106 26.8682 15.1327 27.7482 15.3908C28.6282 15.6489 29.5503 15.1444 29.8078 14.2644C31.0173 10.1373 34.4154 7.47071 38.4659 7.47071C43.2019 7.47071 46.5242 11.6762 47.6402 15.5919C47.8393 16.3111 48.4943 16.8091 49.2401 16.8091C49.9865 16.8091 50.6409 16.3111 50.8399 15.5919C50.8626 15.5108 53.1687 7.47071 60.0162 7.47071C65.212 7.47071 69.1302 11.7845 69.1302 17.5062C69.1302 24.8914 61.9111 30.2155 49.4379 40.9703C41.8381 34.4438 35.8012 29.8498 32.37 25.3557C31.8136 24.6268 30.7721 24.4867 30.0432 25.0431C29.3143 25.5995 29.1749 26.641 29.7306 27.3706C33.5983 32.436 40.1274 37.2894 48.3517 44.4183Z" fill="#285AA5"/>
<path d="M28.0571 18.7764C27.1408 18.7764 26.397 19.5202 26.397 20.4365C26.397 21.3528 27.1408 22.0967 28.0571 22.0967C28.9735 22.0967 29.7173 21.3528 29.7173 20.4365C29.7173 19.5202 28.9735 18.7764 28.0571 18.7764Z" fill="#285AA5"/>
</g>
<defs>
<clipPath id="clip0_2025_431">
<rect width="85" height="85" fill="white"/>
</clipPath>
</defs>
</svg>
