<svg width="65" height="63" viewBox="0 0 65 63" fill="none" xmlns="http://www.w3.org/2000/svg">
<path d="M47.5351 9.24773L47.5711 9.31104H47.6439H60.7462C63.0225 9.31104 64.875 11.1669 64.875 13.4482V52.1456C64.875 54.4268 63.0225 56.2826 60.7462 56.2826H39.7984H39.6734V56.4076V60.1151V60.2401H39.7984H50.7326C51.3648 60.2401 51.8772 60.7525 51.8772 61.3846C51.8772 62.0166 51.3647 62.5291 50.7326 62.5291H14.2674C13.6353 62.5291 13.1228 62.0166 13.1228 61.3846C13.1228 60.7525 13.6352 60.2401 14.2674 60.2401H25.2016H25.3266V60.1151V56.4076V56.2826H25.2016H4.25382C1.9775 56.2826 0.125 54.4269 0.125 52.1456V13.4482C0.125 11.1669 1.9775 9.31104 4.25382 9.31104H17.3561H17.4289L17.4649 9.24773C20.4359 4.01151 26.0626 0.47168 32.5 0.47168C38.9374 0.47168 44.5641 4.01151 47.5351 9.24773ZM35.5396 32.6468L35.5396 32.6468L28.9038 32.1665L28.8736 32.2878C28.8736 32.2878 28.8736 32.2878 28.8737 32.2878C29.1014 32.3444 29.3064 32.4698 29.4605 32.6468L29.4606 32.6468L32.4057 36.0277L32.5 36.1359L32.5942 36.0277L35.5396 32.6468ZM37.2593 60.2402H37.3843V60.1152V56.4078V56.2828H37.2593H27.7405H27.6155V56.4078V60.1152V60.2402H27.7405H37.2593ZM2.53906 45.7728H2.41406V45.8978V52.1456C2.41406 53.164 3.23867 53.9936 4.25382 53.9936H60.7462C61.7613 53.9936 62.5859 53.164 62.5859 52.1456V45.8978V45.7728H62.4609H53.2869C52.6548 45.7728 52.1424 45.2603 52.1424 44.6283C52.1424 43.9963 52.6548 43.4838 53.2869 43.4838H62.4608H62.5858V43.3588V13.4482C62.5858 12.4298 61.7612 11.6002 60.7461 11.6002H48.8245H48.645L48.7073 11.7686C49.3965 13.6317 49.7733 15.6451 49.7733 17.7452C49.7733 25.5651 44.5701 32.3591 37.0693 34.4075L37.0328 34.4174L37.0079 34.4459L33.363 38.6301L33.363 38.6301C33.1456 38.8797 32.8309 39.0229 32.5 39.0229C32.1691 39.0229 31.8544 38.8797 31.637 38.6301L31.637 38.6301L27.9919 34.4459L27.9671 34.4174L27.9306 34.4075C20.4299 32.3591 15.2266 25.5651 15.2266 17.7452C15.2266 15.6451 15.6033 13.6317 16.2926 11.7686L16.3549 11.6002H16.1754H4.25382C3.23867 11.6002 2.41406 12.4298 2.41406 13.4482V43.3588V43.4838H2.53906H41.809C42.4411 43.4838 42.9535 43.9963 42.9535 44.6283C42.9535 45.2603 42.4411 45.7728 41.809 45.7728H2.53906Z" fill="white" stroke="url(#paint0_linear)" stroke-width="0.25"/>
<path d="M30.2949 48.7383H34.7046C35.3368 48.7383 35.8492 49.2508 35.8492 49.8828C35.8492 50.5148 35.3368 51.0273 34.7046 51.0273H30.2949C29.6628 51.0273 29.1504 50.5148 29.1504 49.8828C29.1504 49.2508 29.6628 48.7383 30.2949 48.7383Z" fill="white" stroke="url(#paint1_linear)" stroke-width="0.25"/>
<path d="M36.3849 25.9979C36.3849 28.1398 34.642 29.8827 32.5001 29.8827C30.3579 29.8827 28.6152 28.1398 28.6152 25.9979V21.8624C28.6152 19.7204 30.3579 17.9775 32.5001 17.9775C34.642 17.9775 36.3849 19.7204 36.3849 21.8624V25.9979ZM32.5001 20.2666C31.62 20.2666 30.9043 20.9823 30.9043 21.8624V25.9979C30.9043 26.8779 31.62 27.5936 32.5001 27.5936C33.3801 27.5936 34.0958 26.8779 34.0958 25.9979V21.8624C34.0958 20.9823 33.3801 20.2666 32.5001 20.2666Z" fill="white" stroke="url(#paint2_linear)" stroke-width="0.25"/>
<path d="M36.3849 10.9579C36.3849 13.0999 34.642 14.8427 32.5001 14.8427C30.3579 14.8427 28.6152 13.1 28.6152 10.9581C28.6152 8.81607 30.3579 7.07324 32.5001 7.07324C34.642 7.07324 36.3849 8.81595 36.3849 10.9579ZM34.0958 10.9581C34.0958 10.078 33.3801 9.3623 32.5001 9.3623C31.62 9.3623 30.9043 10.078 30.9043 10.9581C30.9043 11.8381 31.62 12.5538 32.5001 12.5538C33.3801 12.5538 34.0958 11.8381 34.0958 10.9581Z" fill="white" stroke="url(#paint3_linear)" stroke-width="0.25"/>
<path d="M46.4773 44.2916L46.4773 44.2916C46.338 44.7413 46.4995 45.2502 46.874 45.5357L46.874 45.5357C47.2607 45.8304 47.8016 45.8467 48.2074 45.5788L48.2074 45.5788C48.6566 45.2825 48.8318 44.6874 48.6279 44.1898C48.4408 43.7406 47.975 43.4512 47.4894 43.4863L46.4773 44.2916ZM46.4773 44.2916C46.6155 43.8454 47.0234 43.52 47.4894 43.4863L46.4773 44.2916Z" fill="white" stroke="url(#paint4_linear)" stroke-width="0.25"/>
<defs>
<linearGradient id="paint0_linear" x1="32.5" y1="0.34668" x2="32.5" y2="62.6541" gradientUnits="userSpaceOnUse">
<stop stop-color="white"/>
</linearGradient>
<linearGradient id="paint1_linear" x1="32.4998" y1="48.6133" x2="32.4998" y2="51.1523" gradientUnits="userSpaceOnUse">
<stop stop-color="white"/>
</linearGradient>
<linearGradient id="paint2_linear" x1="32.5001" y1="17.8525" x2="32.5001" y2="30.0077" gradientUnits="userSpaceOnUse">
<stop stop-color="white"/>
</linearGradient>
<linearGradient id="paint3_linear" x1="32.5001" y1="6.94824" x2="32.5001" y2="14.9677" gradientUnits="userSpaceOnUse">
<stop stop-color="white"/>
</linearGradient>
<linearGradient id="paint4_linear" x1="47.57" y1="43.3584" x2="47.57" y2="45.8938" gradientUnits="userSpaceOnUse">
<stop stop-color="white"/>
</linearGradient>
</defs>
</svg>
