<svg width="65" height="65" viewBox="0 0 65 65" fill="none" xmlns="http://www.w3.org/2000/svg">
<path d="M6.3737 27.0833C6.3737 27.6126 5.94464 28.0417 5.41537 28.0417C4.88609 28.0417 4.45703 27.6126 4.45703 27.0833C4.45703 26.5541 4.88609 26.125 5.41537 26.125C5.94464 26.125 6.3737 26.5541 6.3737 27.0833Z" fill="white" stroke="url(#paint0_linear)" stroke-width="0.25"/>
<path d="M6.3737 35.7503C6.3737 36.2796 5.94464 36.7086 5.41537 36.7086C4.88609 36.7086 4.45703 36.2796 4.45703 35.7503C4.45703 35.2211 4.88609 34.792 5.41537 34.792C5.94464 34.792 6.3737 35.2211 6.3737 35.7503Z" fill="white" stroke="url(#paint1_linear)" stroke-width="0.25"/>
<path d="M6.3737 44.4163C6.3737 44.9456 5.94464 45.3747 5.41537 45.3747C4.88609 45.3747 4.45703 44.9456 4.45703 44.4163C4.45703 43.8871 4.88609 43.458 5.41537 43.458C5.94464 43.458 6.3737 43.8871 6.3737 44.4163Z" fill="white" stroke="url(#paint2_linear)" stroke-width="0.25"/>
<mask id="path-4-inside-1" fill="white">
<path d="M61.75 4.33333H53.0833C52.485 4.33333 52 3.84831 52 3.25C52 1.45507 50.5449 0 48.75 0H42.25C40.4551 0 39 1.45507 39 3.25V10.8333H35.75C33.9551 10.8333 32.5 12.2884 32.5 14.0833V31.4167H28.1667V19.5C28.1599 19.432 28.1465 19.3649 28.1266 19.2996C28.1465 19.1867 28.1599 19.0728 28.1667 18.9583C28.1667 15.0887 20.9083 13 14.0833 13C7.25833 13 0 15.0887 0 18.9583C0.00674878 19.0728 0.0201324 19.1867 0.0400833 19.2996C0.0201946 19.3649 0.00676911 19.432 0 19.5V45.5C0 49.0566 7.085 50.9167 14.0833 50.9167C21.0817 50.9167 28.1667 49.0566 28.1667 45.5V33.5833H32.5V50.9167C32.5 52.7116 33.9551 54.1667 35.75 54.1667H39V61.75C39 63.5449 40.4551 65 42.25 65H61.75C63.5449 65 65 63.5449 65 61.75V53.0833C65 51.2884 63.5449 49.8333 61.75 49.8333H53.0833C52.485 49.8333 52 49.3483 52 48.75C52 46.9551 50.5449 45.5 48.75 45.5H42.25C40.4551 45.5 39 46.9551 39 48.75V52H35.75C35.1517 52 34.6667 51.515 34.6667 50.9167V33.5833H39V39C39 40.7949 40.4551 42.25 42.25 42.25H61.75C63.5449 42.25 65 40.7949 65 39V30.3333C65 28.5384 63.5449 27.0833 61.75 27.0833H53.0833C52.485 27.0833 52 26.5983 52 26C52 24.2051 50.5449 22.75 48.75 22.75H42.25C40.4551 22.75 39 24.2051 39 26V31.4167H34.6667V14.0833C34.6667 13.485 35.1517 13 35.75 13H39V16.25C39 18.0449 40.4551 19.5 42.25 19.5H61.75C63.5449 19.5 65 18.0449 65 16.25V7.58333C65 5.78841 63.5449 4.33333 61.75 4.33333ZM26 28.1667C26 29.2695 21.7934 31.4167 14.0833 31.4167C6.37325 31.4167 2.16667 29.2695 2.16667 28.1667V22.2311C4.82625 23.9883 9.54308 24.9167 14.0833 24.9167C18.6236 24.9167 23.3404 23.9883 26 22.2311V28.1667ZM2.16667 31.1816C4.79483 32.7633 9.45208 33.5833 14.0833 33.5833C18.7146 33.5833 23.3718 32.7633 26 31.1816V36.8333C26 37.9362 21.7934 40.0833 14.0833 40.0833C6.37325 40.0833 2.16667 37.9362 2.16667 36.8333V31.1816ZM14.0833 15.1667C21.3579 15.1667 26 17.4124 26 18.9583C26 20.5043 21.3579 22.75 14.0833 22.75C6.80875 22.75 2.16667 20.5043 2.16667 18.9583C2.16667 17.4124 6.80875 15.1667 14.0833 15.1667ZM14.0833 48.75C6.37325 48.75 2.16667 46.6028 2.16667 45.5V39.8483C4.79483 41.4299 9.45208 42.25 14.0833 42.25C18.7146 42.25 23.3718 41.4299 26 39.8483V45.5C26 46.6028 21.7934 48.75 14.0833 48.75ZM41.1667 48.75C41.1667 48.1517 41.6517 47.6667 42.25 47.6667H48.75C49.3483 47.6667 49.8333 48.1517 49.8333 48.75C49.8333 50.5449 51.2884 52 53.0833 52H61.75C62.3483 52 62.8333 52.485 62.8333 53.0833V61.75C62.8333 62.3483 62.3483 62.8333 61.75 62.8333H42.25C41.6517 62.8333 41.1667 62.3483 41.1667 61.75V48.75ZM41.1667 26C41.1667 25.4017 41.6517 24.9167 42.25 24.9167H48.75C49.3483 24.9167 49.8333 25.4017 49.8333 26C49.8333 27.7949 51.2884 29.25 53.0833 29.25H61.75C62.3483 29.25 62.8333 29.735 62.8333 30.3333V39C62.8333 39.5983 62.3483 40.0833 61.75 40.0833H42.25C41.6517 40.0833 41.1667 39.5983 41.1667 39V26ZM62.8333 16.25C62.8333 16.8483 62.3483 17.3333 61.75 17.3333H42.25C41.6517 17.3333 41.1667 16.8483 41.1667 16.25V3.25C41.1667 2.65169 41.6517 2.16667 42.25 2.16667H48.75C49.3483 2.16667 49.8333 2.65169 49.8333 3.25C49.8333 5.04493 51.2884 6.5 53.0833 6.5H61.75C62.3483 6.5 62.8333 6.98502 62.8333 7.58333V16.25Z"/>
</mask>
<path d="M61.75 4.33333H53.0833C52.485 4.33333 52 3.84831 52 3.25C52 1.45507 50.5449 0 48.75 0H42.25C40.4551 0 39 1.45507 39 3.25V10.8333H35.75C33.9551 10.8333 32.5 12.2884 32.5 14.0833V31.4167H28.1667V19.5C28.1599 19.432 28.1465 19.3649 28.1266 19.2996C28.1465 19.1867 28.1599 19.0728 28.1667 18.9583C28.1667 15.0887 20.9083 13 14.0833 13C7.25833 13 0 15.0887 0 18.9583C0.00674878 19.0728 0.0201324 19.1867 0.0400833 19.2996C0.0201946 19.3649 0.00676911 19.432 0 19.5V45.5C0 49.0566 7.085 50.9167 14.0833 50.9167C21.0817 50.9167 28.1667 49.0566 28.1667 45.5V33.5833H32.5V50.9167C32.5 52.7116 33.9551 54.1667 35.75 54.1667H39V61.75C39 63.5449 40.4551 65 42.25 65H61.75C63.5449 65 65 63.5449 65 61.75V53.0833C65 51.2884 63.5449 49.8333 61.75 49.8333H53.0833C52.485 49.8333 52 49.3483 52 48.75C52 46.9551 50.5449 45.5 48.75 45.5H42.25C40.4551 45.5 39 46.9551 39 48.75V52H35.75C35.1517 52 34.6667 51.515 34.6667 50.9167V33.5833H39V39C39 40.7949 40.4551 42.25 42.25 42.25H61.75C63.5449 42.25 65 40.7949 65 39V30.3333C65 28.5384 63.5449 27.0833 61.75 27.0833H53.0833C52.485 27.0833 52 26.5983 52 26C52 24.2051 50.5449 22.75 48.75 22.75H42.25C40.4551 22.75 39 24.2051 39 26V31.4167H34.6667V14.0833C34.6667 13.485 35.1517 13 35.75 13H39V16.25C39 18.0449 40.4551 19.5 42.25 19.5H61.75C63.5449 19.5 65 18.0449 65 16.25V7.58333C65 5.78841 63.5449 4.33333 61.75 4.33333ZM26 28.1667C26 29.2695 21.7934 31.4167 14.0833 31.4167C6.37325 31.4167 2.16667 29.2695 2.16667 28.1667V22.2311C4.82625 23.9883 9.54308 24.9167 14.0833 24.9167C18.6236 24.9167 23.3404 23.9883 26 22.2311V28.1667ZM2.16667 31.1816C4.79483 32.7633 9.45208 33.5833 14.0833 33.5833C18.7146 33.5833 23.3718 32.7633 26 31.1816V36.8333C26 37.9362 21.7934 40.0833 14.0833 40.0833C6.37325 40.0833 2.16667 37.9362 2.16667 36.8333V31.1816ZM14.0833 15.1667C21.3579 15.1667 26 17.4124 26 18.9583C26 20.5043 21.3579 22.75 14.0833 22.75C6.80875 22.75 2.16667 20.5043 2.16667 18.9583C2.16667 17.4124 6.80875 15.1667 14.0833 15.1667ZM14.0833 48.75C6.37325 48.75 2.16667 46.6028 2.16667 45.5V39.8483C4.79483 41.4299 9.45208 42.25 14.0833 42.25C18.7146 42.25 23.3718 41.4299 26 39.8483V45.5C26 46.6028 21.7934 48.75 14.0833 48.75ZM41.1667 48.75C41.1667 48.1517 41.6517 47.6667 42.25 47.6667H48.75C49.3483 47.6667 49.8333 48.1517 49.8333 48.75C49.8333 50.5449 51.2884 52 53.0833 52H61.75C62.3483 52 62.8333 52.485 62.8333 53.0833V61.75C62.8333 62.3483 62.3483 62.8333 61.75 62.8333H42.25C41.6517 62.8333 41.1667 62.3483 41.1667 61.75V48.75ZM41.1667 26C41.1667 25.4017 41.6517 24.9167 42.25 24.9167H48.75C49.3483 24.9167 49.8333 25.4017 49.8333 26C49.8333 27.7949 51.2884 29.25 53.0833 29.25H61.75C62.3483 29.25 62.8333 29.735 62.8333 30.3333V39C62.8333 39.5983 62.3483 40.0833 61.75 40.0833H42.25C41.6517 40.0833 41.1667 39.5983 41.1667 39V26ZM62.8333 16.25C62.8333 16.8483 62.3483 17.3333 61.75 17.3333H42.25C41.6517 17.3333 41.1667 16.8483 41.1667 16.25V3.25C41.1667 2.65169 41.6517 2.16667 42.25 2.16667H48.75C49.3483 2.16667 49.8333 2.65169 49.8333 3.25C49.8333 5.04493 51.2884 6.5 53.0833 6.5H61.75C62.3483 6.5 62.8333 6.98502 62.8333 7.58333V16.25Z" fill="white" stroke="url(#paint3_linear)" stroke-width="0.5" mask="url(#path-4-inside-1)"/>
<path d="M45.3756 14.0833C45.3756 14.6126 44.9466 15.0417 44.4173 15.0417C43.888 15.0417 43.459 14.6126 43.459 14.0833C43.459 13.5541 43.888 13.125 44.4173 13.125C44.9466 13.125 45.3756 13.5541 45.3756 14.0833Z" fill="white" stroke="url(#paint4_linear)" stroke-width="0.25"/>
<path d="M45.3756 9.75033C45.3756 10.2796 44.9466 10.7087 44.4173 10.7087C43.888 10.7087 43.459 10.2796 43.459 9.75033C43.459 9.22105 43.888 8.79199 44.4173 8.79199C44.9466 8.79199 45.3756 9.22105 45.3756 9.75033Z" fill="white" stroke="url(#paint5_linear)" stroke-width="0.25"/>
<path d="M45.3756 36.8333C45.3756 37.3626 44.9466 37.7917 44.4173 37.7917C43.888 37.7917 43.459 37.3626 43.459 36.8333C43.459 36.3041 43.888 35.875 44.4173 35.875C44.9466 35.875 45.3756 36.3041 45.3756 36.8333Z" fill="white" stroke="url(#paint6_linear)" stroke-width="0.25"/>
<path d="M45.3756 32.5003C45.3756 33.0296 44.9466 33.4586 44.4173 33.4586C43.888 33.4586 43.459 33.0296 43.459 32.5003C43.459 31.971 43.888 31.542 44.4173 31.542C44.9466 31.542 45.3756 31.971 45.3756 32.5003Z" fill="white" stroke="url(#paint7_linear)" stroke-width="0.25"/>
<path d="M45.3756 59.5833C45.3756 60.1126 44.9466 60.5417 44.4173 60.5417C43.888 60.5417 43.459 60.1126 43.459 59.5833C43.459 59.0541 43.888 58.625 44.4173 58.625C44.9466 58.625 45.3756 59.0541 45.3756 59.5833Z" fill="white" stroke="url(#paint8_linear)" stroke-width="0.25"/>
<path d="M45.3756 55.2503C45.3756 55.7796 44.9466 56.2086 44.4173 56.2086C43.888 56.2086 43.459 55.7796 43.459 55.2503C43.459 54.721 43.888 54.292 44.4173 54.292C44.9466 54.292 45.3756 54.721 45.3756 55.2503Z" fill="white" stroke="url(#paint9_linear)" stroke-width="0.25"/>
<defs>
<linearGradient id="paint0_linear" x1="5.41537" y1="26" x2="5.41537" y2="28.1667" gradientUnits="userSpaceOnUse">
<stop stop-color="white"/>
</linearGradient>
<linearGradient id="paint1_linear" x1="5.41537" y1="34.667" x2="5.41537" y2="36.8336" gradientUnits="userSpaceOnUse">
<stop stop-color="white"/>
</linearGradient>
<linearGradient id="paint2_linear" x1="5.41537" y1="43.333" x2="5.41537" y2="45.4997" gradientUnits="userSpaceOnUse">
<stop stop-color="white"/>
</linearGradient>
<linearGradient id="paint3_linear" x1="32.5" y1="0" x2="32.5" y2="65" gradientUnits="userSpaceOnUse">
<stop stop-color="white"/>
</linearGradient>
<linearGradient id="paint4_linear" x1="44.4173" y1="13" x2="44.4173" y2="15.1667" gradientUnits="userSpaceOnUse">
<stop stop-color="white"/>
</linearGradient>
<linearGradient id="paint5_linear" x1="44.4173" y1="8.66699" x2="44.4173" y2="10.8337" gradientUnits="userSpaceOnUse">
<stop stop-color="white"/>
</linearGradient>
<linearGradient id="paint6_linear" x1="44.4173" y1="35.75" x2="44.4173" y2="37.9167" gradientUnits="userSpaceOnUse">
<stop stop-color="white"/>
</linearGradient>
<linearGradient id="paint7_linear" x1="44.4173" y1="31.417" x2="44.4173" y2="33.5836" gradientUnits="userSpaceOnUse">
<stop stop-color="white"/>
</linearGradient>
<linearGradient id="paint8_linear" x1="44.4173" y1="58.5" x2="44.4173" y2="60.6667" gradientUnits="userSpaceOnUse">
<stop stop-color="white"/>
</linearGradient>
<linearGradient id="paint9_linear" x1="44.4173" y1="54.167" x2="44.4173" y2="56.3336" gradientUnits="userSpaceOnUse">
<stop stop-color="white"/>
</linearGradient>
</defs>
</svg>
