<svg width="65" height="65" viewBox="0 0 65 65" fill="none" xmlns="http://www.w3.org/2000/svg">
<g clip-path="url(#clip0)">
<path d="M32.3992 30.9822C32.8467 30.5346 33.5712 30.5346 34.0188 30.9822C34.465 31.4284 34.4652 32.1529 34.0187 32.6005C33.5712 33.0468 32.8467 33.0468 32.3992 32.6005C31.9528 32.1529 31.953 31.4284 32.3992 30.9822Z" fill="white" stroke="url(#paint0_linear)" stroke-width="0.25"/>
<path d="M42.9947 22.0057L42.9946 22.0057C41.4611 20.4713 41.461 17.9757 42.9944 16.4424L42.9947 22.0057ZM42.9947 22.0057C44.5287 23.5388 47.0242 23.5388 48.5575 22.0054M42.9947 22.0057L48.5575 22.0054M48.5575 22.0054C48.5575 22.0054 48.5575 22.0054 48.5575 22.0054C50.0949 20.4682 50.0946 17.9794 48.5575 16.4424C47.0202 14.9051 44.5315 14.9053 42.9944 16.4424L48.4691 21.917L48.5575 22.0054ZM41.3757 14.8238C43.8076 12.392 47.7443 12.3921 50.1761 14.8238C52.6082 17.2558 52.6077 21.1926 50.1761 23.6242C47.7501 26.0501 43.8024 26.0492 41.3761 23.6244C38.9501 21.197 38.9503 17.2492 41.3757 14.8238L41.3757 14.8238Z" fill="white" stroke="url(#paint1_linear)" stroke-width="0.25"/>
<path d="M63.6888 0.125821L63.689 0.125812C64.0077 0.113804 64.3143 0.23541 64.5392 0.460268C64.7639 0.685079 64.8851 0.993059 64.8736 1.31062C64.8636 1.59116 64.5899 8.41173 61.7241 16.5197L61.7241 16.5198C59.4307 23.0147 56.1489 28.4242 51.9721 32.601C51.035 33.5381 50.0414 34.4498 49.0096 35.3219L48.9291 35.3899L48.9826 35.4807C51.3968 39.5822 50.6378 42.8566 49.5312 44.924C48.2539 47.3108 45.8749 49.2521 43.1811 50.5975C40.4881 51.9426 37.4947 52.6849 35.0044 52.6849C34.5414 52.6849 34.1242 52.4061 33.9471 51.9784L33.9471 51.9783C33.7699 51.5508 33.8679 51.0585 34.1951 50.7312C36.7857 48.1407 36.6225 44.9466 36.4857 43.905L36.4802 43.8629L36.4502 43.8329L36.0056 43.3883L35.9462 43.3289L35.8688 43.3614C33.7916 44.2344 31.7273 44.9369 29.721 45.4521C29.0556 45.6226 28.3139 45.5882 27.5914 45.3041L27.4816 45.2609L27.4322 45.3681C26.8754 46.576 26.0572 47.7431 25.0406 48.7597C23.4333 50.367 20.6558 51.3438 18.2164 51.9209C15.7834 52.4965 13.715 52.6684 13.5494 52.6814L13.5492 52.6815C13.5193 52.6839 13.4892 52.685 13.4591 52.685C13.157 52.685 12.8655 52.5652 12.6499 52.3498C12.4132 52.113 12.2921 51.7843 12.3184 51.4504C12.3315 51.2847 12.5034 49.2164 13.079 46.7834C13.6562 44.344 14.633 41.5666 16.2403 39.9592C17.2572 38.9423 18.4244 38.1239 19.6326 37.5672L19.7398 37.5178L19.6966 37.4079C19.4281 36.7252 19.368 35.981 19.5476 35.2795C20.0629 33.2724 20.7657 31.2078 21.6385 29.1309L21.6711 29.0535L21.6117 28.9941L21.1671 28.5495L21.1371 28.5195L21.095 28.514C20.0535 28.377 16.8593 28.2139 14.2687 30.8046C14.0497 31.0234 13.7571 31.1398 13.4591 31.1398C13.3117 31.1398 13.163 31.1113 13.0214 31.0526L13.0213 31.0526C12.5938 30.8756 12.3148 30.4581 12.3145 29.9952C12.3145 27.5049 13.0568 24.5115 14.4018 21.8185C15.7472 19.1247 17.6885 16.7457 20.0753 15.4683C22.143 14.3618 25.4174 13.6028 29.5187 16.017L29.6096 16.0704L29.6776 15.9899C30.55 14.9577 31.4617 13.9642 32.3985 13.0274C36.5751 8.85065 41.9846 5.56874 48.4801 3.27533L48.4801 3.27531C56.5877 0.409675 63.4082 0.135875 63.6888 0.125821ZM14.9055 27.2394L14.8516 27.4999L15.0865 27.375C18.4544 25.5851 21.7767 26.2999 21.9419 26.3373L21.942 26.3373C22.1326 26.3803 22.2798 26.4664 22.3821 26.5439C22.4332 26.5826 22.4728 26.6189 22.5008 26.6463C22.5148 26.66 22.5259 26.6715 22.5349 26.6808L22.5478 26.6939C22.5479 26.694 22.5603 26.7069 22.5758 26.7165L22.6936 26.7892L22.754 26.6646C24.2404 23.5953 26.0237 20.6888 28.0749 17.9911L28.1628 17.8755L28.0354 17.8058C25.5921 16.4684 23.2768 16.3516 21.1559 17.4865L21.2149 17.5967L21.1559 17.4865C19.5761 18.332 18.212 19.8142 17.1451 21.558C16.0776 23.3027 15.3026 25.3175 14.9055 27.2394ZM22.7231 26.5157L22.723 26.5156C22.7253 26.5176 22.7256 26.5181 22.7231 26.5157ZM14.7813 50.0768L14.7572 50.2425L14.9229 50.2184C16.2212 50.0299 17.8991 49.7045 19.473 49.2065C21.0425 48.7098 22.527 48.036 23.422 47.1409C24.411 46.1521 25.1627 45.0036 25.5871 43.8453L25.6146 43.7704L25.5581 43.7139L21.2859 39.4417L21.2295 39.3853L21.1545 39.4127C19.9962 39.8371 18.8477 40.589 17.8589 41.5778C16.9639 42.4728 16.2901 43.9572 15.7934 45.5267C15.2953 47.1006 14.9699 48.7784 14.7813 50.0768ZM29.1524 43.2347L29.1525 43.2347C30.7409 42.8269 32.3703 42.2936 34.0153 41.645L34.1926 41.5751L34.0579 41.4403L23.5595 30.942L23.4247 30.8072L23.3548 30.9845C22.7064 32.6293 22.1729 34.2589 21.7649 35.848L21.7649 35.8481C21.658 36.266 21.8173 36.735 22.1584 37.0768L22.1585 37.0769L25.4372 40.3557L25.4372 40.3557L27.9237 42.8421L27.9238 42.8421C28.2648 43.1826 28.7339 43.3418 29.1524 43.2347ZM37.625 49.9132L37.5002 50.1481L37.7607 50.0943C39.6826 49.6972 41.6972 48.9222 43.4419 47.8547C45.1856 46.7878 46.6678 45.4236 47.5133 43.8439C48.6481 41.7234 48.5314 39.4078 47.194 36.9643L47.1243 36.8369L47.0087 36.9248C44.3107 38.976 41.4044 40.7593 38.3354 42.2457L38.2107 42.3061L38.2835 42.4239C38.2919 42.4374 38.302 42.448 38.3048 42.4508L38.3051 42.4512C38.3096 42.4559 38.3147 42.4609 38.3191 42.4652C38.3227 42.4688 38.3264 42.4724 38.3304 42.4763C38.3372 42.4829 38.3446 42.4902 38.3531 42.4988C38.3795 42.5255 38.4139 42.5625 38.4508 42.6103C38.5247 42.706 38.6082 42.845 38.6547 43.0299L38.7759 42.9995L38.6547 43.03C39.0913 44.7657 38.8282 47.649 37.625 49.9132ZM38.485 42.2776C38.4851 42.2777 38.4855 42.2781 38.4861 42.2787L38.486 42.2786C38.4851 42.2778 38.4849 42.2774 38.485 42.2776ZM46.6825 34.2759L46.6041 34.1785L46.6825 34.2759C47.9715 33.2376 49.2066 32.1295 50.3538 30.9824C54.1299 27.2064 57.1321 22.3363 59.2917 16.5064L59.3195 16.4313L59.2628 16.3746L48.6252 5.73698L48.5686 5.68032L48.4934 5.70816C42.6634 7.868 37.7933 10.8702 34.0176 14.646C32.8709 15.7926 31.7629 17.0279 30.7237 18.3177L30.7237 18.3177C28.2292 21.4157 26.1161 24.8257 24.4341 28.464L24.3975 28.5431L24.4592 28.6048L36.3953 40.5407L36.457 40.6023L36.5361 40.5657C40.1741 38.8837 43.5842 36.7706 46.6825 34.2759ZM59.9995 13.8738L60.1459 14.0202L60.2073 13.8225C61.712 8.97797 62.2757 4.7632 62.4784 2.65795L62.493 2.50701L62.342 2.52154C60.2371 2.72419 56.0224 3.28769 51.1773 4.79257L50.9796 4.85397L51.126 5.00034L59.9995 13.8738Z" fill="white" stroke="url(#paint2_linear)" stroke-width="0.25"/>
<path d="M26.8368 57.7366L26.8368 57.7366L30.427 54.1451C30.427 54.1451 30.427 54.1451 30.427 54.1451C30.8738 53.698 30.8737 52.9733 30.4268 52.5265C29.9796 52.0796 29.2549 52.0798 28.8081 52.5267L26.8368 57.7366ZM26.8368 57.7366C26.39 58.1836 25.6653 58.1837 25.2181 57.7368C24.7712 57.29 24.771 56.5653 25.2179 56.1182C25.2179 56.1182 25.2179 56.1182 25.2179 56.1182L28.8081 52.5267L26.8368 57.7366Z" fill="white" stroke="url(#paint3_linear)" stroke-width="0.25"/>
<path d="M7.2631 38.1626L7.26311 38.1626L10.8546 34.5724C10.8546 34.5724 10.8546 34.5724 10.8546 34.5724C11.3018 34.1255 12.0264 34.1256 12.4732 34.5726C12.92 35.0197 12.9199 35.7444 12.4729 36.1912L12.4729 36.1912L8.88136 39.7814C8.88136 39.7814 8.88136 39.7814 8.88135 39.7814C8.43407 40.2285 7.70948 40.228 7.26277 39.7812C6.81594 39.3342 6.81606 38.6094 7.2631 38.1626Z" fill="white" stroke="url(#paint4_linear)" stroke-width="0.25"/>
<path d="M21.4502 54.3225L21.4502 54.3225C21.8971 54.7695 21.8971 55.4942 21.4501 55.9411L21.5384 56.0295L21.4501 55.9411L12.8503 64.5396L12.8503 64.5396C12.4032 64.9867 11.6784 64.9864 11.2317 64.5395L11.2317 64.5395C10.7847 64.0926 10.7847 63.3679 11.2318 62.9209L11.1434 62.8325L11.2318 62.9209L19.8316 54.3224C19.8316 54.3224 19.8316 54.3224 19.8316 54.3224C20.2787 53.8756 21.0035 53.8756 21.4502 54.3225Z" fill="white" stroke="url(#paint5_linear)" stroke-width="0.25"/>
<path d="M11.2939 54.3225L11.2939 54.3225C11.7409 54.7695 11.7409 55.4942 11.2938 55.9411L11.3822 56.0295L11.2938 55.9411L2.69402 64.5396L2.69401 64.5396C2.24696 64.9867 1.52213 64.9864 1.07544 64.5395L1.07542 64.5395C0.628487 64.0926 0.628487 63.3679 1.07554 62.9209L0.987159 62.8325L1.07554 62.9209L9.67533 54.3224C10.1223 53.8756 10.8471 53.8756 11.2939 54.3225Z" fill="white" stroke="url(#paint6_linear)" stroke-width="0.25"/>
<path d="M2.0789 53.7675L2.16729 53.8558L2.07889 53.7675C1.63196 54.2145 0.907247 54.2145 0.460313 53.7676C0.0132484 53.3205 0.0132484 52.5959 0.460192 52.1489L9.05871 43.5491C9.05871 43.5491 9.05871 43.5491 9.05871 43.5491C9.50566 43.1021 10.2305 43.1022 10.6773 43.549C11.1244 43.996 11.1244 44.7206 10.6774 45.1677L2.0789 53.7675Z" fill="white" stroke="url(#paint7_linear)" stroke-width="0.25"/>
<path d="M37.7866 25.5959C37.7866 25.596 37.7865 25.596 37.7865 25.596L35.9915 27.3911C35.5445 27.838 35.5445 28.5627 35.9915 29.0098C36.4385 29.4567 37.1631 29.4567 37.6102 29.0098C37.6102 29.0098 37.6102 29.0098 37.6102 29.0098L39.4053 27.2147C39.8522 26.7677 39.8522 26.043 39.4053 25.596C39.4053 25.5959 39.4053 25.5959 39.4053 25.5959M37.7866 25.5959L37.6982 25.5076C38.1942 25.0118 38.9978 25.0118 39.4937 25.5076L39.4053 25.5959M37.7866 25.5959C38.2338 25.149 38.9582 25.149 39.4053 25.5959M37.7866 25.5959L39.4053 25.5959" fill="white" stroke="url(#paint8_linear)" stroke-width="0.25"/>
</g>
<defs>
<linearGradient id="paint0_linear" x1="33.209" y1="30.5215" x2="33.209" y2="33.0602" gradientUnits="userSpaceOnUse">
<stop stop-color="white"/>
</linearGradient>
<linearGradient id="paint1_linear" x1="45.7783" y1="12.875" x2="45.7783" y2="25.5683" gradientUnits="userSpaceOnUse">
<stop stop-color="white"/>
</linearGradient>
<linearGradient id="paint2_linear" x1="38.5944" y1="0" x2="38.5944" y2="52.81" gradientUnits="userSpaceOnUse">
<stop stop-color="white"/>
</linearGradient>
<linearGradient id="paint3_linear" x1="27.8224" y1="52.0664" x2="27.8224" y2="58.1969" gradientUnits="userSpaceOnUse">
<stop stop-color="white"/>
</linearGradient>
<linearGradient id="paint4_linear" x1="9.86798" y1="34.1123" x2="9.86798" y2="40.2415" gradientUnits="userSpaceOnUse">
<stop stop-color="white"/>
</linearGradient>
<linearGradient id="paint5_linear" x1="16.3409" y1="53.8623" x2="16.3409" y2="64.9998" gradientUnits="userSpaceOnUse">
<stop stop-color="white"/>
</linearGradient>
<linearGradient id="paint6_linear" x1="6.18467" y1="53.8623" x2="6.18467" y2="64.9998" gradientUnits="userSpaceOnUse">
<stop stop-color="white"/>
</linearGradient>
<linearGradient id="paint7_linear" x1="5.5688" y1="43.0889" x2="5.5688" y2="54.2278" gradientUnits="userSpaceOnUse">
<stop stop-color="white"/>
</linearGradient>
<linearGradient id="paint8_linear" x1="37.6984" y1="25.1357" x2="37.6984" y2="29.47" gradientUnits="userSpaceOnUse">
<stop stop-color="white"/>
</linearGradient>
<clipPath id="clip0">
<rect width="65" height="65" fill="white"/>
</clipPath>
</defs>
</svg>
