<svg width="209" height="72" viewBox="0 0 209 72" fill="none" xmlns="http://www.w3.org/2000/svg">
<g clip-path="url(#clip0)">
<path d="M208.834 28.2949V34.8633H199.668V28.2949H208.834ZM208.834 36.8844V71.9977H199.668V36.8844H204.228H208.834Z" fill="white"/>
<path d="M170.403 58.8118V72.0002H161.142L161.031 28.2949H170.74L170.405 51.4069L183.128 36.8538H193.083L180.556 50.5609L194.037 72.0002H183.919L174.394 56.0824L170.403 58.8118Z" fill="white"/>
<path d="M155.463 28.2949V34.8633H146.297V28.2949H155.463ZM155.463 36.9271V71.9977H146.297V36.9271H155.463Z" fill="white"/>
<path d="M100.974 54.7079V72.0005H91.5855V45.0356C91.5855 43.1045 91.5574 41.4917 91.501 40.1995C91.4447 38.907 91.3792 37.8841 91.3125 36.8847H100.204C100.247 37.079 100.363 37.3925 100.406 38.0665C100.45 38.7405 100.496 39.4952 100.539 40.3306C100.583 41.1661 100.624 41.9535 100.657 42.6907C100.69 43.4301 100.708 43.9602 100.708 44.2858H100.841C101.732 41.8552 102.545 40.106 103.28 39.0434C103.991 38.0236 104.838 37.274 105.818 36.7968C106.798 36.3198 108.024 36.0801 109.493 36.0801C110.696 36.0801 111.665 36.2415 112.4 36.5672V44.2204C110.908 43.8947 109.57 43.733 108.39 43.733C106.051 43.733 104.229 44.6569 102.927 46.5021C101.627 48.3471 100.974 51.0834 100.974 54.7079Z" fill="white"/>
<path d="M24.2178 64.5614C30.303 64.5614 34.5149 61.6973 36.8565 55.9716L45.6104 59.0808C43.7246 63.4407 40.9608 66.6827 37.317 68.8091C33.673 70.9353 29.305 71.9973 24.2203 71.9973C19.0871 71.9973 14.7164 71.0732 11.1058 69.2252C7.49512 67.3769 4.74171 64.6993 2.84555 61.1943C0.949364 57.6895 0 53.4802 0 48.5637C0 43.6063 0.90842 39.4174 2.72527 35.9993C4.54211 32.5815 7.22133 29.9776 10.7654 28.1933C14.307 26.4089 18.6444 25.5156 23.7776 25.5156C29.4098 25.5156 33.998 26.58 37.5396 28.7064C41.0836 30.8328 43.5685 33.9573 44.9989 38.0825L36.1424 40.3595C35.3926 38.0952 33.9211 36.2929 31.7308 34.958C29.5377 33.6228 26.9558 32.9541 23.9823 32.9541C19.4402 32.9541 15.9933 34.2789 13.6443 36.9285C11.2951 39.5784 10.118 43.4583 10.118 48.5637C10.118 52.025 10.658 54.9429 11.7353 57.3144C12.8126 59.6858 14.4042 61.4878 16.5051 62.7156C18.6035 63.9487 21.1752 64.5614 24.2178 64.5614Z" fill="white"/>
<path d="M128.785 54.7295V71.9997H119.397V45.0699C119.397 43.1413 119.368 41.5305 119.312 40.2398C119.256 38.9491 119.207 37.882 119.141 36.8839H128.097C128.14 37.0779 128.174 37.4369 128.217 38.1099C128.261 38.7829 128.307 39.5365 128.35 40.3709C128.394 41.2054 128.435 41.9918 128.468 42.728C128.501 43.4664 128.519 43.996 128.519 44.3211H128.652C129.543 41.8936 130.356 40.1466 131.091 39.0853C131.802 38.0669 132.649 37.3184 133.629 36.8419C134.609 36.3655 135.835 36.126 137.304 36.126C138.507 36.126 139.476 36.2872 140.211 36.6125V44.2557C138.719 43.9303 137.381 43.7691 136.201 43.7691C133.862 43.7691 132.04 44.6917 130.738 46.5344C129.435 48.3771 128.785 51.1096 128.785 54.7295Z" fill="white"/>
<path d="M84.2391 63.6428V41.4316C81.624 43.8647 78.4407 45.3004 74.9094 46.358V55.3486C74.9094 58.2615 74.2159 60.6491 72.834 62.5095C71.4496 64.3696 69.6302 65.301 67.3706 65.301C65.2442 65.301 63.6525 64.5414 62.588 63.0218C61.5261 61.5022 60.9938 59.2331 60.9938 56.2119V46.358C57.4522 45.2701 54.269 43.9026 51.6641 41.4316V58.7612C51.6641 63.0976 52.6823 66.3889 54.7194 68.633C56.7562 70.8769 59.6786 71.9975 63.4863 71.9975C66.1194 71.9975 68.3942 71.4018 70.311 70.2104C72.225 69.019 73.8038 67.1159 75.0423 64.5009H75.2088C75.2088 65.2455 75.242 66.1921 75.3085 67.3405C75.375 68.489 75.7513 70.4653 75.8843 71.9975H84.5078C84.4182 70.892 84.3517 69.0594 84.3083 67.7723C84.2622 66.4874 84.2391 65.1093 84.2391 63.6428Z" fill="white"/>
<path d="M81.6565 29.7933C76.3461 31.8373 70.3382 32.0213 64.7433 30.604C61.2383 29.6624 57.8315 28.1497 54.8023 26.0352C54.7975 26.161 54.7874 26.287 54.7824 26.4128C54.6714 28.8444 54.8377 31.2962 55.4043 33.6472C55.9506 35.9984 56.8925 38.2663 58.3175 40.1694C59.7276 42.0798 61.6891 43.5499 63.9377 44.2446C66.1885 44.9219 68.6588 44.7986 70.92 43.9904C73.1936 43.2 75.2711 41.8282 77.0663 40.1593C80.4025 37.0405 82.7972 32.9651 84.2877 28.6052C84.0612 28.7211 83.8346 28.8368 83.6053 28.9503C82.9834 29.2999 82.3163 29.5291 81.6565 29.7933Z" fill="white"/>
<path d="M70.4365 6.4568C71.3654 6.89981 72.33 7.27487 73.3169 7.59707C75.291 8.2138 77.3483 8.6795 79.4457 8.69458C80.4882 8.69711 81.5483 8.5813 82.5303 8.21883C82.8876 8.09802 83.2202 7.92181 83.5323 7.71538C83.1974 7.12132 82.8297 6.54489 82.4193 5.99865C80.9238 3.9874 78.796 2.43428 76.3839 1.73954C75.1753 1.40978 73.9163 1.29147 72.675 1.37202C71.4286 1.45006 70.2098 1.76471 69.0539 2.21277C68.1124 2.58784 67.2211 3.06357 66.375 3.60981C66.8056 4.07046 67.2966 4.4984 67.8202 4.88606C68.6286 5.48262 69.5149 6.00117 70.4365 6.4568Z" fill="white"/>
<path d="M87.9886 26.071L87.1577 26.7177C86.8757 26.9266 86.6089 27.1634 86.3142 27.3521L85.5136 27.853C84.1488 32.7693 81.6914 37.4639 77.9974 41.1162C76.8971 42.1937 75.6785 43.1703 74.3516 43.9858C83.3229 41.3403 89.9378 33.2424 90.3808 23.5537C89.8796 24.1855 89.3383 24.7871 88.7566 25.3409L87.9886 26.071Z" fill="white"/>
<path d="M85.4613 13.0613C85.0633 11.3546 84.4641 9.67812 83.6206 8.13507C83.3034 8.35155 82.9709 8.54287 82.6082 8.67123C81.6113 9.08406 80.5411 9.29298 79.4684 9.40626C78.3933 9.51954 77.308 9.51954 76.2254 9.43898C75.1451 9.34333 74.0726 9.15454 73.015 8.89779C71.965 8.61335 70.9301 8.27101 69.9178 7.85063C68.913 7.41767 67.9313 6.9117 67.0021 6.295C66.3347 5.84944 65.6877 5.34852 65.1035 4.75195C64.3532 5.33341 63.6456 5.9728 62.9833 6.6474C61.2585 8.41701 59.8434 10.461 58.6878 12.6258C58.0984 13.7031 57.5925 14.8233 57.1392 15.9636C56.681 17.1014 56.2906 18.2643 55.9608 19.4449C55.6889 20.4166 55.4572 21.3983 55.2734 22.3875C58.149 25.0205 61.7094 27.0015 65.5012 28.2401C68.0243 29.0455 70.6532 29.5465 73.317 29.7051C75.981 29.861 78.6905 29.6496 81.3015 28.9573C81.9487 28.7636 82.6108 28.6049 83.2304 28.3331C83.7088 28.1444 84.1973 27.9683 84.6605 27.7442C85.3681 25.393 85.8515 22.964 85.9925 20.5046C86.1487 18.0227 86.0102 15.5055 85.4613 13.0613Z" fill="white"/>
<path d="M84.0977 7.89921C84.9589 9.47247 85.5808 11.1791 85.9861 12.9286C87.0889 17.5754 86.7945 22.4839 85.5305 27.0929L85.7041 27.0073C86.0063 26.8539 86.2833 26.6549 86.5754 26.4788L87.4415 25.9351L88.2347 25.2957C88.9976 24.6739 89.6951 23.9716 90.3145 23.2064C90.3221 23.0528 90.3347 22.8993 90.3398 22.7457C90.5134 16.8378 88.3808 11.4007 84.7575 7.29004C84.6165 7.46625 84.4578 7.62735 84.2864 7.77082C84.2235 7.81362 84.1606 7.85641 84.0977 7.89921Z" fill="white"/>
<path d="M65.1403 1.65632C65.2788 2.04397 65.4451 2.45428 65.7322 2.83187C65.7875 2.90989 65.853 2.98542 65.9134 3.06346C66.8653 2.53736 67.8575 2.0918 68.8898 1.75701C71.1836 0.986749 73.6965 0.835713 76.0257 1.4474C73.5605 0.513512 70.8889 0 68.0965 0C67.1698 0 66.2583 0.0629285 65.362 0.171168C65.2715 0.299545 65.1934 0.432963 65.1381 0.576445C65.0474 0.901165 65.0474 1.26364 65.1403 1.65632Z" fill="white"/>
<path d="M82.5676 5.88229C82.9906 6.42097 83.3757 6.98985 83.7283 7.57636C83.7813 7.53861 83.8342 7.50337 83.8844 7.46308C84.0482 7.30953 84.1943 7.1434 84.3226 6.96216C83.1642 5.74634 81.8752 4.65892 80.4727 3.72754C81.2507 4.3644 81.9558 5.08685 82.5676 5.88229Z" fill="white"/>
<path d="M52.7096 19.3777C52.9992 19.7477 53.304 20.1052 53.6186 20.4551C53.7622 19.8484 53.9234 19.2443 54.0973 18.6477C54.8776 16.1708 55.9127 13.7694 57.2925 11.5668C58.6672 9.36675 60.3341 7.35047 62.2731 5.64126C62.993 5.00443 63.7585 4.41287 64.5593 3.88174C64.5265 3.84399 64.4939 3.80875 64.461 3.76846C64.0835 3.31536 63.7863 2.75404 63.5546 2.15241C63.3959 1.64142 63.3279 1.07253 63.3959 0.496094C57.3102 1.79749 52.1408 5.56575 48.9883 10.7059C49.0537 11.3881 49.1695 12.0727 49.3408 12.7499C49.9349 15.1161 51.1285 17.3815 52.7096 19.3777Z" fill="white"/>
<path d="M53.5363 34.1154C52.8916 31.5654 52.6549 28.9324 52.7658 26.3245C52.7933 25.743 52.8414 25.1616 52.9018 24.5826C51.8442 23.7016 50.8445 22.74 49.9203 21.6903C48.5658 20.1247 47.3925 18.3626 46.5009 16.4395C45.9799 18.3374 45.6953 20.3311 45.6953 22.3952C45.6953 31.0998 50.6658 38.6388 57.9225 42.3467C57.5776 41.9917 57.2551 41.6191 56.9532 41.2316C55.2962 39.1246 54.2009 36.6551 53.5363 34.1154Z" fill="white"/>
</g>
<defs>
<clipPath id="clip0">
<rect width="208.832" height="72" fill="white"/>
</clipPath>
</defs>
</svg>
