<svg width="80" height="75" viewBox="0 0 80 75" fill="none" xmlns="http://www.w3.org/2000/svg">
<path d="M58.1195 10.7017L58.1554 10.765H58.2282H73.9996C76.7537 10.765 78.995 13.0104 78.995 15.7705V62.3508C78.995 65.1107 76.7537 67.3561 73.9996 67.3561H48.7846H48.6596V67.4811V71.9437V72.0687H48.7846H61.9462C62.7212 72.0687 63.3493 72.6969 63.3493 73.4719C63.3493 74.2467 62.7212 74.875 61.9462 74.875H18.0527C17.2777 74.875 16.6495 74.2467 16.6495 73.4719C16.6495 72.6969 17.2777 72.0687 18.0527 72.0687H31.2143H31.3393V71.9437V67.4811V67.3561H31.2143H5.99926C3.24513 67.3561 1.00391 65.1109 1.00391 62.3508V15.7705C1.00391 13.0104 3.24513 10.765 5.99926 10.765H21.7706H21.8434L21.8794 10.7017C25.46 4.3912 32.2411 0.125 39.9994 0.125C47.7578 0.125 54.5389 4.3912 58.1195 10.7017ZM43.639 38.8632L43.639 38.8632L35.6707 38.3017L35.6405 38.423C35.6405 38.423 35.6405 38.4231 35.6405 38.4231C35.9197 38.4925 36.171 38.6462 36.36 38.8632L36.36 38.8632L39.9052 42.9328L39.9994 43.041L40.0937 42.9328L43.639 38.8632ZM45.7283 72.0689H45.8533V71.9439V67.4812V67.3562H45.7283H34.2704H34.1454V67.4812V71.9439V72.0689H34.2704H45.7283ZM3.9352 54.7053H3.8102V54.8303V62.3508C3.8102 63.5627 4.7915 64.5498 5.99926 64.5498H73.9996C75.2074 64.5498 76.1887 63.5627 76.1887 62.3508V54.8303V54.7053H76.0637H65.0208C64.2459 54.7053 63.6177 54.077 63.6177 53.3022C63.6177 52.5274 64.2459 51.899 65.0208 51.899H76.0635H76.1885V51.774V15.7705C76.1885 14.5585 75.2072 13.5715 73.9995 13.5715H59.6494H59.4699L59.5322 13.7398C60.3629 15.9852 60.8169 18.4118 60.8169 20.9428C60.8169 30.367 54.5461 38.5551 45.5062 41.0238L45.4697 41.0338L45.4449 41.0623L41.0574 46.0988L41.0574 46.0988C40.7909 46.4048 40.4051 46.5803 39.9994 46.5803C39.5938 46.5803 39.2079 46.4048 38.9415 46.0988L38.9415 46.0988L34.5539 41.0623L34.529 41.0338L34.4925 41.0238C25.4528 38.5551 19.1818 30.367 19.1818 20.9428C19.1818 18.4118 19.6359 15.9852 20.4666 13.7398L20.5288 13.5715H20.3493H5.99926C4.7915 13.5715 3.8102 14.5585 3.8102 15.7705V51.774V51.899H3.9352H51.2047C51.9797 51.899 52.6079 52.5274 52.6079 53.3022C52.6079 54.077 51.9797 54.7053 51.2047 54.7053H3.9352Z" fill="#285AA5" stroke="white" stroke-width="0.25"/>
<path d="M37.3446 58.2246H42.6526C43.4275 58.2246 44.0557 58.8529 44.0557 59.6278C44.0557 60.4026 43.4275 61.0309 42.6526 61.0309H37.3446C36.5696 61.0309 35.9414 60.4026 35.9414 59.6278C35.9414 58.8529 36.5696 58.2246 37.3446 58.2246Z" fill="#285AA5" stroke="white" stroke-width="0.25"/>
<path d="M44.7002 30.8759C44.7002 33.4683 42.5909 35.5775 39.9985 35.5775C37.406 35.5775 35.2969 33.4683 35.2969 30.8759V25.8979C35.2969 23.3056 37.406 21.1963 39.9985 21.1963C42.5909 21.1963 44.7002 23.3056 44.7002 25.8979V30.8759ZM39.9985 24.0026C38.9533 24.0026 38.1032 24.8527 38.1032 25.8979V30.8759C38.1032 31.9211 38.9533 32.7712 39.9985 32.7712C41.0437 32.7712 41.8939 31.9211 41.8939 30.8759V25.8979C41.8939 24.8527 41.0437 24.0026 39.9985 24.0026Z" fill="#285AA5" stroke="white" stroke-width="0.25"/>
<path d="M44.7002 12.7728C44.7002 15.3652 42.5909 17.4744 39.9985 17.4744C37.406 17.4744 35.2969 15.3653 35.2969 12.7729C35.2969 10.1806 37.406 8.07129 39.9985 8.07129C42.5909 8.07129 44.7002 10.1804 44.7002 12.7728ZM41.8939 12.7729C41.8939 11.7277 41.0437 10.8776 39.9985 10.8776C38.9533 10.8776 38.1032 11.7277 38.1032 12.7729C38.1032 13.8182 38.9533 14.6683 39.9985 14.6683C41.0437 14.6683 41.8939 13.8182 41.8939 12.7729Z" fill="#285AA5" stroke="white" stroke-width="0.25"/>
<path d="M56.801 52.8901L56.801 52.8901C56.6302 53.4416 56.8282 54.0654 57.2875 54.4154L57.2875 54.4154C57.7617 54.7769 58.4244 54.7967 58.9219 54.4684L58.9219 54.4684C59.4731 54.1049 59.6876 53.3754 59.4376 52.7655C59.2082 52.2146 58.6374 51.8599 58.0418 51.9029L56.801 52.8901ZM56.801 52.8901C56.9704 52.3431 57.4703 51.9443 58.0418 51.9029L56.801 52.8901Z" fill="#285AA5" stroke="white" stroke-width="0.25"/>
</svg>
