<svg width="110" height="110" viewBox="0 0 110 110" fill="none" xmlns="http://www.w3.org/2000/svg">
<path d="M67.4677 107.028H67.3667C67.0942 107.01 66.8321 106.917 66.6089 106.759C66.3858 106.602 66.2103 106.386 66.1017 106.136L54.8712 79.9157C54.7865 79.7352 54.739 79.5395 54.7315 79.3402C54.724 79.141 54.7567 78.9423 54.8276 78.7559C54.8984 78.5695 55.0061 78.3993 55.1441 78.2554C55.2821 78.1115 55.4477 77.9968 55.631 77.9182C55.8142 77.8396 56.0114 77.7987 56.2108 77.7978C56.4102 77.797 56.6077 77.8363 56.7916 77.9134C56.9755 77.9905 57.142 78.1038 57.2812 78.2465C57.4204 78.3893 57.5295 78.5586 57.6019 78.7444L67.6907 102.286L72.5961 94.1102C72.7569 93.8424 72.998 93.6321 73.2851 93.5091C73.5722 93.386 73.8908 93.3566 74.1956 93.4249L83.501 95.506L74.3115 74.0545C74.2313 73.8746 74.1877 73.6805 74.1832 73.4836C74.1786 73.2866 74.2133 73.0908 74.2851 72.9073C74.357 72.7239 74.4645 72.5566 74.6016 72.4151C74.7386 72.2736 74.9025 72.1608 75.0835 72.0832C75.2646 72.0055 75.4593 71.9647 75.6562 71.9629C75.8532 71.9612 76.0486 71.9987 76.231 72.0731C76.4133 72.1475 76.5791 72.2575 76.7186 72.3966C76.8582 72.5356 76.9687 72.701 77.0437 72.8832L87.3822 97.0014C87.4902 97.2531 87.5265 97.5297 87.4872 97.8007C87.448 98.0717 87.3346 98.3266 87.1596 98.5373C86.9846 98.748 86.7548 98.9062 86.4956 98.9945C86.2364 99.0829 85.9578 99.0979 85.6906 99.0379L74.5969 96.5599L68.7431 106.307C68.6109 106.527 68.4239 106.709 68.2004 106.835C67.9769 106.962 67.7245 107.028 67.4677 107.028Z" fill="#285AA5"/>
<path d="M42.531 107.027C42.2742 107.027 42.0218 106.961 41.7983 106.834C41.5748 106.708 41.3878 106.526 41.2556 106.306L35.4018 96.5591L24.3081 99.0371C24.0409 99.097 23.7623 99.082 23.5031 98.9937C23.2439 98.9054 23.0141 98.7471 22.8391 98.5365C22.6641 98.3258 22.5507 98.0709 22.5115 97.7999C22.4722 97.5288 22.5085 97.2522 22.6165 97.0006L32.955 72.8823C33.114 72.5256 33.407 72.2457 33.7707 72.1033C34.1344 71.9609 34.5395 71.9673 34.8985 72.1212C35.2575 72.2751 35.5414 72.5641 35.689 72.9258C35.8366 73.2874 35.836 73.6925 35.6872 74.0537L26.4933 95.5022L35.7987 93.4211C36.1035 93.3528 36.422 93.3822 36.7092 93.5053C36.9963 93.6283 37.2373 93.8386 37.3981 94.1064L42.3035 102.282L52.3923 78.7406C52.4647 78.5548 52.5738 78.3855 52.713 78.2427C52.8522 78.1 53.0187 77.9867 53.2026 77.9096C53.3865 77.8325 53.5841 77.7932 53.7835 77.794C53.9828 77.7948 54.18 77.8358 54.3633 77.9144C54.5465 77.993 54.7121 78.1077 54.8501 78.2516C54.9881 78.3955 55.0958 78.5657 55.1667 78.7521C55.2376 78.9384 55.2702 79.1372 55.2627 79.3364C55.2552 79.5357 55.2077 79.7314 55.123 79.9119L43.8971 106.126C43.7884 106.377 43.6129 106.592 43.3898 106.75C43.1666 106.907 42.9045 107 42.6321 107.018L42.531 107.027Z" fill="#285AA5"/>
<path d="M88.3412 28.6297C87.9723 28.6291 87.6168 28.4913 87.3438 28.2432C86.4672 27.4976 85.7063 26.6259 85.0858 25.6567C84.7803 25.1163 84.5375 24.5427 84.3619 23.9473C84.3037 23.76 84.2831 23.5631 84.3014 23.3678C84.3196 23.1726 84.3763 22.9828 84.4682 22.8096C84.56 22.6363 84.6853 22.483 84.8367 22.3584C84.9881 22.2337 85.1626 22.1403 85.3503 22.0834C85.538 22.0265 85.7351 22.0074 85.9302 22.027C86.1253 22.0466 86.3146 22.1047 86.4872 22.1978C86.6598 22.2909 86.8122 22.4172 86.9358 22.5695C87.0593 22.7218 87.1515 22.897 87.207 23.0851C87.3152 23.4588 87.4648 23.8193 87.653 24.1598C88.1251 24.8616 88.6918 25.4949 89.3372 26.0417C89.5596 26.2433 89.7158 26.5075 89.7852 26.7995C89.8546 27.0915 89.834 27.3977 89.726 27.6778C89.6181 27.9579 89.4279 28.1987 89.1804 28.3686C88.933 28.5385 88.6399 28.6295 88.3397 28.6297H88.3412Z" fill="#285AA5"/>
<path d="M45.8817 83.0323C45.3597 83.0342 44.8396 82.9687 44.3343 82.8376C42.0347 82.2251 40.511 80.3566 39.0379 78.5476C38.2439 77.4316 37.2686 76.4563 36.1526 75.6623C35.4752 75.3111 34.75 75.0607 34.0002 74.9191C33.3952 74.7868 32.7635 74.6827 32.1317 74.5787C29.8529 74.2026 27.4983 73.8131 25.8498 72.1512C24.2013 70.4893 23.8074 68.1481 23.4313 65.8664C23.2967 64.4774 22.9304 63.1208 22.3476 61.8528C21.5501 60.7395 20.5737 59.7661 19.4579 58.972C17.6503 57.4974 15.7789 55.9723 15.1679 53.6727C14.8252 51.4366 15.1917 49.1493 16.2159 47.1322C16.8079 45.8272 17.1752 44.4315 17.3025 43.0042C17.1751 41.5774 16.8077 40.1823 16.2159 38.8777C15.1946 36.8597 14.8307 34.5725 15.1753 32.3372C15.7863 30.0376 17.6563 28.5124 19.4653 27.0378C20.5824 26.2436 21.5594 25.269 22.3566 24.1541C22.9389 22.886 23.3052 21.5294 23.4402 20.1405C23.5629 17.8448 24.4032 15.6455 25.8424 13.8527C27.6362 12.4093 29.8385 11.5663 32.1376 11.4431C33.5291 11.308 34.8881 10.9412 36.1586 10.358C37.2714 9.56097 38.2443 8.58499 39.0379 7.46973C40.514 5.66068 42.0391 3.78919 44.3387 3.17825C46.5432 2.58365 48.7521 3.41609 50.8897 4.21879C52.1886 4.81062 53.5782 5.17851 54.9998 5.3069C56.424 5.17887 57.8162 4.81045 59.1174 4.2173C61.139 3.18902 63.4336 2.82489 65.6743 3.17676C66.803 3.50422 67.8338 4.1046 68.6755 4.92487C68.8194 5.05683 68.9358 5.21584 69.0182 5.39281C69.1007 5.56978 69.1474 5.76125 69.1558 5.95629C69.1643 6.15133 69.1342 6.34612 69.0673 6.52954C69.0005 6.71295 68.8981 6.88141 68.7662 7.02527C68.6342 7.16914 68.4752 7.28561 68.2982 7.36803C68.1213 7.45045 67.9298 7.4972 67.7347 7.50562C67.3408 7.52263 66.9563 7.38246 66.6658 7.11595C66.1769 6.62073 65.5741 6.25276 64.9102 6.04419C63.2732 5.91039 61.6317 6.24117 60.1743 6.99852C58.5404 7.73296 56.7876 8.16701 54.9998 8.27987C53.214 8.1663 51.4633 7.73226 49.8313 6.99852C48.3758 6.2416 46.7365 5.91033 45.1013 6.04271C43.5553 6.75816 42.2478 7.90319 41.3345 9.34122C40.3272 10.749 39.0762 11.9652 37.6406 12.9326C36.0638 13.7112 34.36 14.2006 32.6103 14.3774C30.9349 14.4529 29.3149 15.0002 27.9368 15.9561C26.9857 17.3332 26.4412 18.9502 26.3656 20.6222C26.1885 22.3707 25.6997 24.0733 24.9222 25.6495C23.9559 27.0851 22.7418 28.3374 21.3368 29.3478C19.8995 30.2583 18.7549 31.5634 18.0398 33.1072C17.9112 34.7423 18.2428 36.3807 18.9971 37.8372C19.7293 39.4716 20.1622 41.2242 20.2755 43.0116C20.1621 44.7995 19.7291 46.5525 18.9971 48.1876C18.2426 49.6439 17.911 51.2825 18.0398 52.9176C18.7562 54.4605 19.9005 55.7653 21.3368 56.6769C22.7408 57.6856 23.9544 58.9359 24.9207 60.3693C25.6965 61.9414 26.1853 63.6394 26.3641 65.3832C26.4388 67.0591 26.99 68.6789 27.9532 70.0523C29.3224 71.019 30.9404 71.5721 32.6148 71.6458C33.3001 71.7603 33.9839 71.8733 34.6424 72.0174C35.6853 72.2206 36.6915 72.5799 37.6272 73.0833C39.0723 74.0479 40.3312 75.2655 41.3435 76.6776C42.2516 78.1129 43.5542 79.2561 45.0953 79.9701C46.7299 80.0998 48.368 79.7687 49.8239 79.0143C51.0135 78.5258 52.2449 78.1457 53.5029 77.8787C54.4919 77.6899 55.5077 77.6899 56.4967 77.8787C57.7547 78.1457 58.9861 78.5258 60.1758 79.0143C61.6337 79.7658 63.2719 80.0968 64.9072 79.9701C66.4471 79.2547 67.7489 78.1118 68.6576 76.6776C69.667 75.2679 70.9224 74.0518 72.3635 73.0877C73.3008 72.5827 74.3092 72.2224 75.3543 72.0189C76.0172 71.8703 76.701 71.7603 77.3833 71.6473C79.0605 71.5689 80.6807 71.0141 82.0539 70.0478C83.0094 68.6754 83.5558 67.0599 83.6295 65.3892C83.8069 63.6422 84.2957 61.941 85.0729 60.3664C86.039 58.9309 87.2531 57.6791 88.6583 56.6695C90.0951 55.7578 91.2395 54.4523 91.9554 52.9087C92.084 51.274 91.7524 49.636 90.9981 48.1801C90.2661 46.5451 89.8331 44.792 89.7197 43.0042C89.8343 41.2012 90.2734 39.4337 91.0159 37.7866C91.1764 37.363 91.337 36.9408 91.4826 36.5216C91.6131 36.1495 91.8861 35.8444 92.2416 35.6735C92.597 35.5026 93.0058 35.4799 93.3779 35.6104C93.7501 35.7409 94.0552 36.0139 94.2261 36.3693C94.3969 36.7248 94.4196 37.1335 94.2891 37.5057C94.1405 37.9516 93.9651 38.3976 93.7956 38.8435C93.1946 40.1583 92.8216 41.5658 92.6926 43.0057C92.8199 44.433 93.1873 45.8286 93.7793 47.1337C94.8011 49.1515 95.165 51.4388 94.8198 53.6742C94.2089 55.9753 92.3374 57.5004 90.5298 58.975C89.4131 59.7697 88.4361 60.7442 87.6386 61.8588C87.0561 63.1268 86.6898 64.4834 86.5549 65.8723C86.1818 68.1481 85.7968 70.5027 84.1483 72.1512C82.3584 73.6024 80.1555 74.4504 77.8545 74.5742C77.2228 74.6782 76.5925 74.7823 75.9845 74.9146C75.2332 75.0559 74.5065 75.3063 73.8276 75.6578C72.7143 76.4531 71.7416 77.4288 70.9498 78.5446C69.4767 80.3537 67.953 82.2222 65.6564 82.8331C63.4211 83.1763 61.1344 82.8125 59.1159 81.7926C58.0937 81.3708 57.0368 81.0386 55.9571 80.7996C55.3162 80.6732 54.6567 80.6732 54.0158 80.7996C52.9361 81.0386 51.8792 81.3708 50.857 81.7926C49.2848 82.4963 47.6003 82.9161 45.8817 83.0323Z" fill="#285AA5"/>
<path d="M80.9543 15.133C80.7815 15.1329 80.6098 15.1048 80.4459 15.0498C79.4263 14.7334 78.3822 14.5022 77.3243 14.3586C76.7134 14.2575 76.1054 14.1549 75.5153 14.03C75.3226 13.9915 75.1395 13.9152 74.9765 13.8054C74.8136 13.6957 74.674 13.5547 74.5658 13.3907C74.4577 13.2267 74.3831 13.0429 74.3464 12.8498C74.3098 12.6568 74.3117 12.4584 74.3522 12.2662C74.3927 12.0739 74.4709 11.8916 74.5822 11.7298C74.6936 11.5679 74.836 11.4297 75.0011 11.3232C75.1662 11.2168 75.3507 11.144 75.5441 11.1093C75.7375 11.0746 75.9359 11.0786 76.1277 11.121C76.6762 11.2384 77.244 11.3321 77.8134 11.4272C79.023 11.5939 80.2164 11.8625 81.3809 12.2299C81.7178 12.337 82.0056 12.5606 82.1925 12.8606C82.3794 13.1607 82.4533 13.5175 82.4008 13.8671C82.3484 14.2167 82.173 14.5362 81.9063 14.7682C81.6396 15.0002 81.2989 15.1295 80.9454 15.133H80.9543Z" fill="#285AA5"/>
<path d="M55.0001 70.2395C49.6657 70.2395 44.4512 68.6576 40.0158 65.694C35.5804 62.7303 32.1235 58.518 30.0822 53.5896C28.0409 48.6612 27.5069 43.2382 28.5477 38.0064C29.5884 32.7745 32.1573 27.9688 35.9294 24.1969C39.7015 20.425 44.5074 17.8564 49.7393 16.8159C54.9712 15.7754 60.3942 16.3097 65.3224 18.3513C70.2507 20.3929 74.4629 23.8501 77.4263 28.2856C80.3897 32.7211 81.9713 37.9358 81.971 43.2701C81.9623 50.4205 79.1179 57.2754 74.0617 62.3313C69.0056 67.3872 62.1504 70.2312 55.0001 70.2395ZM55.0001 19.2723C50.2538 19.2723 45.6141 20.6798 41.6676 23.3167C37.7212 25.9536 34.6454 29.7015 32.829 34.0866C31.0127 38.4716 30.5374 43.2968 31.4634 47.9519C32.3894 52.607 34.6749 56.883 38.0311 60.2392C41.3873 63.5953 45.6633 65.8809 50.3184 66.8069C54.9735 67.7328 59.7987 67.2576 64.1837 65.4412C68.5687 63.6249 72.3167 60.549 74.9536 56.6026C77.5905 52.6562 78.998 48.0165 78.998 43.2701C78.9905 36.9078 76.4598 30.8082 71.9609 26.3094C67.4621 21.8105 61.3625 19.2798 55.0001 19.2723Z" fill="#285AA5"/>
<path d="M63.2704 56.6712C63.029 56.6713 62.7913 56.6126 62.5777 56.5002L55.0011 52.5179L47.42 56.5002C47.1745 56.6293 46.8978 56.6871 46.6212 56.6671C46.3445 56.6472 46.079 56.5502 45.8546 56.3872C45.6302 56.2242 45.4559 56.0017 45.3514 55.7448C45.2468 55.4879 45.2163 55.2068 45.2631 54.9335L46.7095 46.4962L40.5822 40.522C40.3834 40.3284 40.2428 40.0831 40.1762 39.8138C40.1097 39.5444 40.1198 39.2619 40.2055 38.998C40.2912 38.7341 40.449 38.4995 40.6611 38.3207C40.8732 38.1418 41.1311 38.0259 41.4057 37.9861L49.8786 36.7552L53.6632 29.0805C53.7999 28.8484 53.9948 28.656 54.2287 28.5223C54.4626 28.3887 54.7273 28.3184 54.9966 28.3184C55.266 28.3184 55.5307 28.3887 55.7645 28.5223C55.9984 28.656 56.1933 28.8484 56.33 29.0805L60.1176 36.7552L68.5905 37.9861C68.8656 38.025 69.1242 38.1402 69.3371 38.3187C69.55 38.4972 69.7086 38.7317 69.7949 38.9957C69.8813 39.2598 69.8919 39.5427 69.8257 39.8125C69.7594 40.0822 69.6189 40.328 69.42 40.522L63.2912 46.4962L64.7376 54.9335C64.7741 55.1468 64.7637 55.3654 64.707 55.5743C64.6503 55.7831 64.5487 55.977 64.4092 56.1425C64.2698 56.308 64.0959 56.441 63.8997 56.5323C63.7035 56.6237 63.4898 56.671 63.2734 56.6712H63.2704ZM55.0011 49.3517C55.2418 49.3514 55.479 49.4096 55.6923 49.5212L61.2949 52.4733L60.2246 46.2301C60.184 45.9925 60.2017 45.7487 60.2763 45.5195C60.3509 45.2903 60.48 45.0827 60.6527 44.9146L65.185 40.4967L58.9209 39.587C58.6824 39.5524 58.4559 39.4603 58.2609 39.3186C58.0659 39.177 57.9083 38.99 57.8016 38.7739L55.0011 33.0955L52.2005 38.7724C52.0939 38.9885 51.9362 39.1755 51.7412 39.3171C51.5462 39.4588 51.3197 39.5509 51.0812 39.5855L44.8172 40.4952L49.3524 44.9131C49.5251 45.0812 49.6543 45.2888 49.7289 45.518C49.8034 45.7472 49.8212 45.9911 49.7805 46.2286L48.7103 52.4719L54.3128 49.5256C54.5248 49.4129 54.761 49.3533 55.0011 49.3517Z" fill="#285AA5"/>
</svg>
