<svg width="110" height="110" viewBox="0 0 110 110" fill="none" xmlns="http://www.w3.org/2000/svg">
<path d="M107.468 0H14.5451C14.0519 0 13.5667 0.195293 13.2501 0.573203C12.5578 1.39928 12.8659 2.57812 13.7167 3.03617L35.3901 14.7065C35.3923 14.7076 35.3938 14.7097 35.3942 14.7123L40.4405 48.3527C40.6212 49.5183 42.0052 50.1157 42.9722 49.4293L64.1388 34.3898C64.1412 34.3881 64.1444 34.3879 64.1472 34.3894L79.1469 42.6392C79.8624 43.0323 80.7845 42.8162 81.2503 42.1463L97.0219 19.4747C97.5311 18.7428 97.3504 17.7364 96.6185 17.2272C95.8863 16.7179 94.8806 16.8988 94.371 17.6307L79.4335 39.1037C79.4312 39.1069 79.4269 39.108 79.4234 39.1061L49.5099 22.6538C49.5039 22.6505 49.5047 22.6417 49.5112 22.6394L103.355 4.69133C103.362 4.68896 103.368 4.69713 103.364 4.70314L98.9001 11.1199C98.3924 11.8495 98.5106 12.8795 99.2273 13.405C99.9623 13.9438 100.991 13.7685 101.508 13.0255L108.805 2.53645C108.851 2.47049 108.892 2.39895 108.927 2.32654C109.452 1.26264 108.644 0 107.468 0ZM60.9894 32.6526C60.9944 32.6554 60.9948 32.6627 60.9901 32.6659L44.1424 44.6364C44.1369 44.6402 44.1293 44.6357 44.1302 44.6288L46.7683 24.8432C46.7689 24.8379 46.7749 24.8349 46.7799 24.8374L60.9894 32.6526ZM86.8422 6.79186L44.9707 20.749C44.3934 20.9423 43.9613 21.4631 43.8808 22.0672L41.95 36.5475C41.9487 36.5565 41.9358 36.5565 41.9345 36.5477L38.7028 15.0025C38.7022 14.9982 38.705 14.9944 38.7093 14.9937L86.8383 6.7766C86.8478 6.77488 86.8512 6.78863 86.8422 6.79186ZM88.3382 3.24457L37.1491 11.9842C37.1473 11.9844 37.1456 11.9842 37.1441 11.9833L20.9133 3.24393C20.9062 3.24006 20.9088 3.2291 20.917 3.2291H88.3369C88.3465 3.2291 88.3476 3.24307 88.3382 3.24457Z" fill="#285AA5"/>
<path d="M29.891 64.6166C29.4381 64.6232 28.9768 64.6417 28.5203 64.6713C27.6304 64.7289 26.9558 65.4968 27.0132 66.3866C27.0682 67.2411 27.7787 67.8972 28.6228 67.8972C28.6578 67.8972 28.693 67.8961 28.7285 67.8938C29.1322 67.8678 29.5395 67.8515 29.9393 67.8454C30.8309 67.8321 31.5429 67.0984 31.5296 66.207C31.5163 65.3157 30.7783 64.5983 29.891 64.6166Z" fill="#285AA5"/>
<path d="M37.8278 65.7548C36.9906 65.483 36.1112 65.2562 35.2145 65.0804C34.3401 64.9083 33.4912 65.479 33.3196 66.3542C33.1479 67.2291 33.7183 68.0777 34.5934 68.2494C35.3636 68.4004 36.1166 68.5946 36.8312 68.8265C37.6686 69.0978 38.5935 68.626 38.8653 67.7892C39.1403 66.9408 38.6756 66.03 37.8278 65.7548Z" fill="#285AA5"/>
<path d="M21.0138 80.6971C20.8877 79.9608 20.8147 79.2016 20.797 78.4404C20.7764 77.5488 20.0348 76.8441 19.1455 76.8637C18.2542 76.8843 17.5482 77.6238 17.5688 78.5152C17.5901 79.4338 17.6784 80.3514 17.8311 81.2426C17.9796 82.1093 18.8278 82.7102 19.6951 82.5609C20.5742 82.4105 21.1644 81.5758 21.0138 80.6971Z" fill="#285AA5"/>
<path d="M28.8918 90.6685C28.2094 90.4266 27.5455 90.1135 26.9188 89.7382C26.1536 89.2804 25.1623 89.5292 24.704 90.2942C24.2462 91.0593 24.495 92.0508 25.26 92.509C26.0702 92.9937 26.9285 93.3985 27.8124 93.7119C28.6864 94.0217 29.6656 93.5078 29.9097 92.6149C30.1297 91.8104 29.6772 90.9471 28.8918 90.6685Z" fill="#285AA5"/>
<path d="M30.9877 58.3775C30.4334 57.679 29.4176 57.5623 28.7194 58.1164C28.0342 58.66 27.3624 59.2377 26.723 59.8339C26.0705 60.4417 26.0344 61.4632 26.642 62.1157C27.2412 62.7592 28.28 62.7961 28.9237 62.1965C29.5012 61.6585 30.1079 61.1367 30.7266 60.646C31.4251 60.0915 31.542 59.0761 30.9877 58.3775Z" fill="#285AA5"/>
<path d="M23.6503 86.8159C23.2017 86.2358 22.7965 85.6059 22.4461 84.9435C22.0291 84.1555 21.0517 83.8549 20.2639 84.2717C19.4759 84.6889 19.1751 85.6658 19.5921 86.4539C20.0286 87.2791 20.5348 88.0654 21.096 88.7911C21.6765 89.542 22.8143 89.6232 23.4971 88.963C24.0804 88.3986 24.1466 87.4574 23.6503 86.8159Z" fill="#285AA5"/>
<path d="M21.229 69.6658C20.4087 69.3162 19.4604 69.698 19.1108 70.5183C18.7254 71.4223 18.4104 72.3122 18.1992 73.091C17.9659 73.9516 18.4744 74.8383 19.3349 75.0718C19.476 75.1101 19.6183 75.1283 19.7581 75.1283C20.4693 75.1283 21.1207 74.655 21.3153 73.936C21.4361 73.491 21.6668 72.7565 22.0812 71.7837C22.431 70.9634 22.0494 70.0151 21.229 69.6658Z" fill="#285AA5"/>
<path d="M25.4314 63.4343C24.7278 62.8858 23.7135 63.0114 23.1654 63.7148C22.6253 64.4075 22.1082 65.1285 21.6291 65.8577C21.139 66.6028 21.3459 67.6039 22.091 68.0938C22.8266 68.5776 23.8437 68.3666 24.3271 67.6319C24.7589 66.9751 25.2249 66.3252 25.712 65.7006C26.2602 64.9972 26.1346 63.9825 25.4314 63.4343Z" fill="#285AA5"/>
<path d="M44.8818 69.9896C44.2478 69.3316 43.5279 68.718 42.742 68.1658C42.0126 67.653 41.0056 67.8289 40.4928 68.5588C39.9802 69.2884 40.1561 70.2954 40.8858 70.808C41.5032 71.2417 42.0652 71.7202 42.5562 72.23C43.1667 72.8636 44.2053 72.8829 44.8391 72.2726C45.4813 71.6538 45.5004 70.6318 44.8818 69.9896Z" fill="#285AA5"/>
<path d="M37.3384 92.2354C37.1515 91.3633 36.2938 90.8086 35.4214 90.9951C34.7485 91.1392 34.0436 91.2346 33.324 91.2789L33.1986 91.286C32.308 91.3302 31.6218 92.088 31.6661 92.9787C31.7088 93.8422 32.4223 94.5132 33.2772 94.5132C33.3041 94.5132 33.3316 94.5125 33.3586 94.5112L33.5232 94.502C34.4015 94.4485 35.2677 94.3308 36.0983 94.1529C36.9702 93.9655 37.5253 93.1074 37.3384 92.2354Z" fill="#285AA5"/>
<path d="M48.3508 77.699C48.2741 76.7204 48.0951 75.7742 47.8186 74.8867C47.5533 74.0353 46.6477 73.5601 45.7967 73.8256C44.9453 74.0907 44.4705 74.9961 44.7356 75.8475C44.9406 76.5047 45.0735 77.2124 45.1313 77.9506C45.1999 78.8278 45.9896 79.5031 46.8668 79.4345C47.7438 79.3658 48.4193 78.5762 48.3508 77.699Z" fill="#285AA5"/>
<path d="M46.6509 81.2324C45.7954 80.9802 44.8977 81.4683 44.6449 82.3234C44.4345 83.0358 44.1617 83.7345 43.8343 84.4003C43.4405 85.2002 43.77 86.1681 44.5703 86.5617C45.3601 86.9505 46.3434 86.6147 46.7317 85.8256C47.1399 84.9959 47.4797 84.1253 47.7419 83.238C47.9945 82.3829 47.506 81.4849 46.6509 81.2324Z" fill="#285AA5"/>
<path d="M37.5626 54.7489C37.1834 53.9415 36.2217 53.5948 35.4148 53.974C34.6222 54.3461 33.8368 54.7517 33.0807 55.1794C32.477 55.5208 32.1537 56.2326 32.2944 56.9119C32.4478 57.6536 33.12 58.1997 33.8771 58.1997C34.1466 58.1997 34.4194 58.1323 34.6706 57.9902C35.3561 57.6025 36.0686 57.2344 36.7876 56.8967C37.5948 56.5175 37.9418 55.5559 37.5626 54.7489Z" fill="#285AA5"/>
<path d="M43.5094 88.0252C42.8952 87.3788 41.8736 87.3521 41.2269 87.9662C40.6932 88.473 40.1112 88.9308 39.4968 89.3276C38.7476 89.8114 38.5325 90.8107 39.0162 91.5598C39.4929 92.2987 40.5089 92.5181 41.2484 92.0405C42.0308 91.5351 42.7718 90.9523 43.4505 90.3077C44.097 89.6937 44.1234 88.6719 43.5094 88.0252Z" fill="#285AA5"/>
<path d="M43.5967 52.8629C43.3666 52.0018 42.4814 51.4904 41.6201 51.7199C41.1846 51.8363 40.7485 51.9609 40.324 52.0901C39.5151 52.3367 39.0261 53.1965 39.2266 54.0178C39.4436 54.9067 40.3902 55.4453 41.2656 55.1789C41.6545 55.0603 42.0539 54.9462 42.4535 54.8394C43.3146 54.6093 43.8266 53.7244 43.5967 52.8629Z" fill="#285AA5"/>
<path d="M7.30645 107.649C7.11911 107.287 6.93735 106.916 6.76569 106.548C6.38907 105.74 5.42829 105.39 4.62026 105.767C3.81223 106.143 3.46225 107.104 3.83909 107.912C4.02901 108.319 4.23011 108.729 4.437 109.13C4.84048 109.911 5.8294 110.228 6.61208 109.824C7.40442 109.416 7.7153 108.442 7.30645 107.649Z" fill="#285AA5"/>
<path d="M5.16427 102.263C4.9563 101.53 4.77733 100.784 4.63296 100.044C4.46216 99.1685 3.61482 98.5978 2.7389 98.7684C1.86384 98.9392 1.293 99.7872 1.4638 100.662C1.62536 101.491 1.82538 102.326 2.05806 103.145C2.29825 103.991 3.20575 104.498 4.05224 104.257C4.91032 104.013 5.40812 103.121 5.16427 102.263Z" fill="#285AA5"/>
<path d="M2.68345 91.5217C1.79528 91.4667 1.02636 92.1405 0.969425 93.0301C0.929035 93.6631 0.90841 94.3048 0.90841 94.9377C0.90841 95.5184 0.887355 96.0833 1.27021 96.56C1.58109 96.9469 2.06642 97.1768 2.56421 97.1637C3.05792 97.1532 3.52714 96.9111 3.82276 96.5157C4.18091 96.0369 4.13751 95.5045 4.13751 94.9375C4.13751 94.3731 4.15577 93.8005 4.19187 93.2357C4.2488 92.3461 3.57333 91.5786 2.68345 91.5217Z" fill="#285AA5"/>
<path d="M4.4373 84.4908C3.58781 84.2164 2.6788 84.6828 2.40488 85.5313C2.14427 86.3389 1.91396 87.1649 1.72103 87.9865C1.51671 88.8543 2.05511 89.7233 2.92308 89.9274C3.77966 90.1289 4.66289 89.5815 4.8642 88.7253C5.03757 87.9889 5.24404 87.2479 5.47779 86.5234C5.7515 85.6746 5.28593 84.7645 4.4373 84.4908Z" fill="#285AA5"/>
<path d="M12.6699 72.7003C12.0539 72.0551 11.0325 72.031 10.3869 72.6466C10.2217 72.804 10.058 72.9643 9.89493 73.1269C9.4588 73.5633 9.02782 74.0246 8.61382 74.4983C8.02708 75.1695 8.0954 76.1896 8.76658 76.7765C9.42872 77.3555 10.466 77.2859 11.0448 76.6238C11.4115 76.2042 11.7931 75.796 12.1783 75.4105C12.3229 75.2659 12.469 75.1233 12.6159 74.9832C13.2613 74.3672 13.2852 73.3454 12.6699 72.7003Z" fill="#285AA5"/>
<path d="M7.81586 78.0791C7.05639 77.6123 6.06209 77.8495 5.59481 78.6087C5.15266 79.3278 4.7335 80.075 4.3485 80.8294C3.94331 81.6236 4.25891 82.596 5.0534 83.001C5.83801 83.4013 6.82565 83.0796 7.22504 82.2961C7.57094 81.618 7.94778 80.9462 8.34524 80.3002C8.81252 79.5405 8.57533 78.5462 7.81586 78.0791Z" fill="#285AA5"/>
<path d="M17.757 69.2817C17.2998 68.5165 16.3086 68.2666 15.5431 68.7238C15.1538 68.9562 14.7647 69.2014 14.3861 69.4525C13.6432 69.9458 13.4404 70.9477 13.9335 71.6906C14.4197 72.4234 15.4378 72.6299 16.1715 72.1433C16.5077 71.9203 16.8532 71.7024 17.1991 71.4959C17.9646 71.0385 18.2144 70.0472 17.757 69.2817Z" fill="#285AA5"/>
</svg>
