<svg width="110" height="110" viewBox="0 0 110 110" fill="none" xmlns="http://www.w3.org/2000/svg">
<g clip-path="url(#clip0)">
<path d="M73.334 60.5C67.2674 60.5 62.334 65.4335 62.334 71.5C62.334 77.5665 67.2674 82.5 73.334 82.5C79.4005 82.5 84.334 77.5665 84.334 71.5C84.334 65.4335 79.4005 60.5 73.334 60.5ZM73.334 78.8333C69.2896 78.8333 66.0007 75.5442 66.0007 71.5C66.0007 67.4556 69.2898 64.1667 73.334 64.1667C77.3784 64.1667 80.6672 67.4558 80.6672 71.5C80.6675 75.5444 77.3784 78.8333 73.334 78.8333Z" fill="#285AA5"/>
<path d="M77 78.833V86.4084L74.349 84.6411C73.7331 84.2286 72.9319 84.2286 72.3158 84.6411L69.6665 86.4084V78.833H66V89.833C66 90.5095 66.3721 91.1311 66.9698 91.4499C67.5638 91.769 68.2898 91.7322 68.8508 91.3582L73.3333 88.3699L77.8157 91.3582C78.1219 91.5616 78.4777 91.6663 78.8333 91.6663C79.1302 91.6663 79.4273 91.5947 79.6986 91.4499C80.2944 91.1309 80.6667 90.5093 80.6667 89.833V78.833H77Z" fill="#285AA5"/>
<path d="M65.9993 18.333H42.166V21.9997H65.9993V18.333Z" fill="#285AA5"/>
<path d="M84.3347 29.333H25.668V32.9997H84.3347V29.333Z" fill="#285AA5"/>
<path d="M66.0012 40.333H25.668V43.9997H66.0012V40.333Z" fill="#285AA5"/>
<path d="M84.334 40.333H73.334V43.9997H84.334V40.333Z" fill="#285AA5"/>
<path d="M84.3347 51.333H25.668V54.9997H84.3347V51.333Z" fill="#285AA5"/>
<path d="M47.668 62.333H25.668V65.9998H47.668V62.333Z" fill="#285AA5"/>
<path d="M34.8347 71.5H25.668V75.1667H34.8347V71.5Z" fill="#285AA5"/>
<path d="M47.666 71.5H42.166V75.1667H47.666V71.5Z" fill="#285AA5"/>
<path d="M100.835 0C95.7803 0 91.668 4.11211 91.668 9.16674V12.8335C91.668 13.8454 92.4874 14.6667 93.5012 14.6667H108.168C109.182 14.6667 110.001 13.8454 110.001 12.8335V9.16674C110.001 4.11211 105.889 0 100.835 0ZM106.335 11H95.3347V9.16674C95.3347 6.13443 97.8024 3.66674 100.835 3.66674C103.867 3.66674 106.335 6.13443 106.335 9.16674V11Z" fill="#285AA5"/>
<path d="M100.834 0H23.8345C18.7801 0 14.668 4.11211 14.668 9.16674V97.1667H18.3347V9.16674C18.3347 6.13443 20.8024 3.66674 23.8347 3.66674H93.5051C92.352 5.19943 91.6682 7.10424 91.6682 9.16674V100.833C91.6682 103.866 89.2005 106.333 86.1682 106.333H16.5012V110H86.168C91.2224 110 95.3347 105.888 95.3347 100.833V9.16674C95.3347 6.13443 97.8024 3.66674 100.835 3.66674C101.849 3.66674 102.668 2.84539 102.668 1.83348C102.668 0.821563 101.848 0 100.834 0Z" fill="#285AA5"/>
<path d="M86.1667 106.333C83.1344 106.333 80.6667 103.865 80.6667 100.833V97.1663C80.6667 96.1524 79.8473 95.333 78.8335 95.333H1.83326C0.821348 95.333 0 96.1524 0 97.1663V100.833C0 105.888 4.11211 110 9.16674 110H86.1667C87.1806 110 88 109.18 88 108.167C88 107.153 87.1806 106.333 86.1667 106.333ZM9.16674 106.333C6.13443 106.333 3.66674 103.865 3.66674 100.833V98.9997H77V100.833C77 102.896 77.6839 104.8 78.8369 106.333H9.16674Z" fill="#285AA5"/>
</g>
<defs>
<clipPath id="clip0">
<rect width="110" height="110" fill="white"/>
</clipPath>
</defs>
</svg>
