<svg width="109" height="111" viewBox="0 0 109 111" fill="none" xmlns="http://www.w3.org/2000/svg">
<g clip-path="url(#clip0)">
<path d="M88.1367 32.958C89.3123 32.958 90.2656 31.9962 90.2656 30.8096V7.44531C90.2656 3.89137 87.4006 1 83.8789 1H6.38672C2.86508 1 0 3.89137 0 7.44531V104.555C0 108.109 2.86508 111 6.38672 111H83.8789C87.4006 111 90.2656 108.109 90.2656 104.555V88.7267C90.2656 87.5401 89.3123 86.5783 88.1367 86.5783C86.9611 86.5783 86.0078 87.5401 86.0078 88.7267V104.555C86.0078 105.739 85.0528 106.703 83.8789 106.703H6.38672C5.21284 106.703 4.25781 105.739 4.25781 104.555V7.44531C4.25781 6.26066 5.21284 5.29688 6.38672 5.29688H83.8789C85.0528 5.29688 86.0078 6.26066 86.0078 7.44531V30.8096C86.0078 31.9962 86.9611 32.958 88.1367 32.958Z" fill="#285AA5"/>
<path d="M45.1348 12.6016C34.335 12.6016 25.5488 21.4684 25.5488 32.3672C25.5488 38.0212 27.914 43.1276 31.6975 46.7336C31.7684 46.8101 31.8438 46.8825 31.9262 46.9484C35.4114 50.1666 40.0497 52.1326 45.1345 52.1326C50.2194 52.1326 54.8577 50.1663 58.3429 46.9484C58.4253 46.8825 58.5007 46.8098 58.5716 46.7336C62.3555 43.1276 64.7207 38.0212 64.7207 32.3672C64.7207 21.4684 55.9345 12.6016 45.1348 12.6016ZM45.1348 47.8359C41.6585 47.8359 38.4502 46.6603 35.8759 44.6846C37.747 41.3363 41.2387 39.2422 45.1348 39.2422C49.0309 39.2422 52.5225 41.3363 54.3936 44.6846C51.8191 46.6603 48.6111 47.8359 45.1348 47.8359ZM41.7285 31.5078V30.1113C41.7285 28.216 43.2566 26.6738 45.1348 26.6738C47.0129 26.6738 48.541 28.216 48.541 30.1113V31.5078C48.541 33.4032 47.0129 34.9453 45.1348 34.9453C43.2566 34.9453 41.7285 33.4032 41.7285 31.5078ZM57.4696 41.5374C55.8996 39.1874 53.7236 37.3597 51.1972 36.2314C52.2 34.9236 52.7988 33.2854 52.7988 31.5078V30.1113C52.7988 25.8465 49.3609 22.377 45.1348 22.377C40.9087 22.377 37.4707 25.8465 37.4707 30.1113V31.5078C37.4707 33.2854 38.0696 34.9236 39.0723 36.2314C36.5459 37.3597 34.3699 39.1874 32.7999 41.5374C30.9203 38.9693 29.8066 35.7976 29.8066 32.3672C29.8066 23.8377 36.6828 16.8984 45.1348 16.8984C53.5867 16.8984 60.4629 23.8377 60.4629 32.3672C60.4629 35.7976 59.3493 38.9693 57.4696 41.5374Z" fill="#285AA5"/>
<path d="M56.6308 95.1016H45.1348C43.9592 95.1016 43.0059 96.0634 43.0059 97.25C43.0059 98.4366 43.9592 99.3984 45.1348 99.3984H56.6308C57.8064 99.3984 58.7597 98.4366 58.7597 97.25C58.7597 96.0634 57.8064 95.1016 56.6308 95.1016Z" fill="#285AA5"/>
<path d="M56.6309 83.0703H26.4004C25.2248 83.0703 24.2715 84.0322 24.2715 85.2188C24.2715 86.4053 25.2248 87.3672 26.4004 87.3672H56.6309C57.8064 87.3672 58.7598 86.4053 58.7598 85.2188C58.7598 84.0322 57.8064 83.0703 56.6309 83.0703Z" fill="#285AA5"/>
<path d="M56.6309 71.0391H26.4004C25.2248 71.0391 24.2715 72.0009 24.2715 73.1875C24.2715 74.3741 25.2248 75.3359 26.4004 75.3359H56.6309C57.8064 75.3359 58.7598 74.3741 58.7598 73.1875C58.7598 72.0009 57.8064 71.0391 56.6309 71.0391Z" fill="#285AA5"/>
<path d="M18.8117 59.6373C18.416 59.2377 17.8667 59.0078 17.3047 59.0078C16.7446 59.0078 16.1953 59.2377 15.7996 59.6373C15.4036 60.0369 15.1758 60.5912 15.1758 61.1562C15.1758 61.7213 15.4034 62.2756 15.7996 62.6752C16.1977 63.0748 16.7446 63.3047 17.3047 63.3047C17.8667 63.3047 18.4138 63.0748 18.8117 62.6752C19.2077 62.2756 19.4357 61.7213 19.4357 61.1562C19.4357 60.5912 19.2079 60.0369 18.8117 59.6373Z" fill="#285AA5"/>
<path d="M18.8117 71.6686C18.4138 71.2689 17.8667 71.0391 17.3047 71.0391C16.7446 71.0391 16.1977 71.2689 15.7996 71.6686C15.4036 72.0682 15.1758 72.6225 15.1758 73.1875C15.1758 73.7525 15.4034 74.3068 15.7996 74.7064C16.1977 75.1061 16.7446 75.3359 17.3047 75.3359C17.8667 75.3359 18.4138 75.1061 18.8117 74.7064C19.2077 74.3068 19.4357 73.7525 19.4357 73.1875C19.4357 72.6225 19.2079 72.0682 18.8117 71.6686Z" fill="#285AA5"/>
<path d="M18.8117 83.6998C18.4138 83.3002 17.8667 83.0703 17.3047 83.0703C16.7446 83.0703 16.1977 83.3002 15.7996 83.6998C15.4036 84.0994 15.1758 84.6537 15.1758 85.2188C15.1758 85.7838 15.4034 86.3381 15.7996 86.7377C16.1953 87.1373 16.7446 87.3672 17.3047 87.3672C17.8667 87.3672 18.416 87.1373 18.8117 86.7377C19.2077 86.3381 19.4357 85.7838 19.4357 85.2188C19.4357 84.6537 19.2079 84.0994 18.8117 83.6998Z" fill="#285AA5"/>
<path d="M56.6309 59.0078H26.4004C25.2248 59.0078 24.2715 59.9697 24.2715 61.1562C24.2715 62.3428 25.2248 63.3047 26.4004 63.3047H56.6309C57.8064 63.3047 58.7598 62.3428 58.7598 61.1562C58.7598 59.9697 57.8064 59.0078 56.6309 59.0078Z" fill="#285AA5"/>
<path d="M104.531 28.9979C102.463 27.7929 100.054 27.4727 97.7462 28.0964C95.4393 28.7203 93.5109 30.2135 92.3171 32.3007L65.5265 79.1287C65.3798 79.3854 65.287 79.6701 65.2544 79.9647L63.3686 97.0112C63.2749 97.8594 63.6875 98.6834 64.4199 99.1103C64.7505 99.3028 65.1177 99.3981 65.4841 99.3981C65.9295 99.3981 66.3731 99.2574 66.7468 98.9796L80.4322 88.8081C80.6687 88.6323 80.8667 88.4091 81.0134 88.1524L107.804 41.3244C110.269 37.0155 108.801 31.4858 104.531 28.9979ZM68.1399 92.6076L69.1248 83.7062L75.2862 87.2962L68.1399 92.6076ZM78.3906 84.1432L70.2784 79.4166L91.7772 41.8383L99.8894 46.5648L78.3906 84.1432ZM104.117 39.1757L102.018 42.8437L93.9059 38.1172L96.0043 34.4491C96.6298 33.3558 97.6397 32.5738 98.8481 32.247C100.057 31.92 101.319 32.088 102.402 32.7192C103.486 33.3504 104.26 34.3696 104.584 35.5891C104.908 36.8086 104.742 38.0824 104.117 39.1757Z" fill="#285AA5"/>
</g>
<defs>
<clipPath id="clip0">
<rect width="109" height="110" fill="white" transform="translate(0 0.5)"/>
</clipPath>
</defs>
</svg>
