<svg width="150" height="150" viewBox="0 0 150 150" fill="none" xmlns="http://www.w3.org/2000/svg">
<circle cx="75" cy="75" r="72.5" stroke="#084892" stroke-width="5"/>
<rect x="42" y="82" width="10" height="29" fill="#E5EEFF"/>
<path d="M76 83L86 85V111H76V83Z" fill="#E5EEFF"/>
<path d="M88.0004 27C80.2426 27 72.9564 30.0134 67.4851 35.4848C62.0138 40.9563 59 48.2424 59 56C59 63.7576 62.0138 71.0437 67.4851 76.5152C72.9572 81.9866 80.2426 85 88.0004 85C95.7582 85 103.044 81.9866 108.516 76.5152C113.987 71.0437 117 63.7576 117 56C117 48.2424 113.987 40.9563 108.516 35.4848C103.044 30.0134 95.7582 27 88.0004 27ZM104.5 72.5C99.6306 77.3696 94.9064 79.5 88.0004 79.5C81.0936 79.5 75.8694 77.3696 71 72.5C66.1298 67.6304 64 62.9059 64 56C64 49.0933 66.1298 44.3696 71 39.5C76.0338 34.4661 81.3875 32.5 88.0004 32.5C94.6133 32.5 99.4662 34.4661 104.5 39.5C109.369 44.3696 111 49.0933 111 56C111 62.9059 109.369 67.6304 104.5 72.5Z" fill="#E5EEFF"/>
<path d="M125.806 88.5127L111.829 74.5342C115.206 70.0848 117.314 64.7512 117.855 59.1594C118.517 52.2968 116.807 45.3632 113.041 39.6352C112.628 39.0065 111.782 38.832 111.155 39.2456C110.526 39.6593 110.351 40.5043 110.765 41.133C117.892 51.9718 116.397 66.508 107.21 75.6957C96.48 86.4267 79.022 86.4267 68.2924 75.6957C57.5621 64.9648 57.5621 47.5039 68.2924 36.7729C79.022 26.042 96.4807 26.042 107.207 36.7694L107.281 36.8446C107.812 37.3781 108.674 37.3817 109.208 36.851C109.742 36.3209 109.745 35.4582 109.215 34.9246L109.137 34.8458C97.3442 23.0527 78.1577 23.0527 66.3653 34.8458C65.9949 35.2162 65.6366 35.5937 65.2897 35.9782H35.3623C34.6102 35.9782 34 36.5884 34 37.3405V43.3659C34 44.1187 34.6102 44.7289 35.3623 44.7289C36.1151 44.7289 36.7246 44.1187 36.7246 43.3659V38.7036H63.1043C62.0634 40.1659 61.168 41.6999 60.418 43.2871H43.4453C42.6932 43.2871 42.083 43.8966 42.083 44.6494C42.083 45.4023 42.6932 46.0117 43.4453 46.0117H59.2906C58.8996 47.1058 58.5739 48.2177 58.3128 49.3423H43.4453C42.6932 49.3423 42.083 49.9518 42.083 50.7046C42.083 51.4567 42.6932 52.0669 43.4453 52.0669H57.8091C57.6565 53.1716 57.565 54.2835 57.5345 55.3967H43.4453C42.6932 55.3967 42.083 56.0069 42.083 56.7597C42.083 57.5118 42.6932 58.122 43.4453 58.122H57.582C57.8275 62.0798 58.8429 65.9978 60.6316 69.6285H58.3405C57.5877 69.6285 56.9782 70.2387 56.9782 70.9915V111.321C56.9782 112.074 57.5877 112.684 58.3405 112.684H69.2389C69.9917 112.684 70.6012 112.074 70.6012 111.321V81.1513C71.828 81.9964 73.103 82.7414 74.4157 83.3849V111.321C74.4157 112.074 75.0259 112.684 75.778 112.684H86.6764C87.4292 112.684 88.0387 112.074 88.0387 111.321V86.465C89.1009 86.4544 90.1616 86.3898 91.2181 86.2692V107.313C91.2181 108.066 91.8276 108.676 92.5804 108.676C93.3325 108.676 93.9427 108.066 93.9427 107.313V85.8307C98.2489 84.9367 102.396 83.099 106.05 80.3169L120.024 94.2926C120.796 95.0645 121.823 95.4903 122.914 95.4903C124.006 95.4903 125.033 95.0645 125.805 94.2926C127.398 92.7004 127.399 90.1077 125.806 88.5127ZM67.8766 109.959H59.7028V72.3538H62.1571C63.3356 74.2249 64.7376 75.9944 66.3653 77.6228C66.8563 78.1138 67.3615 78.5828 67.8766 79.0327V109.959ZM77.141 109.959V84.5571C79.7833 85.5426 82.5363 86.1457 85.3148 86.3685V109.959H77.141ZM123.879 92.3655C123.622 92.623 123.279 92.765 122.915 92.765C122.551 92.765 122.208 92.623 121.951 92.3655L108.15 78.5637C108.485 78.2579 108.814 77.9457 109.137 77.6228C109.459 77.3007 109.772 76.9722 110.078 76.6366L123.878 90.4391C124.409 90.9705 124.41 91.8355 123.879 92.3655Z" fill="#285AA5"/>
<path d="M92.5805 111.824C91.8284 111.824 91.2182 112.434 91.2182 113.186V116.275H36.7246V49.2695C36.7246 48.5167 36.1151 47.9072 35.3623 47.9072C34.6102 47.9072 34 48.5167 34 49.2695V117.637C34 118.39 34.6102 119 35.3623 119H92.5805C93.3333 119 93.9428 118.39 93.9428 117.637V113.186C93.9428 112.434 93.3333 111.824 92.5805 111.824Z" fill="#285AA5"/>
<path d="M39.9023 81.8896V111.32C39.9023 112.073 40.5125 112.683 41.2646 112.683H52.1638C52.9159 112.683 53.5261 112.073 53.5261 111.32V81.8896C53.5261 81.1375 52.9159 80.5273 52.1638 80.5273H41.2646C40.5125 80.5273 39.9023 81.1375 39.9023 81.8896ZM42.627 83.2527H50.8015V109.957H42.627V83.2527Z" fill="#285AA5"/>
<path d="M53.6311 64.1775C54.3839 64.1775 54.9934 63.5673 54.9934 62.8145C54.9934 62.0623 54.3839 61.4521 53.6311 61.4521H43.4443C42.6922 61.4521 42.082 62.0623 42.082 62.8145C42.082 63.5673 42.6922 64.1775 43.4443 64.1775H53.6311Z" fill="#285AA5"/>
<path d="M87.7508 31.4473C81.1209 31.4473 74.8941 34.0229 70.2182 38.6994C65.5424 43.3759 62.9668 49.6035 62.9668 56.2341C62.9668 62.8647 65.5424 69.0923 70.2182 73.7688C74.8948 78.4454 81.1209 81.021 87.7508 81.021C94.3807 81.021 100.607 78.4454 105.283 73.7688C109.959 69.0923 112.534 62.8647 112.534 56.2341C112.534 49.6035 109.959 43.3759 105.283 38.6994C100.607 34.0229 94.3807 31.4473 87.7508 31.4473ZM103.356 71.8417C99.1949 76.0039 93.6527 78.2956 87.7508 78.2956C81.8482 78.2956 76.3067 76.0039 72.1453 71.8417C67.9832 67.6796 65.6914 62.1367 65.6914 56.2341C65.6914 50.3308 67.9832 44.7879 72.1453 40.6258C76.4472 36.3232 82.0994 34.1712 87.7508 34.1712C93.4022 34.1712 99.0544 36.3232 103.356 40.6258C107.518 44.7879 109.81 50.3308 109.81 56.2341C109.81 62.1367 107.518 67.6796 103.356 71.8417Z" fill="#285AA5"/>
</svg>
