<svg width="150" height="150" viewBox="0 0 150 150" fill="none" xmlns="http://www.w3.org/2000/svg">
<circle cx="75" cy="75" r="72.5" stroke="#084892" stroke-width="5"/>
<rect x="54" y="91" width="7" height="22" fill="#E5EEFF"/>
<rect x="29" y="73" width="7" height="40" fill="#E5EEFF"/>
<rect x="42" y="39" width="9" height="77" transform="rotate(-90 42 39)" fill="#E5EEFF"/>
<path d="M80.5 69.5L93.5 87.5L99 82L102.5 74V65.5L100.5 60L98 56.5L80.5 69.5Z" fill="#E5EEFF"/>
<path d="M49.369 34.4748C48.9113 33.3921 47.3369 33.3488 46.8388 34.423C46.5897 34.9608 46.7182 35.615 47.1538 36.0188C47.5958 36.4274 48.2713 36.4991 48.7914 36.1968C49.3775 35.8556 49.6329 35.102 49.369 34.4748Z" fill="#285AA5"/>
<path d="M58.7699 34.475C58.3016 33.3682 56.6846 33.3568 56.217 34.475C55.9807 35.0398 56.1595 35.7111 56.6377 36.0899C57.0819 36.4419 57.7162 36.4802 58.2016 36.1914C58.7812 35.8466 59.0324 35.0987 58.7699 34.475Z" fill="#285AA5"/>
<path d="M54.0697 34.475C53.8561 33.9691 53.358 33.6278 52.8067 33.6221C52.198 33.6158 51.6495 34.023 51.4707 34.6027C51.3054 35.1398 51.4991 35.7422 51.9376 36.0899C52.398 36.4546 53.0586 36.4801 53.5489 36.1616C54.0981 35.8032 54.3251 35.0809 54.0697 34.475Z" fill="#285AA5"/>
<path d="M114.745 27.9063H46.5124C43.0633 27.9063 40.2578 30.7125 40.2578 34.1608V58.4134C40.2578 59.1768 40.8765 59.7955 41.64 59.7955C42.4034 59.7955 43.0229 59.1768 43.0229 58.4134V41.3633H84.1446V59.3514C84.1446 59.8785 84.4447 60.3603 84.9187 60.5923C85.1117 60.6874 85.3196 60.7335 85.5268 60.7335C85.8276 60.7335 86.127 60.6356 86.374 60.444L103.836 46.9118C104.127 46.6869 104.316 46.3548 104.361 45.9901C104.407 45.6254 104.305 45.2579 104.079 44.9677C103.033 43.6288 101.862 42.4254 100.592 41.3633H118.235V95.0203C118.235 96.9439 116.67 98.5098 114.745 98.5098H74.7433V92.4156C76.6548 92.9095 78.6266 93.1599 80.6289 93.1599C93.5885 93.1599 104.132 82.617 104.132 69.6581C104.132 68.1673 103.992 66.6745 103.714 65.2228C103.571 64.4728 102.846 63.9818 102.097 64.1244C101.347 64.2677 100.855 64.9922 100.998 65.7421C101.243 67.0236 101.367 68.3412 101.367 69.6581C101.367 76.0651 98.446 81.8031 93.8652 85.6098L82.5318 69.9298L97.8131 58.0472C98.612 59.2265 99.2868 60.4838 99.826 61.7993C100.115 62.506 100.923 62.8437 101.63 62.5542C102.336 62.264 102.674 61.4566 102.385 60.7499C101.575 58.7766 100.498 56.9198 99.1825 55.2304C98.7135 54.628 97.845 54.5194 97.2433 54.9884L82.011 66.832V47.539C82.011 46.7756 81.3923 46.1562 80.6289 46.1562C67.6692 46.1562 57.127 56.6991 57.127 69.6581C57.127 76.6973 60.2078 83.2449 65.6038 87.7313V98.5098H62.1171V89.8429C62.1171 89.0794 61.4984 88.46 60.7342 88.46H54.3605C53.5963 88.46 52.9776 89.0794 52.9776 89.8429V98.5098H49.3973V63.0225C49.3973 62.2583 48.7786 61.6396 48.0151 61.6396H41.6407C40.8772 61.6396 40.2585 62.2583 40.2585 63.0225V113.735C40.2585 114.498 40.8772 115.117 41.6407 115.117H48.0151C48.7786 115.117 49.3973 114.498 49.3973 113.735V101.275H52.9776V113.735C52.9776 114.498 53.5963 115.117 54.3605 115.117H60.7342C61.4984 115.117 62.1171 114.498 62.1171 113.735V101.275H65.6038V113.735C65.6038 114.498 66.2225 115.117 66.9867 115.117H73.3604C74.1246 115.117 74.7433 114.498 74.7433 113.735V101.275H114.745C118.194 101.275 121 98.4694 121 95.0203V34.1608C121 30.7125 118.194 27.9062 114.745 27.9062V27.9063ZM43.0236 112.352V64.4047H46.6323V112.352H43.0236ZM55.7427 112.352V91.2257H59.3521V112.352H55.7427ZM59.892 69.6581C59.892 58.6887 68.454 49.6811 79.246 48.9666V69.6581C79.246 69.9546 79.3439 70.2349 79.5113 70.4662L79.5092 70.4683L91.6252 87.2318C88.4359 89.2348 84.6654 90.3949 80.6289 90.3949C78.6173 90.3949 76.6427 90.1082 74.7433 89.5456V78.7834C74.7433 78.0192 74.1246 77.4005 73.3604 77.4005H66.9867C66.2225 77.4005 65.6038 78.0192 65.6038 78.7834V83.9544C61.9433 80.1208 59.892 75.0533 59.892 69.6581ZM68.3688 112.352V80.1655H71.9782V112.352H68.3688ZM86.9097 56.531V38.7359C92.3575 39.0906 97.3774 41.5364 101.01 45.6049L86.9097 56.531ZM96.4621 38.5982C93.1436 36.8591 89.4115 35.9254 85.5268 35.9254C84.7633 35.9254 84.1446 36.5448 84.1446 37.3083V38.5982H43.0229V34.1608C43.0229 32.2365 44.5881 30.6713 46.5124 30.6713H114.745C116.67 30.6713 118.235 32.2365 118.235 34.1608V38.5982H96.4621Z" fill="#285AA5"/>
<path d="M35.7566 71.04H29.3829C28.6187 71.04 28 71.6595 28 72.4229V113.735C28 114.498 28.6187 115.117 29.3829 115.117H35.7566C36.5201 115.117 37.1395 114.498 37.1395 113.735V102.562C37.1395 101.798 36.5201 101.179 35.7566 101.179C34.9932 101.179 34.3737 101.798 34.3737 102.562V112.352H30.7651V73.8051H34.3737V97.9527C34.3737 98.7161 34.9932 99.3355 35.7566 99.3355C36.5201 99.3355 37.1395 98.7161 37.1395 97.9527V72.4229C37.1395 71.6595 36.5201 71.04 35.7566 71.04Z" fill="#285AA5"/>
<path d="M114.836 91.8232H100.182C99.4183 91.8232 98.7988 92.4427 98.7988 93.2061C98.7988 93.9696 99.4183 94.589 100.182 94.589H114.836C115.6 94.589 116.219 93.9696 116.219 93.2061C116.219 92.4427 115.6 91.8232 114.836 91.8232Z" fill="#285AA5"/>
<path d="M114.836 85.9717H104.605C103.841 85.9717 103.223 86.5911 103.223 87.3546C103.223 88.118 103.841 88.7367 104.605 88.7367H114.836C115.599 88.7367 116.218 88.118 116.218 87.3546C116.218 86.5911 115.599 85.9717 114.836 85.9717Z" fill="#285AA5"/>
</svg>
