<svg width="406" height="250" viewBox="0 0 406 250" fill="none" xmlns="http://www.w3.org/2000/svg">
<rect x="36.7422" y="15.0977" width="338.257" height="204.805" rx="4.5" fill="#515151" stroke="#515151" stroke-width="3"/>
<rect x="48.5879" y="30.7539" width="314.567" height="183.021" rx="6" fill="#F8AF2C"/>
<circle cx="204.921" cy="139.428" r="104.856" fill="white"/>
<path d="M203.012 163.255C155.732 150.291 128.66 192.17 121.034 214.729H142.959L150.584 208.057L152.491 214.729H257.347L259.253 208.057L265.926 214.729H288.803C273.551 159.823 225.254 157.535 203.012 163.255Z" fill="#80A1D3"/>
<path d="M239.238 107.961C239.238 135.337 222.594 153.716 202.062 153.716C181.53 153.716 164.886 135.337 164.886 107.961C164.886 80.5854 181.53 54.5801 202.062 54.5801C222.594 54.5801 239.238 80.5854 239.238 107.961Z" fill="#F5B89C"/>
<path d="M231.61 99.6055C231.61 94.3409 234.597 90.8064 238.282 90.8064C241.968 90.8064 244.955 94.3409 244.955 99.6055C244.955 104.87 241.968 109.871 238.282 109.871C234.597 109.871 231.61 104.87 231.61 99.6055Z" fill="#F5B89C"/>
<path d="M157.259 102.391C157.259 96.6004 161.1 92.7125 165.838 92.7125C170.576 92.7125 174.417 96.6004 174.417 102.391C174.417 108.182 170.576 113.684 165.838 113.684C161.1 113.684 157.259 108.182 157.259 102.391Z" fill="#F5B89C"/>
<path d="M160.119 76.5104C160.881 79.5607 164.885 96.846 166.791 105.107C166.791 91.7621 173.464 90.8089 173.464 87.9492C173.464 85.0895 170.604 85.0895 170.604 80.3233C170.604 76.5104 173.781 74.2862 175.37 73.6507C184.521 83.5643 202.06 85.4072 209.686 85.0895C202.823 84.3269 197.93 76.5104 196.341 72.6975C203.967 78.0356 214.135 80.0056 218.265 80.3233C213.69 78.7982 213.181 72.6975 213.499 69.8378C222.65 70.6004 232.564 90.4911 236.377 100.341V82.2298L243.049 86.0427C244.574 82.9924 242.414 75.2394 241.143 71.7442L246.862 78.4169C247.625 73.0788 237.012 62.2119 231.61 57.4457H243.049C239.236 47.5321 224.938 43.7827 218.265 43.1472L223.031 38.3811C216.168 37.6185 205.555 39.9698 201.107 41.2408L210.639 36.4746C203.967 36.4746 188.716 41.2408 173.464 47.9134C158.212 54.586 159.165 72.6975 160.119 76.5104Z" fill="#063A75"/>
<rect x="187.762" y="134.654" width="28.597" height="38.1293" fill="#F5B89C"/>
<path d="M204.917 172.787C215.593 166.687 216.356 156.9 215.403 152.77C229.492 156.996 225.142 174.022 220.39 183.857C219.823 185.03 218.292 185.27 217.339 184.382L204.917 172.787Z" fill="#E5E5E5"/>
<path d="M204.917 172.787C194.241 166.687 186.835 157.853 187.789 153.723C173.207 158.097 182.123 176.761 192.931 185.057C193.76 185.693 194.929 185.499 195.574 184.678L204.917 172.787Z" fill="#E5E5E5"/>
<path d="M6.64453 233C6.64453 242.389 14.2557 250 23.6445 250H388.096C397.485 250 405.096 242.389 405.096 233V213.777H6.64453V233Z" fill="#959595"/>
<path opacity="0.5" d="M86.8784 10.5572H78.9522V6.82183C78.9522 5.11209 77.5491 3.70898 75.8394 3.70898C74.1297 3.70898 72.7265 5.11209 72.7265 6.82183V10.5572H22.0941V6.82183C22.0941 5.11209 20.691 3.70898 18.9812 3.70898C17.2715 3.70898 15.8684 5.11209 15.8684 6.82183V10.5572H8.36041C4.25332 10.5572 0.926758 13.8838 0.926758 17.9909V27.1622V28.2029V75.9734V77.4229C0.926758 81.53 4.25332 84.8566 8.36041 84.8566H86.8877C90.9948 84.8566 94.3213 81.53 94.3213 77.4229V75.9734V28.2029V27.1622V17.9909C94.312 13.8838 90.9855 10.5572 86.8784 10.5572Z" fill="black" fill-opacity="0.5"/>
<path d="M98.021 14.2794V73.7114C98.021 77.8185 94.6945 81.1451 90.5874 81.1451H12.0694C7.9623 81.1451 4.63574 77.8185 4.63574 73.7114V14.2794C4.63574 10.1723 7.9623 6.8457 12.0694 6.8457H90.5967C94.6945 6.8457 98.021 10.1723 98.021 14.2794Z" fill="#F2F3F4"/>
<path d="M90.5873 79.6895H12.0694C7.9623 79.6895 4.63574 76.363 4.63574 72.2559V73.7054C4.63574 77.8125 7.9623 81.1391 12.0694 81.1391H90.5966C94.7037 81.1391 98.0303 77.8125 98.0303 73.7054V72.2559C98.021 76.363 94.6944 79.6895 90.5873 79.6895Z" fill="#E5E5E5"/>
<path d="M98.021 14.2794V23.4506H4.63574V14.2794C4.63574 10.1723 7.9623 6.8457 12.0694 6.8457H90.5967C94.6945 6.8457 98.021 10.1723 98.021 14.2794Z" fill="#FFB124"/>
<path d="M19.709 28.6348H10.7607V37.583H19.709V28.6348Z" fill="#DBDBDB"/>
<path d="M34.2354 28.6348H25.2871V37.583H34.2354V28.6348Z" fill="#DBDBDB"/>
<path d="M48.7715 28.6348H39.8232V37.583H48.7715V28.6348Z" fill="#DBDBDB"/>
<path d="M63.291 28.6348H54.3428V37.583H63.291V28.6348Z" fill="#DBDBDB"/>
<path d="M77.8154 28.6348H68.8672V37.583H77.8154V28.6348Z" fill="#DBDBDB"/>
<path d="M92.3477 28.6348H83.3994V37.583H92.3477V28.6348Z" fill="#DBDBDB"/>
<path d="M19.7041 41.2715H10.7559V50.2197H19.7041V41.2715Z" fill="#DBDBDB"/>
<path d="M34.2266 41.2715H25.2783V50.2197H34.2266V41.2715Z" fill="#DBDBDB"/>
<path d="M48.7637 41.2715H39.8154V50.2197H48.7637V41.2715Z" fill="#DBDBDB"/>
<path d="M63.2871 41.2715H54.3389V50.2197H63.2871V41.2715Z" fill="#DBDBDB"/>
<path d="M77.8086 41.2715H68.8604V50.2197H77.8086V41.2715Z" fill="#DBDBDB"/>
<path d="M92.3447 41.2715H83.3965V50.2197H92.3447V41.2715Z" fill="#DBDBDB"/>
<path d="M19.708 53.9102H10.7598V62.8584H19.708V53.9102Z" fill="#DBDBDB"/>
<path d="M34.2305 53.9102H25.2822V62.8584H34.2305V53.9102Z" fill="#DBDBDB"/>
<path d="M48.7637 53.9102H39.8154V62.8584H48.7637V53.9102Z" fill="#DBDBDB"/>
<path d="M63.2881 53.9102H54.3398V62.8584H63.2881V53.9102Z" fill="#DBDBDB"/>
<path d="M77.8106 53.9102H68.8623V62.8584H77.8106V53.9102Z" fill="#DBDBDB"/>
<path d="M92.3477 53.9102H83.3994V62.8584H92.3477V53.9102Z" fill="#DBDBDB"/>
<path d="M19.708 66.5449H10.7598V75.4932H19.708V66.5449Z" fill="#DBDBDB"/>
<path d="M34.2246 66.5449H25.2764V75.4932H34.2246V66.5449Z" fill="#DBDBDB"/>
<path d="M48.7618 66.5449H39.8135V75.4932H48.7618V66.5449Z" fill="#DBDBDB"/>
<path d="M63.2842 66.5449H54.3359V75.4932H63.2842V66.5449Z" fill="#DBDBDB"/>
<path d="M77.8076 66.5449H68.8594V75.4932H77.8076V66.5449Z" fill="#DBDBDB"/>
<path d="M92.3428 66.5449H83.3945V75.4932H92.3428V66.5449Z" fill="#DBDBDB"/>
<path d="M98.021 23.4512H4.63574V24.4919H98.021V23.4512Z" fill="#E5E5E5"/>
<path d="M27.325 15.4276C27.325 17.9458 25.2808 19.99 22.7626 19.99C20.2444 19.99 18.2002 17.9458 18.2002 15.4276C18.2002 12.9095 20.2444 10.8652 22.7626 10.8652C25.2808 10.8652 27.325 12.9095 27.325 15.4276Z" fill="white"/>
<path d="M84.0467 15.4276C84.0467 17.9458 82.0024 19.99 79.4843 19.99C76.9661 19.99 74.9219 17.9458 74.9219 15.4276C74.9219 12.9095 76.9661 10.8652 79.4843 10.8652C82.0024 10.8652 84.0467 12.9095 84.0467 15.4276Z" fill="white"/>
<path d="M22.691 17.8501C20.9812 17.8501 19.5781 16.447 19.5781 14.7372V3.11284C19.5781 1.4031 20.9812 0 22.691 0C24.4007 0 25.8038 1.4031 25.8038 3.11284V14.7372C25.8038 16.447 24.4007 17.8501 22.691 17.8501Z" fill="#1947B6"/>
<path d="M79.5494 17.8501C77.8396 17.8501 76.4365 16.447 76.4365 14.7372V3.11284C76.4365 1.4031 77.8396 0 79.5494 0C81.2591 0 82.6622 1.4031 82.6622 3.11284V14.7372C82.6622 16.447 81.2684 17.8501 79.5494 17.8501Z" fill="#1947B6"/>
<path fill-rule="evenodd" clip-rule="evenodd" d="M325.971 75.1917C319.074 80.4313 309.237 80.4399 302.282 74.6735C294.176 67.9533 293.053 55.9346 299.773 47.8289C306.494 39.7233 318.512 38.6001 326.618 45.3203C334.018 51.4552 335.598 62.0059 330.705 69.964C331.781 69.9611 332.864 70.3206 333.757 71.0611L348.385 83.1889C350.412 84.869 350.692 87.8737 349.012 89.9001C347.332 91.9265 344.328 92.2073 342.301 90.5272L327.673 78.3994C326.665 77.5635 326.089 76.3998 325.971 75.1917Z" fill="#848282" fill-opacity="0.5"/>
<circle cx="315.648" cy="57.5985" r="17.5647" transform="rotate(39.6613 315.648 57.5985)" fill="#E5EEFF" stroke="#515151" stroke-width="3"/>
<rect x="331.353" y="66.3251" width="27.5341" height="8.53233" rx="4.26617" transform="rotate(39.6613 331.353 66.3251)" fill="#515151" stroke="#515151"/>
<circle cx="364.914" cy="161.133" r="35.2696" fill="#848282" fill-opacity="0.5"/>
<circle cx="368.511" cy="157.535" r="34.2696" fill="#E5EEFF" stroke="#515151" stroke-width="2"/>
<path d="M394.511 135.617C388.063 142.648 378.801 147.056 368.51 147.056C358.218 147.056 348.956 142.648 342.509 135.617" stroke="#515151" stroke-width="2"/>
<path d="M394.511 179.457C388.063 172.426 378.801 168.018 368.51 168.018C358.218 168.018 348.956 172.426 342.509 179.457" stroke="#515151" stroke-width="2"/>
<path d="M381.809 157.535C381.809 167.179 380.222 175.863 377.694 182.099C376.429 185.22 374.948 187.679 373.354 189.341C371.763 191.001 370.126 191.805 368.51 191.805C366.895 191.805 365.258 191.001 363.667 189.341C362.073 187.679 360.592 185.22 359.327 182.099C356.798 175.863 355.212 167.179 355.212 157.535C355.212 147.892 356.798 139.208 359.327 132.972C360.592 129.851 362.073 127.392 363.667 125.729C365.258 124.069 366.895 123.266 368.51 123.266C370.126 123.266 371.763 124.069 373.354 125.729C374.948 127.392 376.429 129.851 377.694 132.972C380.222 139.208 381.809 147.892 381.809 157.535Z" stroke="#515151" stroke-width="2"/>
<path d="M335.146 157.531H401.873" stroke="#515151" stroke-width="2"/>
<rect x="36.8945" y="195.012" width="65.9435" height="38.3671" fill="#7E7C7C" fill-opacity="0.75"/>
<path d="M103.631 192.811H42.1621L57.7676 203.773L72.2054 213.915C72.9041 214.405 73.8372 214.399 74.5285 213.898L103.631 192.811Z" fill="#FEFEFF" stroke="#FEFEFF"/>
<path d="M102.922 229.986H42.8682L61.9328 209.968L72.2125 216.822C72.9091 217.286 73.8212 217.267 74.4983 216.775L83.8572 209.968L102.922 229.986Z" fill="#FEFEFF" stroke="#FEFEFF"/>
<path d="M104.827 229.027L104.827 194.711L85.7625 209.236L104.827 229.027Z" fill="#FEFEFF" stroke="#FEFEFF"/>
<path d="M40.9609 229.027L40.9609 194.711L60.0256 209.236L40.9609 229.027Z" fill="#FEFEFF" stroke="#FEFEFF"/>
</svg>
